<svg id="Layer_1" enable-background="new 0 0 512 512" height="512" viewBox="0 0 512 512" width="512" xmlns="http://www.w3.org/2000/svg"><g><g><circle cx="256" cy="256" fill="#ffb54a" r="256"/></g><path d="m506.325 309.771-151.263-151.263s-140.551 2.262-175.296 2.262l-34.544 232.737 126.432 118.003c115.921-6.995 211.022-91.118 234.671-201.739z" fill="#f9880d"/><g><path d="m268.085 393.507h-122.863v-275.014h122.863c63.242 0 114.693 51.452 114.693 114.694v45.626c0 63.242-51.451 114.694-114.693 114.694zm-64.863-58h64.863c31.261 0 56.693-25.433 56.693-56.694v-45.626c0-31.261-25.433-56.694-56.693-56.694h-64.863z" fill="#f8fffb"/></g><g><path d="m268.08 118.49h-12.08v58h12.08c31.27 0 56.7 25.44 56.7 56.7v45.62c0 31.26-25.43 56.7-56.7 56.7h-12.08v58h12.08c63.25 0 114.7-51.45 114.7-114.7v-45.62c0-63.25-51.45-114.7-114.7-114.7z" fill="#d8d8d8"/></g></g></svg>