<svg id="Layer_1" enable-background="new 0 0 512 512" height="512" viewBox="0 0 512 512" width="512" xmlns="http://www.w3.org/2000/svg"><g><g><circle cx="256" cy="256" fill="#424242" r="256"/></g><path d="m505.822 312.082-157.603-157.603c-19.243-22.084-46.133-21.582-77.659-21.582 0 0-111.769 27.764-111.769 85.594l15.252 149.289 138.04 138.04c96.356-21.536 172.201-97.382 193.739-193.738z" fill="#232323"/><path d="m258 259.567v39.328h56.9c-4.66 20.97-23.41 36.69-45.77 36.69h-26.26c-25.86 0-46.89-21.03-46.89-46.89v-65.4c0-25.85 21.03-46.88 46.89-46.88h26.26c25.86 0 46.89 21.03 46.89 46.88h58c0-57.83-47.05-104.88-104.89-104.88h-26.26c-57.84 0-104.89 47.05-104.89 104.88v65.4c0 57.84 47.05 104.89 104.89 104.89h26.26c1.141 0 2.277-.025 3.41-.061 14.231-.327 38.749-2.122 67.432-19.213 31.12-18.543 34.046-43.306 34.046-60.684 0-6.127 0-15.374 0-24.778 0-.051.002-.102.002-.154v-29.128z" fill="#f8fffb"/><g fill="#d8d8d8"><path d="m269.13 176.42h-13.13v-58h13.13c57.84 0 104.89 47.04 104.89 104.88h-58c0-25.86-21.03-46.88-46.89-46.88z"/><path d="m258 259.57h116.02v54.06c0 17.38-2.93 42.14-34.05 60.68-28.68 17.09-53.2 18.89-67.43 19.21-1.13.04-2.27.06-3.41.06h-13.13v-58h13.13c22.36 0 41.11-15.72 45.77-36.68h-56.9z"/></g></g></svg>