<svg id="Layer_1" enable-background="new 0 0 512 512" height="512" viewBox="0 0 512 512" width="512" xmlns="http://www.w3.org/2000/svg"><g><g><circle cx="256" cy="256" fill="#f33" r="256"/></g><path d="m511.741 267.226-148.951-148.951-39.776 22.506-6.996 152.042c0 29.252-23.838 41.818-52.414 44.487l-71.385-69.345-46.242 22.606c0 34.106 20.609 68.445 20.609 68.445l146.757 146.531c110.258-25.233 193.362-121.655 198.398-238.321z" fill="#c60000"/><g><path d="m362.79 118.275v161.17c0 55.65-39.99 102.14-92.74 112.23-6.98 1.35-14.19 2.05-21.55 2.05-7.37 0-14.57-.7-21.55-2.05-52.75-10.1-92.73-56.59-92.73-112.23v-11.48h58v11.48c0 31.03 25.25 56.28 56.28 56.28 31.04 0 56.29-25.25 56.29-56.28v-161.17z" fill="#f8fffb"/></g><g><path d="m362.79 118.28v161.16c0 55.66-39.99 102.14-92.74 112.24-4.59.88-9.28 1.49-14.05 1.79v-58.25c27.51-3.67 48.79-27.28 48.79-55.78v-161.16z" fill="#d8d8d8"/></g></g></svg>