<svg id="Layer_1" enable-background="new 0 0 512 512" height="512" viewBox="0 0 512 512" width="512" xmlns="http://www.w3.org/2000/svg"><g><g><g><circle cx="256" cy="256" fill="#07e5ca" r="256"/></g></g><path d="m512 256c0-2.563-.049-5.115-.124-7.66l-129.04-129.04-75.89 13.251-38.855 45.988-62.344-59.239-45.774 18.319-12.226 255.081 119.057 119.057c136.371-5.664 245.196-117.993 245.196-255.757z" fill="#00b59b"/><path d="m282.897 220.96 97.789 171.74h-66.739l-73.321-128.76-34.879 35.49v93.27h-58v-273.4h58v97.4l95.76-97.4h81.329z" fill="#f8fffb"/><path d="m282.9 220.96 97.79 171.74h-66.74l-73.32-128.76v-82.72l60.88-61.92h81.33z" fill="#d8d8d8"/></g></svg>