<svg id="Layer_1" enable-background="new 0 0 512 512" height="512" viewBox="0 0 512 512" width="512" xmlns="http://www.w3.org/2000/svg"><g><g><circle cx="256" cy="256" fill="#ffb54a" r="256"/></g><path d="m512 256c0-15.059-1.312-29.811-3.806-44.156l-97.194-97.194-54.63 26.281-48.428 98.049-132.372-124.33-38.435 26.281-36.135 247.119 121.812 121.812c10.864 1.406 21.94 2.138 33.188 2.138 141.385 0 256-114.615 256-256z" fill="#f9880d"/><path d="m411 114.65v278.05h-58v-166.01l-65.79 161.36h-62.43l-65.78-160.74v160.74h-58v-273.4h74.57l80.38 196.44 80.1-196.44z" fill="#f8fffb"/><path d="m411 114.65v278.05h-58v-166.01l-65.79 161.36h-31.21v-77.08l80.05-196.32z" fill="#d8d8d8"/></g></svg>