<svg id="Layer_1" enable-background="new 0 0 512 512" height="512" viewBox="0 0 512 512" width="512" xmlns="http://www.w3.org/2000/svg"><g><g><circle cx="256" cy="256" fill="#424242" r="256"/></g><path d="m512 256c0-4.208-.109-8.391-.309-12.549l-126.131-126.131-43.334 15.231 2.346 107.18-127.662-122.411-68.96 13.541-16.62 261.839 119.231 119.231c1.809.038 3.62.069 5.439.069 141.385 0 256-114.615 256-256z" fill="#232323"/><path d="m385.56 117.32v273.4h-73.77l-122.46-206.24v208.22h-58v-275.38h85.58l110.65 186.36v-186.36z" fill="#f8fffb"/><path d="m385.56 117.32v273.4h-73.77l-55.79-93.96v-113.6l71.56 120.52v-186.36z" fill="#d8d8d8"/></g></svg>