<svg id="Layer_1" enable-background="new 0 0 512 512" height="512" viewBox="0 0 512 512" width="512" xmlns="http://www.w3.org/2000/svg"><g><g><circle cx="256" cy="256" fill="#ff6529" r="256"/></g><path d="m504.114 319.267-157.945-157.946s-87.395-48.256-143.662 3.702c-63.744 58.863-22.642 199.688-22.642 199.688l139.402 139.402c90.549-23.018 161.828-94.297 184.847-184.846z" fill="#e53b07"/><g><path d="m256.001 392.562c-65.181 0-118.019-52.839-118.019-118.018v-37.087c0-65.18 52.839-118.019 118.018-118.019 65.18 0 118.018 52.839 118.018 118.019v37.087c.001 65.179-52.838 118.018-118.017 118.018zm-.001-215.124c-33.147 0-60.018 26.871-60.018 60.019v37.087c0 33.147 26.871 60.018 60.018 60.018 33.147 0 60.018-26.871 60.018-60.018v-37.087c.001-33.148-26.871-60.019-60.018-60.019z" fill="#f8fffb"/></g><g><path d="m339.45 154.01c-21.35-21.36-50.86-34.57-83.45-34.57v58c33.15 0 60.02 26.87 60.02 60.02v37.08c0 16.58-6.72 31.58-17.58 42.44s-25.86 17.58-42.44 17.58v58c65.18 0 118.02-52.84 118.02-118.02v-37.08c0-32.59-13.21-62.1-34.57-83.45z" fill="#d8d8d8"/></g></g></svg>