<svg id="Layer_1" enable-background="new 0 0 512 512" height="512" viewBox="0 0 512 512" width="512" xmlns="http://www.w3.org/2000/svg"><g><g><circle cx="256" cy="256" fill="#424242" r="256"/></g><path d="m508.635 297.494-143.967-144.804-181.045 24.215-31.371 216.19 118.474 118.474c120.598-6.842 218.849-97.152 237.909-214.075z" fill="#232323"/><g><path d="m296.492 118.905h-144.24v274.19h58v-100.89h86.24c47.3 0 85.78-38.48 85.78-85.78v-1.73c0-47.3-38.48-85.79-85.78-85.79zm27.78 87.52c0 15.32-12.46 27.78-27.78 27.78h-86.24v-57.3h86.24c15.32 0 27.78 12.47 27.78 27.79z" fill="#f8fffb"/></g><g><path d="m296.49 118.9h-40.49v58h40.49c15.32 0 27.78 12.48 27.78 27.8v1.72c0 15.32-12.46 27.78-27.78 27.78h-40.49v58h40.49c47.3 0 85.78-38.48 85.78-85.78v-1.72c0-47.3-38.48-85.8-85.78-85.8z" fill="#d8d8d8"/></g></g></svg>