<svg id="Layer_1" enable-background="new 0 0 512 512" height="512" viewBox="0 0 512 512" width="512" xmlns="http://www.w3.org/2000/svg"><g><g><circle cx="256" cy="256" fill="#ff6529" r="256"/></g><path d="m504.581 317.355-163.87-163.87s-84.711-15.651-126.464-10.583-30.627 221.493-30.627 221.493l138.867 138.867c89.646-24.046 159.861-95.533 182.094-185.907z" fill="#e53b07"/><path d="m376.107 361.087-29.517-29.517c8.873-15.388 13.953-33.226 13.953-52.228v-64.556c0-57.834-47.051-104.885-104.885-104.885h-10.738c-57.833 0-104.885 47.051-104.885 104.885v64.556c0 57.833 47.051 104.885 104.885 104.885h10.739c17.792 0 34.56-4.459 49.255-12.309l30.181 30.181zm-120.448-34.86h-10.739c-25.853 0-46.885-21.032-46.885-46.885v-64.556c0-25.853 21.032-46.885 46.885-46.885h10.739c25.853 0 46.885 21.032 46.885 46.885v64.556c0 2.575-.217 5.1-.619 7.563l-27.826-27.826-41.012 41.012 25.997 25.997c-1.132.082-2.272.139-3.425.139z" fill="#f8fffb"/><path d="m346.59 331.57c8.87-15.39 13.95-33.23 13.95-52.23v-64.55c0-57.73-46.87-104.7-104.54-104.89v58.01c25.69.17 46.54 21.13 46.54 46.88v64.55c0 2.58-.21 5.1-.62 7.56l-27.82-27.82-18.1 18.1v45.83l3.08 3.08c-1.02.07-2.04.13-3.08.14v58c17.66-.06 34.31-4.51 48.91-12.31l30.19 30.18 41.01-41.01z" fill="#d8d8d8"/></g></svg>