<svg id="Layer_1" enable-background="new 0 0 512 512" height="512" viewBox="0 0 512 512" width="512" xmlns="http://www.w3.org/2000/svg"><g><g><circle cx="256" cy="256" fill="#07e5ca" r="256"/></g><path d="m508.074 300.88-151.91-153.562-148.457 20.583-45.467 225.194 117.775 117.775c115.173-10.718 208.204-97.715 228.059-209.99z" fill="#00b59b"/><path d="m320.94 292.065c34.46-12.34 59.19-45.33 59.19-83.98 0-49.17-40-89.18-89.17-89.18h-128.72v274.19h58v-95.84h35.1l61.55 95.84h68.93zm-29.98-52.81h-70.72v-62.35h70.72c17.18 0 31.17 13.99 31.17 31.18s-13.99 31.17-31.17 31.17z" fill="#f8fffb"/><path d="m320.94 292.06c34.46-12.34 59.19-45.32 59.19-83.98 0-49.17-40-89.18-89.17-89.18h-34.96v58h34.96c17.18 0 31.17 14 31.17 31.18 0 17.2-13.99 31.18-31.17 31.18h-34.96v59.03l60.89 94.81h68.93z" fill="#d8d8d8"/></g></svg>