<svg id="Layer_1" enable-background="new 0 0 512 512" height="512" viewBox="0 0 512 512" width="512" xmlns="http://www.w3.org/2000/svg"><g><g><circle cx="256" cy="256" fill="#f33" r="256"/></g><path d="m511.985 257.17-137.965-137.965-43.576 16.311v112.342l-134.464-128.653-43.728 12.933 28.616 233.589 138.39 138.39c110.427-28.07 192.193-127.912 192.727-246.947z" fill="#c60000"/><g><path d="m374.02 119.205v155.57c0 65.08-52.94 118.02-118.02 118.02s-118.02-52.94-118.02-118.02v-155.57h58v155.57c0 33.09 26.93 60.02 60.02 60.02s60.02-26.93 60.02-60.02v-155.57z" fill="#f8fffb"/></g><g><path d="m374.02 119.2v155.58c0 65.08-52.94 118.02-118.02 118.02v-58c33.09 0 60.02-26.94 60.02-60.02v-155.58z" fill="#d8d8d8"/></g></g></svg>