<svg id="Layer_1" enable-background="new 0 0 512 512" height="512" viewBox="0 0 512 512" width="512" xmlns="http://www.w3.org/2000/svg"><g><g><circle cx="256" cy="256" fill="#424242" r="256"/></g><path d="m512 256c0-19.828-2.256-39.129-6.522-57.662l-79.038-79.038-66.973 66.052-67.537-66.052-78.311 62.111-67.279-62.111-2.95 273.4 119.216 119.216c138.332-3.504 249.394-116.74 249.394-255.916z" fill="#232323"/><path d="m426.44 119.3-50.22 273.4h-68.23l-50.62-181.44-45.9 181.44h-68.08l-56.27-273.4h59.22l33.41 162.33 41.06-162.33h71.12l45.55 163.27 29.99-163.27z" fill="#f8fffb"/><path d="m426.44 119.3-50.22 273.4h-68.23l-50.62-181.44-1.37-91.96h35.93l45.55 163.27 29.99-163.27z" fill="#d8d8d8"/></g></svg>