<svg id="Layer_1" enable-background="new 0 0 512 512" height="512" viewBox="0 0 512 512" width="512" xmlns="http://www.w3.org/2000/svg"><g><g><circle cx="256" cy="256" fill="#f33" r="256"/></g><path d="m504.052 319.522-168.609-168.61s-127.635-38.753-148.066 55.953 0 161.76 0 161.76l134.738 134.738c89.108-23.757 159.092-94.365 181.937-183.841z" fill="#c60000"/><g><g><g><path d="m257.642 395.709c-57.833 0-104.885-47.051-104.885-104.885v-69.646c0-57.834 47.051-104.885 104.885-104.885s104.885 47.051 104.885 104.885v69.646c0 57.834-47.051 104.885-104.885 104.885zm0-221.416c-25.852 0-46.885 21.032-46.885 46.885v69.646c0 25.853 21.032 46.885 46.885 46.885s46.885-21.032 46.885-46.885v-69.646c0-25.853-21.032-46.885-46.885-46.885z" fill="#f8fffb"/></g></g><g><path d="m257.647 116.29v58c25.85 0 46.88 21.03 46.88 46.89v69.64c0 25.86-21.03 46.89-46.88 46.89v58c57.83 0 104.88-47.05 104.88-104.89v-69.64c0-57.84-47.05-104.89-104.88-104.89z" fill="#d8d8d8"/></g></g></g></svg>