<svg id="Layer_1" enable-background="new 0 0 512 512" height="512" viewBox="0 0 512 512" width="512" xmlns="http://www.w3.org/2000/svg"><g><g><circle cx="256" cy="256" fill="#ff6529" r="256"/></g><path d="m506.139 310.624-176.115-176.114s-132.967-.561-132.967 121.887 0 122.448 0 122.448l124.633 124.632c92.245-24.422 164.056-99.038 184.449-192.853z" fill="#e53b07"/><path d="m255.746 217.072c-11.786 0-23.058 2.24-33.415 6.314.81-11.294 5.413-21.941 13.188-30.295 14.14-15.192 36.5-20.009 55.64-11.983l16.44 6.892 22.426-53.49-16.44-6.892c-41.46-17.383-89.895-6.95-120.522 25.958-18.619 20.005-28.874 46.073-28.874 73.402v77.618 4.032c0 50.485 41.073 91.558 91.558 91.558 50.484 0 91.557-41.072 91.557-91.558-.001-50.483-41.074-91.556-91.558-91.556zm0 125.114c-18.503 0-33.557-15.054-33.557-33.558 0-18.503 15.054-33.557 33.557-33.557h.001c18.503 0 33.557 15.054 33.557 33.557-.001 18.505-15.055 33.558-33.558 33.558z" fill="#f8fffb"/><path d="m291.16 181.11 16.44 6.89 22.42-53.49-16.44-6.89c-18.54-7.77-38.47-9.98-57.58-7.11v59.39c11.25-3.8 23.78-3.57 35.16 1.21zm-35.16 35.96v58c9.15.07 17.45 3.83 23.46 9.84 6.08 6.08 9.84 14.47 9.84 23.72 0 18.42-14.91 33.42-33.3 33.56v58c50.37-.14 91.3-41.16 91.3-91.56 0-50.41-40.93-91.42-91.3-91.56z" fill="#d8d8d8"/></g></svg>