<svg id="Layer_1" enable-background="new 0 0 512 512" height="512" viewBox="0 0 512 512" width="512" xmlns="http://www.w3.org/2000/svg"><g><g><circle cx="256" cy="256" fill="#f33" r="256"/></g><path d="m324.434 149.055s-107.587-8.346-121.101 61.038c-13.515 69.384-8.116 68.18-8.116 68.18l76.921 77.121c-11.17 3.679-90.16 28.819-90.16 28.819l123.072 123.073c94.701-18.378 170.767-88.94 197.049-180.566z" fill="#c60000"/><path d="m347.811 210.094c0-50.485-41.073-91.558-91.558-91.558s-91.557 41.072-91.557 91.558c0 50.485 41.073 91.558 91.558 91.558 11.786 0 23.058-2.24 33.415-6.314-.81 11.294-5.412 21.94-13.187 30.294-14.141 15.192-36.501 20.008-55.642 11.983l-16.44-6.892-22.423 53.49 16.439 6.892c13.369 5.604 27.462 8.317 41.45 8.317 29.393 0 58.32-11.979 79.072-34.275 18.619-20.005 28.874-46.073 28.874-73.402v-77.619s-.001-2.681-.001-4.032zm-91.557 33.557c-18.504 0-33.558-15.054-33.558-33.558s15.054-33.558 33.558-33.558c18.503 0 33.557 15.054 33.557 33.558 0 18.505-15.053 33.558-33.557 33.558z" fill="#f8fffb"/><path d="m347.81 210.09c0-50.48-41.07-91.55-91.56-91.55h-.25v58h.25c18.51 0 33.56 15.05 33.56 33.55 0 18.51-15.05 33.56-33.56 33.56h-.25v58h.25c11.79 0 23.06-2.24 33.42-6.31-.81 11.29-5.41 21.94-13.19 30.29-5.73 6.15-12.81 10.61-20.48 13.19v59.39c23.63-3.55 46.01-14.87 62.94-33.06 18.62-20.01 28.87-46.08 28.87-73.4v-77.62s0-2.68 0-4.04z" fill="#d8d8d8"/></g></svg>