<svg id="Capa_1" enable-background="new 0 0 497 497" height="512" viewBox="0 0 497 497" width="512" xmlns="http://www.w3.org/2000/svg"><g><g><path d="m103.493 307.864h198.037v126.561h-198.037z" fill="#ffb357"/><path d="m400.672 411.483-138.909-370.422h-82.338v179.359l23.087 23.087 79.656 212.416c9.527 25.405 33.639 41.08 59.261 41.077 7.381 0 14.892-1.301 22.211-4.045 32.723-12.273 49.302-48.748 37.032-81.472z" fill="#ffce71"/><path d="m261.763 41.061c-9.262-24.698-32.873-41.061-59.252-41.061s-49.99 16.363-59.252 41.061l-138.907 370.423c-12.271 32.723 4.309 69.198 37.032 81.47 32.721 12.268 69.2-4.308 81.472-37.033l79.656-212.416.001.002v-58.121c-.001-54.029 21.287-105.882 59.25-144.325z" fill="#ffb357"/></g><g fill="#ff8e9e"><ellipse cx="122.955" cy="219.42" rx="29.355" ry="23.377"/><ellipse cx="282.069" cy="219.42" rx="29.355" ry="23.377"/></g><g fill="#313d40"><path d="m140.063 177.417c-4.142 0-7.5 3.358-7.5 7.5v12c0 4.142 3.358 7.5 7.5 7.5s7.5-3.358 7.5-7.5v-12c0-4.143-3.358-7.5-7.5-7.5z"/><path d="m264.961 177.417c-4.142 0-7.5 3.358-7.5 7.5v12c0 4.142 3.358 7.5 7.5 7.5s7.5-3.358 7.5-7.5v-12c0-4.143-3.358-7.5-7.5-7.5z"/><path d="m223.904 190.905c-3.123-2.721-7.861-2.396-10.582.727-2.729 3.132-6.669 4.929-10.81 4.929s-8.081-1.796-10.81-4.929c-2.721-3.123-7.459-3.447-10.582-.727-3.123 2.722-3.448 7.459-.727 10.582 5.579 6.402 13.641 10.073 22.119 10.073s16.54-3.671 22.119-10.073c2.721-3.123 2.396-7.861-.727-10.582z"/></g><g><path d="m392.401 169.157h-18.734c-7.76 0-14.051 6.291-14.051 14.051v206.522c0 4.335 1.722 8.492 4.787 11.557s7.222 4.787 11.557 4.787h14.147c9.021 0 16.344-7.319 16.344-16.344v-206.523c0-7.76-6.29-14.05-14.05-14.05z" fill="#c77464"/><g><path d="m476.801 230.219 19.892 19.892c-.003 6.681-.437 13.362-1.336 19.997-1.565 11.558-4.482 22.975-8.767 34.005-3.649 9.393-13.816 14.505-23.552 11.909-9.084-2.422-17.077-4.605-25.738-6.499v-35.883-36.543-6.88h39.501z" fill="#d4d4ff"/><path d="m437.301 237.099v-43.36c7.892-2.131 16.631-5.518 24.956-8.293 11.754-3.358 21.426 2.862 24.823 11.847 6.43 17.011 9.622 34.915 9.615 52.819-17.954-11.006-38.906-15.447-59.394-13.013z" fill="#9ea2e3"/></g><g><path d="m363.483 301.586h-3.76c-11.64 0-21.076-9.436-21.076-21.076v-30.443l-28.846-28.846c-6.639-6.639-1.937-17.989 7.451-17.989h42.363.107c28.476 0 51.968-2.577 77.578-9.493 8.382 13.196 14.152 27.485 16.311 42.868.617 4.398.955 8.881.955 13.46 0 8.792-.934 17.422-2.837 25.747-2.748 12.018-7.518 23.4-14.429 33.711-22.742-4.973-45.863-7.94-73.817-7.939z" fill="#ff8e9e"/><path d="m415.633 242.366c-26.773 10.059-47.405 31.912-55.91 59.22-11.64 0-21.076-9.436-21.076-21.076v-30.443l-28.846-28.846c-6.639-6.639-1.937-17.989 7.451-17.989h42.363.107c28.476 0 51.968-2.577 77.578-9.493 8.382 13.196 14.152 27.485 16.311 42.868-12.762-.742-25.7 1.146-37.978 5.759z" fill="#ea5b70"/></g></g></g></svg>