<svg id="Capa_1" enable-background="new 0 0 497 497" height="512" viewBox="0 0 497 497" width="512" xmlns="http://www.w3.org/2000/svg"><g><g><path d="m306.008 248.499-125.324-63.283c16.464 0 29.803-13.64 29.311-30.213-.473-15.95-13.978-28.438-29.934-28.438h-116.676v-126.565h115.809c85.97 0 156.862 68.98 157.37 154.953.207 35.012-11.186 67.401-30.556 93.546z" fill="#55dafe"/><path d="m336.567 341.108c0-34.653-11.361-66.697-30.559-92.609-27.86-37.604-78.526-63.283-125.324-63.283h-54.019v-58.651c-41.39-31.398-63.28-78.392-63.28-126.565-34.948 0-63.279 28.333-63.279 63.283v370.434c0 34.95 28.331 63.283 63.279 63.283h117.298c85.955 0 155.884-69.933 155.884-155.892zm-126.559 0c0 16.17-13.155 29.326-29.325 29.326h-54.019v-58.652h54.019c16.17 0 29.325 13.156 29.325 29.326z" fill="#1cbbea"/></g><g fill="#ff8e9e"><ellipse cx="88.78" cy="259.42" rx="29.355" ry="23.377"/><ellipse cx="247.893" cy="259.42" rx="29.355" ry="23.377"/></g><g fill="#313d40"><path d="m105.888 217.417c-4.142 0-7.5 3.358-7.5 7.5v12c0 4.142 3.358 7.5 7.5 7.5s7.5-3.358 7.5-7.5v-12c0-4.143-3.358-7.5-7.5-7.5z"/><path d="m230.785 217.417c-4.142 0-7.5 3.358-7.5 7.5v12c0 4.142 3.358 7.5 7.5 7.5s7.5-3.358 7.5-7.5v-12c0-4.143-3.358-7.5-7.5-7.5z"/><path d="m189.728 230.905c-3.123-2.721-7.861-2.396-10.582.727-2.729 3.132-6.669 4.929-10.81 4.929s-8.081-1.796-10.81-4.929c-2.721-3.123-7.459-3.447-10.582-.727-3.123 2.722-3.448 7.459-.727 10.582 5.579 6.402 13.641 10.073 22.119 10.073s16.54-3.671 22.119-10.073c2.721-3.123 2.396-7.861-.727-10.582z"/></g><g><path d="m332.785 409.588-49.584 73.594c-.066.098-.135.192-.209.284-6.921 8.601-17.215 13.534-28.244 13.534-19.98 0-36.234-16.255-36.234-36.234 0-11.03 5.123-21.463 13.724-28.383l73.689-49.653h26.858z" fill="#ce857a"/></g><path d="m413.681 244.244c15.903-15.903 41.686-15.903 57.589 0s15.903 41.686 0 57.589h-57.589z" fill="#fce3a0"/><g><path d="m487.945 318.507-1.942-1.942-43.528-43.528-1.941-1.942-4.882-4.882c-20.012-20.012-53.32-16.758-69.08 6.75l-66.109 98.606 43.504 43.504c26.588 10.33 57.794 5.215 79.801-15.357 14.522-13.575 31.791-23.872 50.65-30.158l1.601-.534c21.517-7.171 27.963-34.479 11.926-50.517z" fill="#ffce71"/><path d="m389.483 284.623c-5.052 18.44-14.818 35.247-28.338 48.767-22.084 22.084-27.807 54.329-17.178 81.685-9.591-3.727-18.582-9.458-26.322-17.206-29.845-29.815-29.854-78.18-.028-108.007 13.52-13.52 23.286-30.326 28.337-48.766v-.001c6.192-22.602 34.481-30.097 51.051-13.526l43.528 43.528c-16.57-16.571-44.858-9.076-51.05 13.526z" fill="#ffb357"/></g></g></svg>