<svg id="Capa_1" enable-background="new 0 0 497 497" height="512" viewBox="0 0 497 497" width="512" xmlns="http://www.w3.org/2000/svg"><g><g><g><path d="m222.076 143.234 10.347 29.095c4.03 11.331 20.054 11.331 24.084 0l2.48-6.973 12.437 34.973c4.03 11.331 20.054 11.331 24.084 0l20.304-57.095-50.346-30z" fill="#b9f0ff"/></g><path d="m98.771 355.624 42.182 118.616c4.414 12.412 21.968 12.412 26.382 0l42.182-118.616z" fill="#b9f0ff"/><g><path d="m195.886 414 16.537 46.502c4.03 11.331 20.054 11.331 24.084 0l2.48-6.973 12.437 34.973c4.03 11.331 20.054 11.331 24.084 0l12.726-35.785 4.191 11.785c4.03 11.331 20.054 11.331 24.084 0l17.957-50.502z" fill="#b9f0ff"/></g><g fill="#b9f0ff"><path d="m346.119 387.234 20.304 57.095c4.03 11.331 20.054 11.331 24.084 0l20.304-57.095z"/><path d="m354.119 165.234 20.304 57.095c4.03 11.331 20.054 11.331 24.084 0l20.304-57.095z"/></g></g><g><g fill="#7ce3ff"><path d="m271.02 134.366c23.171 0 44.922 8.946 61.247 25.192 26.282 26.155 68.794 26.153 95.046-.263 26.124-26.287 26.004-68.939-.265-95.079-42.676-42.471-98.789-64.216-156.033-64.216l-86.346 41v175.585c.855-20.809 9.298-41.304 25.097-57.026 16.327-16.246 38.081-25.193 61.254-25.193z"/><path d="m427.313 280.696c-26.244-26.407-68.755-26.424-95.044-.266-33.786 33.621-88.716 33.62-122.502 0-15.869-15.791-24.145-35.986-25.09-56.39v181.836l86.34 34.124c59 0 114.413-22.809 156.03-64.224 26.27-26.141 26.39-68.794.266-95.08z"/></g><path d="m184.668 216.585c.818-77.845 29.586-155.452 86.347-216.585-123.649 0-220.84 99.818-220.843 219.994 0 58.868 23.018 114.192 64.814 155.783 41.621 41.414 97.034 64.223 156.031 64.223-56.609-60.968-85.376-138.324-86.342-215.96-.115-2.484-.109-4.972-.007-7.455z" fill="#1cbbea"/></g><g><g><ellipse cx="172.908" cy="97.187" fill="#ff8e9e" rx="29.355" ry="23.377"/><ellipse cx="354.022" cy="97.187" fill="#ff8e9e" rx="29.355" ry="23.377"/><path d="m242.64 104.806 7.282-2.997 7.28 4.181c3.697.082 8.818.082 12.526 0l7.28-4.181 7.282 2.997c10.674-1.846 17.745-6.329 17.745-17.003 0-10.673-7.073-20.048-17.745-25.42l-7.282-.004-7.28-4.378c-2.038-.26-4.13-.399-6.263-.399s-4.224.139-6.263.399l-7.28 4.378-7.282.004c-10.672 5.372-17.745 14.747-17.745 25.42.001 10.675 7.071 15.157 17.745 17.003z" fill="#fff"/><g fill="#d4d4ff"><path d="m284.289 62.384c-4.337-2.184-9.267-3.705-14.562-4.382v47.988c5.295-.117 10.224-.433 14.562-1.183z"/><path d="m257.202 58.002c-5.295.677-10.224 2.199-14.562 4.382v42.422c4.337.751 9.267 1.066 14.562 1.183z"/></g></g><g fill="#fff"><path d="m190.016 41c-12.406 0-22.5 10.093-22.5 22.5v10.366c0 12.407 10.094 22.5 22.5 22.5s22.5-10.093 22.5-22.5v-10.366c0-12.407-10.093-22.5-22.5-22.5z"/><path d="m336.914 41c-12.406 0-22.5 10.093-22.5 22.5v10.366c0 12.407 10.094 22.5 22.5 22.5s22.5-10.093 22.5-22.5v-10.366c0-12.407-10.094-22.5-22.5-22.5z"/></g><g fill="#313d40"><path d="m190.016 56c-4.142 0-7.5 3.358-7.5 7.5v10.366c0 4.142 3.358 7.5 7.5 7.5s7.5-3.358 7.5-7.5v-10.366c0-4.142-3.358-7.5-7.5-7.5z"/><path d="m336.914 56c-4.142 0-7.5 3.358-7.5 7.5v10.366c0 4.142 3.358 7.5 7.5 7.5s7.5-3.358 7.5-7.5v-10.366c0-4.142-3.358-7.5-7.5-7.5z"/></g></g></g></svg>