<svg id="Capa_1" enable-background="new 0 0 497 497" height="512" viewBox="0 0 497 497" width="512" xmlns="http://www.w3.org/2000/svg"><g><g><path d="m385.976 49.615c-32.172-31.995-75.001-49.615-120.6-49.615l-78.121 24.833v126.258l18.546 18.546c.281-51.746 64.23-78.587 101.807-41.218 21.74 21.621 56.89 21.602 78.589-.217 21.605-21.728 21.506-56.982-.221-78.587z" fill="#70dcba"/><path d="m386.195 211.759c-21.704-21.824-56.851-21.834-78.587-.219-36.849 36.645-99.414 11.568-101.741-38.666l-18.612 18.613v103.321l85.044 45.044c41.32-1.657 82.15-18.151 113.677-49.504 21.777-21.658 21.88-56.809.219-78.589z" fill="#70dcba"/><path d="m205.82 171.372c-.002-.117-.005-.233-.007-.35-.006-.341-.02-.679-.02-1.022 0-.122.006-.241.007-.363-.862-60.02 18.911-120.361 59.576-169.637-95.588 0-170.762 77.213-170.751 170 .009 74.888 48.925 139.559 118.192 161.789l-2.646 15.994c-35.806 5.363-63.826 36.215-63.826 74.193 0 41.902 34.102 75.027 74.879 75.025 7.684 0 15.452-1.186 23.04-3.617 15.778-5.056 24.471-21.945 19.416-37.723-5.056-15.779-21.947-24.47-37.723-19.416-9.856 3.155-19.611-4.223-19.611-14.27 0-10.155 9.883-17.387 19.611-14.27 17.799 5.704 36.122-6.077 39.154-24.4l7.189-43.454c-42.616-47.555-64.828-107.004-66.432-166.978-.024-.497-.037-.999-.048-1.501z" fill="#18c08b"/></g><g><g><g><g><ellipse cx="175.553" cy="96.18" fill="#ff8e9e" rx="30.834" ry="24.555"/></g><g><ellipse cx="342.683" cy="96.18" fill="#ff8e9e" rx="30.834" ry="24.555"/></g></g></g><g fill="#313d40"><path d="m193.523 52.741c-4.142 0-7.5 3.358-7.5 7.5v12c0 4.142 3.358 7.5 7.5 7.5s7.5-3.358 7.5-7.5v-12c0-4.142-3.358-7.5-7.5-7.5z"/><path d="m281.339 66.513c-3.123-2.721-7.86-2.396-10.582.727-6.164 7.074-17.119 7.068-23.279 0-2.722-3.123-7.459-3.447-10.582-.727-3.123 2.722-3.448 7.459-.727 10.582 12.145 13.934 33.766 13.921 45.896 0 2.722-3.123 2.397-7.861-.726-10.582z"/><path d="m327.03 50.5c-11.803 0-21.406 9.603-21.406 21.406 0 4.142 3.358 7.5 7.5 7.5s7.5-3.358 7.5-7.5c0-3.532 2.874-6.406 6.406-6.406s6.406 2.874 6.406 6.406c0 4.142 3.358 7.5 7.5 7.5s7.5-3.358 7.5-7.5c0-11.803-9.603-21.406-21.406-21.406z"/></g></g></g></svg>