<svg id="Capa_1" enable-background="new 0 0 497 497" height="512" viewBox="0 0 497 497" width="512" xmlns="http://www.w3.org/2000/svg"><g><g><path d="m165.8 0-69.2 39.2v87.3h69.2c66.9 0 121.3 54.7 121.3 121.9s-54.4 121.9-121.3 121.9h-69.2v64.3l30 62.2h39.2c136.7 0 247.8-111.5 247.8-248.5s-111.1-248.3-247.8-248.3z" fill="#676fb2"/><path d="m126.6 94.7c0-35.5 14.1-69.6 39.2-94.7-11.7 0-93 0-102.5 0-35 0-63.3 28.3-63.3 63.3v370.4c0 35 28.3 63.3 63.3 63.3h102.5c-25.1-25.1-39.2-59.2-39.2-94.7 0-9.1 0-299.7 0-307.6z" fill="#4c5699"/></g><g fill="#ff8e9e"><ellipse cx="87.5" cy="95.1" rx="29.4" ry="23.4"/><ellipse cx="246.6" cy="95.1" rx="29.4" ry="23.4"/></g><g fill="#313d40"><path d="m104.6 53.1c-4.1 0-7.5 3.4-7.5 7.5v12c0 4.1 3.4 7.5 7.5 7.5s7.5-3.4 7.5-7.5v-12c0-4.2-3.4-7.5-7.5-7.5z"/><path d="m229.5 53.1c-4.1 0-7.5 3.4-7.5 7.5v12c0 4.1 3.4 7.5 7.5 7.5s7.5-3.4 7.5-7.5v-12c0-4.2-3.4-7.5-7.5-7.5z"/><path d="m188.4 66.5c-3.1-2.7-7.9-2.4-10.6.7-5.7 6.6-15.9 6.6-21.6 0-2.7-3.1-7.5-3.4-10.6-.7s-3.4 7.5-.7 10.6c11.7 13.4 32.5 13.4 44.2 0 2.8-3.1 2.4-7.8-.7-10.6z"/></g><g><path d="m485.1 369.9-6.6-6.6c-11.3-11.3-27-16.9-42.8-15.3l-27.4 2.7-57.6 57.6-2.7 27.4c-1.6 15.8 4 31.6 15.3 42.8l6.6 6.6c15.9 15.9 41.7 15.9 57.6 0l57.6-57.6c15.9-15.9 15.9-41.7 0-57.6z" fill="#ff8e9e"/><path d="m369.9 427.5 57.6-57.6c15.9-15.9 41.7-15.9 57.6 0l-57.6-57.6c-15.9-15.9-41.7-15.9-57.6 0l-57.6 57.6c-15.9 15.9-15.9 41.7 0 57.6l57.6 57.6c-15.9-15.9-15.9-41.8 0-57.6z" fill="#ea5b70"/></g><g fill="#efedff"><circle cx="398.6" cy="398.7" r="10.2"/><circle cx="398.6" cy="341" r="10.2"/><circle cx="341" cy="398.7" r="10.2"/><circle cx="456.3" cy="398.7" r="10.2"/><circle cx="398.6" cy="456.3" r="10.2"/></g></g></svg>