<svg id="Capa_1" enable-background="new 0 0 497 497" height="512" viewBox="0 0 497 497" width="512" xmlns="http://www.w3.org/2000/svg"><g><path d="m225.897 185.218h-124.539v126.566h124.539c34.95 0 63.279-28.333 63.279-63.283s-28.329-63.283-63.279-63.283z" fill="#ff8e9e"/><g><path d="m435.174 250.865h-8.324v-12.889c-15.113-21.033-34.592-36.556-56.288-41.921l-68.782 52.339v174.169h109.336l16.325-8.769c19.425-19.157 31.48-45.841 31.48-75.359 0-30.633-8.907-61.957-23.747-87.57z" fill="#fad5cb"/><path d="m328.921 308.435c0-41.496 16.344-84.261 41.64-112.379-5.42-1.34-10.977-2.056-16.64-2.056-55.933 0-101.645 68.891-104.818 136.936l8.045 6.96-7.96 8.04c3.827 54.8 49.252 98.064 104.733 98.064 28.63 0 54.578-11.525 73.52-30.206-54.971-3.366-98.52-49.246-98.52-105.359z" fill="#ffb39d"/><path d="m287.469 350.43c2.929 2.929 7.678 2.928 10.607-.001s2.928-7.678-.001-10.606l-4.494-4.493v-13.222l6.788-6.788c2.929-2.929 2.929-7.678 0-10.606-2.929-2.929-7.677-2.929-10.606 0l-8.984 8.984c-1.407 1.406-2.197 3.314-2.197 5.303v11.936h-29.477c-.117 2.502-.182 5.003-.182 7.5 0 2.522.094 5.022.267 7.5h33.786z" fill="#ff8f71"/><path d="m400.648 249.057c-2.929-2.929-7.678-2.93-10.608 0l-15.855 15.855-6.818-6.819c-2.929-2.929-7.678-2.929-10.607 0s-2.929 7.677 0 10.606l6.819 6.819-6.82 6.82c-2.929 2.929-2.929 7.677 0 10.606s7.678 2.929 10.607 0l27.979-27.979 7.561 7.562c2.929 2.929 7.678 2.93 10.608 0l21.662-21.662c-2.598-4.483-5.379-8.79-8.324-12.889l-18.641 18.642z" fill="#ffb39d"/></g><path d="m164.638 126.566h121.926c34.95 0 63.279-28.333 63.279-63.283s-28.33-63.283-63.28-63.283h-63.561l-78.365 29.006v70.079z" fill="#ff8e9e"/><path d="m285.62 370.434h-120.982v-243.868c0-46.423 19.058-92.217 58.365-126.566h-121.645c-34.948 0-63.279 28.333-63.279 63.283v370.434c0 34.95 28.331 63.283 63.279 63.283h185.205c35.229 0 63.733-28.788 63.274-64.124-.451-34.776-29.44-62.442-64.217-62.442z" fill="#ea5b70"/><g><g><g><ellipse cx="85.404" cy="263.397" fill="#ffdbe0" rx="29.355" ry="23.377"/></g><g><ellipse cx="234.517" cy="263.397" fill="#ffdbe0" rx="29.355" ry="23.377"/></g></g></g><g fill="#313d40"><path d="m97.512 221.395c-4.142 0-7.5 3.357-7.5 7.5v12c0 4.143 3.358 7.5 7.5 7.5s7.5-3.357 7.5-7.5v-12c0-4.143-3.358-7.5-7.5-7.5z"/><path d="m222.41 221.395c-4.142 0-7.5 3.357-7.5 7.5v12c0 4.143 3.358 7.5 7.5 7.5s7.5-3.357 7.5-7.5v-12c0-4.143-3.358-7.5-7.5-7.5z"/><path d="m181.353 234.883c-3.123-2.721-7.86-2.396-10.582.727-2.729 3.132-6.669 4.928-10.81 4.928s-8.081-1.796-10.81-4.928c-2.722-3.121-7.459-3.448-10.582-.727-3.123 2.722-3.448 7.459-.727 10.582 5.579 6.401 13.641 10.072 22.119 10.072s16.54-3.671 22.119-10.072c2.721-3.123 2.395-7.861-.727-10.582z"/></g></g></svg>