<svg id="Capa_1" enable-background="new 0 0 497 497" height="512" viewBox="0 0 497 497" width="512" xmlns="http://www.w3.org/2000/svg"><g><path d="m397.054 240.074c-9.771-9.771-25.613-9.771-35.383 0l-111.343 111.342 35.383 35.384 111.343-111.343c9.771-9.77 9.771-25.612 0-35.383z" fill="#4c5699"/><g><g><path d="m280.437 185.218h-124.539v126.566h124.539c34.95 0 63.279-28.333 63.279-63.283s-28.33-63.283-63.279-63.283z" fill="#ffb5c0"/><path d="m219.177 126.566h121.926c34.95 0 63.279-28.333 63.279-63.283s-28.33-63.283-63.28-63.283h-63.561l-78.365 29.006v70.079z" fill="#ffb5c0"/><path d="m155.898 0c-34.948 0-63.279 28.333-63.279 63.283v370.434c0 34.95 28.331 63.283 63.279 63.283l.007-.014c35.055-.004 63.271-28.441 63.271-63.279v-63.27l.001-.003v-243.868c0-46.423 19.058-92.217 58.365-126.566z" fill="#ff8e9e"/></g><g><g><g><ellipse cx="139.943" cy="263.397" fill="#ffdbe0" rx="29.355" ry="23.377"/></g><g><ellipse cx="289.057" cy="263.397" fill="#ffdbe0" rx="29.355" ry="23.377"/></g></g></g><g fill="#313d40"><path d="m152.051 221.395c-4.142 0-7.5 3.357-7.5 7.5v12c0 4.143 3.358 7.5 7.5 7.5s7.5-3.357 7.5-7.5v-12c0-4.143-3.358-7.5-7.5-7.5z"/><path d="m276.949 221.395c-4.142 0-7.5 3.357-7.5 7.5v12c0 4.143 3.358 7.5 7.5 7.5s7.5-3.357 7.5-7.5v-12c0-4.143-3.358-7.5-7.5-7.5z"/><path d="m235.892 234.883c-3.123-2.721-7.86-2.396-10.582.727-2.729 3.132-6.669 4.928-10.81 4.928s-8.081-1.796-10.81-4.928c-2.722-3.121-7.459-3.448-10.582-.727-3.123 2.722-3.448 7.459-.727 10.582 5.579 6.401 13.641 10.072 22.119 10.072s16.54-3.671 22.119-10.072c2.721-3.123 2.396-7.861-.727-10.582z"/></g></g><g><g><path d="m185.035 426.178 15.73-40.762c4.21-10.91 13.361-19.278 24.703-22.129 8.971-2.255 17.427-6.286 24.859-11.871l35.384 35.384c-5.585 7.432-9.616 15.888-11.871 24.859-2.851 11.342-11.219 20.493-22.129 24.703l-40.762 15.73c-3.591 1.386-7.662.524-10.383-2.197-.487-.487-.94-.94-1.363-1.363v-10.607h-10.607c-.409-.409-.861-.861-1.363-1.363-2.723-2.722-3.584-6.792-2.198-10.384z" fill="#ffce71"/><path d="m223.445 401.374c6.787 0 12.309 5.521 12.309 12.309 0 7.458-6.61 13.184-13.899 12.198l-10.608-10.607c-.988-7.262 4.72-13.9 12.198-13.9z" fill="#4c5699"/></g><path d="m241.625 342.713c4.807-4.807 12.599-4.807 17.407 0 5.237 5.238 30.156 30.157 35.383 35.383 4.807 4.807 4.807 12.601 0 17.406-4.805 4.807-12.598 4.808-17.407 0-5.238-5.238-30.157-30.157-35.383-35.383-4.807-4.806-4.807-12.599 0-17.406z" fill="#ffb357"/><path d="m189.035 423.991h33.197v15h-33.197z" fill="#4c5699" transform="matrix(.707 -.707 .707 .707 -244.882 271.785)"/></g></g></svg>