<svg id="Capa_1" enable-background="new 0 0 497.002 497.002" height="512" viewBox="0 0 497.002 497.002" width="512" xmlns="http://www.w3.org/2000/svg"><g><g><path d="m248.499 126.566h55.322c34.952 0 63.283-28.333 63.283-63.283s-28.331-63.283-63.282-63.283h-55.322l-155.89 71.723v214.446h39.919c-25.66-78.817 33.523-159.603 115.97-159.603z" fill="#70dcba"/><path d="m433.718 185.218h-106.968c-34.952 0-63.283 28.333-63.283 63.283s28.331 63.283 63.283 63.283h26.034c-5.022 8.24-11.064 15.941-18.061 22.938-23.032 23.03-53.654 35.712-86.224 35.712-47.49 0-88.72-27.292-108.843-67.013v160.479h220.089l64.472-39.683c.001-.001.003-.002.004-.004 46.932-46.941 72.779-109.343 72.779-175.713.001-34.949-28.331-63.282-63.282-63.282z" fill="#70dcba"/><path d="m139.656 303.423c-2.799-5.524-5.186-11.289-7.128-17.254-40.528-110.472 9.065-234.572 115.971-286.169-137.023 0-248.498 111.478-248.498 248.502 0 137.023 111.475 248.5 248.499 248.5 66.377 0 128.779-25.846 175.719-72.783-112.237 39.165-235.242-13.723-284.563-120.796z" fill="#30cd9c"/></g><g><g fill="#4c5699"><path d="m200.205 400.056h-24.568c-10.321 0-18.015 9.518-15.851 19.61l1.361 6.346c2.287 10.665 11.713 18.285 22.621 18.285h8.307c10.908 0 20.334-7.619 22.621-18.285l1.361-6.346c2.163-10.092-5.53-19.61-15.852-19.61z"/><path d="m299.465 400.056h24.568c10.322 0 18.015 9.518 15.851 19.61l-1.361 6.346c-2.287 10.665-11.713 18.285-22.621 18.285h-8.307c-10.908 0-20.334-7.619-22.621-18.285l-1.361-6.346c-2.163-10.092 5.53-19.61 15.852-19.61z"/></g><g><path d="m269.893 431.717c-3.123-2.721-7.861-2.396-10.582.727-5.724 6.57-15.9 6.566-21.62 0-2.721-3.122-7.459-3.447-10.582-.727-3.123 2.722-3.448 7.459-.727 10.582 11.706 13.431 32.544 13.416 44.237 0 2.722-3.123 2.397-7.86-.726-10.582z" fill="#313d40"/><path d="m342.474 401.362c-4.523-5.596-11.245-8.806-18.44-8.806h-24.568c-5.39 0-10.513 1.801-14.646 5.057-8.928-1.133-20.553-2.254-34.984-2.254-14.43 0-26.055 1.121-34.983 2.254-4.133-3.255-9.256-5.057-14.646-5.057h-24.568c-7.196 0-13.917 3.21-18.441 8.807-4.523 5.596-6.252 12.841-4.743 19.875l1.36 6.346c3.009 14.029 15.606 24.212 29.954 24.212h8.307c14.348 0 26.946-10.183 29.955-24.212l1.36-6.346c.684-3.188.695-6.418.091-9.519 7.328-.756 16.097-1.36 26.355-1.36s19.027.604 26.355 1.36c-.605 3.101-.593 6.331.091 9.519l1.36 6.346c3.009 14.029 15.606 24.212 29.955 24.212h8.307c14.348 0 26.946-10.183 29.955-24.212l1.36-6.346c1.505-7.035-.223-14.28-4.746-19.876zm-133.751 16.731-1.36 6.346c-1.535 7.16-7.965 12.356-15.288 12.356h-8.307c-7.323 0-13.752-5.196-15.287-12.356l-1.361-6.347c-.554-2.584.081-5.245 1.743-7.301s4.131-3.235 6.775-3.235h24.568c5.541 0 9.674 5.139 8.517 10.537zm123.827 0-1.36 6.346c-1.535 7.16-7.965 12.356-15.288 12.356h-8.307c-7.323 0-13.752-5.196-15.288-12.356l-1.36-6.346c-1.155-5.389 2.96-10.537 8.517-10.537h24.568c2.644 0 5.113 1.179 6.775 3.235 1.663 2.056 2.297 4.718 1.743 7.302z" fill="#ea5b70"/></g></g></g></svg>