<svg id="Capa_1" enable-background="new 0 0 497 497" height="512" viewBox="0 0 497 497" width="512" xmlns="http://www.w3.org/2000/svg"><g><g><g><path d="m404.175 0c-34.951 0-63.283 28.333-63.283 63.283v121.935h-183.674v126.566h183.674v121.934c0 34.95 28.331 63.283 63.283 63.283 34.951 0 63.283-28.333 63.283-63.283v-370.435c0-34.95-28.331-63.283-63.283-63.283z" fill="#e8b5b1"/><path d="m157.218 497c-34.951 0-63.283-28.333-63.283-63.283v-340.434c0-34.95 28.331-63.283 63.283-63.283s63.283 28.333 63.283 63.283v340.434c0 34.95-28.332 63.283-63.283 63.283z" fill="#d6948c"/></g><g fill="#ffdbe0"><path d="m200.72 243.98c-16.308-.036-29.552 10.463-29.58 23.45s13.169 23.544 29.477 23.58 29.552-10.463 29.58-23.451c.029-12.986-13.169-23.543-29.477-23.579z"/><ellipse cx="360.725" cy="267.846" rx="23.515" ry="29.529" transform="matrix(.002 -1 1 .002 92.091 627.984)"/></g><g fill="#313d40"><path d="m218.162 230.48c-4.142 0-7.5 3.357-7.5 7.5v12c0 4.143 3.358 7.5 7.5 7.5s7.5-3.357 7.5-7.5v-12c0-4.142-3.358-7.5-7.5-7.5z"/><path d="m343.059 230.48c-4.142 0-7.5 3.357-7.5 7.5v12c0 4.143 3.358 7.5 7.5 7.5s7.5-3.357 7.5-7.5v-12c0-4.142-3.358-7.5-7.5-7.5z"/><path d="m309.703 249.635c-4.142 0-7.5 3.357-7.5 7.5 0 3.836-3.12 6.956-6.956 6.956s-6.956-3.12-6.956-6.956c0-4.143-3.358-7.5-7.5-7.5s-7.5 3.357-7.5 7.5c0 3.836-3.12 6.956-6.956 6.956s-6.956-3.12-6.956-6.956c0-4.143-3.358-7.5-7.5-7.5s-7.5 3.357-7.5 7.5c0 18.831 22.277 28.899 36.411 16.505 14.123 12.386 36.411 2.337 36.411-16.505.002-4.143-3.355-7.5-7.498-7.5z"/></g></g><g><g><g><path d="m239.674 45.352c-9.411-2.3-19.024-3.933-28.742-4.876-25.493-2.474-51.748-.271-77.275 6.561l-10.394 18.003 19.727 73.622 32.73 8.363c29.651-10.086 56.581-26.244 78.536-47.25 20.236-19.361 12.623-47.774-14.582-54.423z" fill="#676fb2"/></g><path d="m133.657 47.037c-.017.004-.034.008-.05.013-.005.001-.007.002-.011.003-25.482 6.828-49.303 18.048-70.141 32.94-7.943 5.676-15.449 11.891-22.453 18.593-20.235 19.361-12.623 47.774 14.583 54.423 34.117 8.338 70.795 7.751 106.067-1.698.005-.001.007-.002.011-.003 4.748-1.272 9.433-2.71 14.058-4.283-11.627-6.899-20.113-18.066-23.616-31.142z" fill="#4c5699"/></g><g><g fill="#676fb2"><path d="m210.932 40.477c-4.142-7.526-7.613-13.833-8.606-15.636-17.276-31.39-63.729-34.053-75.186-2.126v.001c0-.001 0-.001 0-.001l-10.394 18.003 12.732 47.516 87.937-23.563z"/><path d="m127.14 22.715v.001z"/></g><g><path d="m125.254 49.49c-2.381-8.885-1.717-18.311 1.886-26.775-25.859-21.899-64.784 3.607-64.051 39.433.042 2.064.19 9.26.365 17.844l6.483 24.194 65.285-17.493z" fill="#4c5699"/></g></g><g><path d="m210.932 40.477-7.002 6.699c-17.603 16.842-37.699 28.569-69.763 35.578l-3.957 8.213 4.992 18.63 16.903 6.287c31.552-8.086 56.275-22.589 76.989-42.408-1.937-3.518-11.043-20.064-18.162-32.999z" fill="#d4d4ff"/><path d="m136.562 91.694-2.395-8.94c-32.709 7.151-51.293 1.985-70.713-2.761.302 14.759.689 33.633.771 37.659 27.849 6.807 56.51 7.006 87.879-1.768-7.568-6.253-13.001-14.708-15.542-24.19z" fill="#9ea2e3"/></g></g></g></svg>