<svg id="Capa_1" enable-background="new 0 0 496.974 496.974" height="512" viewBox="0 0 496.974 496.974" width="512" xmlns="http://www.w3.org/2000/svg"><g><g><g><path d="m303.792 370.415h-28.382v-243.856h28.382c34.777 0 63.766-27.664 64.217-62.439.458-35.333-28.045-64.12-63.274-64.12h-40.013c-51.136 0-92.589 41.454-92.589 92.589v311.782.013c0 51.136 41.454 92.589 92.589 92.589h40.013c35.229 0 63.733-28.787 63.274-64.121-.451-34.773-29.44-62.437-64.217-62.437z" fill="#ffce71"/><path d="m212.132 404.371 56-59.531-56-55.8v-196.451c0-50.795 40.899-92.03 91.561-92.589h-184.163c-34.95 0-63.279 28.332-63.279 63.28s28.33 63.279 63.279 63.279h29.322v243.855h-29.322c-34.95 0-63.279 28.332-63.279 63.279 0 34.948 28.33 63.28 63.279 63.28h185.205c-51.143.001-92.603-41.459-92.603-92.602z" fill="#ffb357"/></g><g fill="#ff8e9e"><path d="m132.576 56.113c-16.212 0-29.355 10.466-29.355 23.376 0 12.911 13.143 23.377 29.355 23.377s29.355-10.466 29.355-23.377c0-12.909-13.143-23.376-29.355-23.376z"/><path d="m291.689 56.113c-16.212 0-29.355 10.466-29.355 23.376 0 12.911 13.143 23.377 29.355 23.377s29.355-10.466 29.355-23.377c0-12.909-13.143-23.376-29.355-23.376z"/></g><g fill="#313d40"><path d="m149.684 42.487c-4.142 0-7.5 3.357-7.5 7.5v12c0 4.143 3.358 7.5 7.5 7.5s7.5-3.357 7.5-7.5v-12c0-4.143-3.358-7.5-7.5-7.5z"/><path d="m274.581 42.487c-4.142 0-7.5 3.357-7.5 7.5v12c0 4.143 3.358 7.5 7.5 7.5s7.5-3.357 7.5-7.5v-12c0-4.143-3.358-7.5-7.5-7.5z"/><path d="m233.525 55.975c-3.123-2.721-7.861-2.396-10.582.727-5.724 6.57-15.9 6.566-21.62 0-2.722-3.122-7.459-3.447-10.582-.727-3.123 2.722-3.448 7.459-.727 10.582 11.706 13.431 32.544 13.416 44.237 0 2.721-3.123 2.396-7.86-.726-10.582z"/></g></g><g><path d="m247.125 313.847-49.497 49.497c-11.716 11.716-11.716 30.711 0 42.426 11.716 11.716 30.711 11.716 42.426 0l49.497-49.497z" fill="#d6948c"/><g><path d="m417.101 243.495-46.064-46.064-112.777 112.778c-11.889 11.889-11.889 31.166 0 43.055l17.15 17.15 17.576 17.576c11.89 11.89 31.166 11.889 43.056 0l59.79-59.79c22.926-22.926 30.013-55.691 21.269-84.705z" fill="#ff8e9e"/><path d="m272.402 324.351 59.137-59.137c23.095-23.095 56.277-30.477 85.562-21.718-3.943-13.083-11.1-25.404-21.483-35.715-33.333-33.103-87.429-32.354-120.647.865l-59.137 59.137c-11.889 11.889-11.889 31.166 0 43.056l56.569 56.569c-11.89-11.891-11.89-31.168-.001-43.057z" fill="#ea5b70"/></g></g><g><path d="m420.52 363.04c-2.801-2.939-7.084-2.611-9.497-.096-9.184 9.573-20.287 24.302-20.287 36.772 0 13.717 11.188 24.841 24.993 24.84 13.74 0 24.994-10.726 24.994-24.84 0-12.162-11.141-27.166-20.203-36.676z" fill="#ea5b70"/></g><g><path d="m293.597 240.445-38.118 38.118c-5.786 5.786-5.837 15.165-.138 21.036 5.82 5.996 15.441 6.087 21.35.178l38.118-38.118c5.847-5.847 5.828-15.347-.019-21.194-5.847-5.848-15.346-5.867-21.193-.02z" fill="#d34459"/><g><path d="m342.728 288.452-38.738 38.737c-5.887 5.887-5.841 15.446.102 21.276 5.86 5.749 15.256 5.707 21.065-.093l38.767-38.708c5.89-5.881 5.839-15.451-.096-21.287-5.86-5.763-15.287-5.738-21.1.075z" fill="#ea5b70"/></g></g></g></svg>