<svg id="Capa_1" enable-background="new 0 0 497 497" height="512" viewBox="0 0 497 497" width="512" xmlns="http://www.w3.org/2000/svg"><g><g><g><path d="m280.073.007h-40.013c-51.136 0-92.589 41.454-92.589 92.589v274.688h94.29c5.828-17.992 8.988-37.162 8.988-57.052v-183.666h28.382c34.777 0 63.766-27.664 64.217-62.439.458-35.333-28.045-64.12-63.275-64.12z" fill="#70dcba"/><path d="m187.471 283.517v-190.921c0-50.795 40.899-92.03 91.561-92.589h-183.22c-34.777 0-63.766 27.664-64.218 62.438-.459 35.333 28.044 64.121 63.274 64.121h29.322v183.666c0 33.229-27.189 60.45-60.417 60.198-35.395-.268-64.128 28.522-63.769 63.936.355 35.085 30.266 63.001 65.351 62.616 81.24-.893 151.953-54.214 176.406-129.699-33.028-14.777-54.29-47.583-54.29-83.766z" fill="#18c08b"/></g></g><path d="m341.295 158.313c-1.035-6.996-5.445-13.025-11.8-16.128l-132.598-61.505c-5.145-2.514-10.961-2.873-16.377-1.01-5.414 1.862-9.78 5.721-12.291 10.866-2.512 5.144-2.871 10.96-1.01 16.375s5.721 9.78 10.866 12.293l122.45 56.55 13.713 72.196 21.145 13.88 22.081-14.631z" fill="#ea5b70"/><g><path d="m476.031 210.464h-59.429c-22.389 0-40.538 18.15-40.538 40.538v205.452c0 22.389 18.15 40.538 40.538 40.538h41.618c10.97 0 20.085-8.455 20.909-19.394l17.811-244.593c.916-12.165-8.709-22.541-20.909-22.541z" fill="#b9f0ff"/><path d="m390.042 469.246v-230.824c0-15.44 12.517-27.958 27.958-27.958h-113.947c-12.201 0-21.825 10.376-20.909 22.542l17.811 244.593c.824 10.939 9.939 19.394 20.909 19.394h92.759c-13.848-1.668-24.581-13.45-24.581-27.747z" fill="#7ce3ff"/></g><g><g fill="#ff8e9e"><ellipse cx="107.914" cy="83.61" rx="29.355" ry="23.377"/><ellipse cx="267.028" cy="83.61" rx="29.355" ry="23.377"/></g><path d="m234.203 61.707c0-17.239 13.975-31.214 31.213-31.214s31.214 13.975 31.214 31.214-13.975 11.213-31.214 11.213-31.213 6.026-31.213-11.213z" fill="#fff"/><path d="m140.739 61.707c0-17.239-13.975-31.214-31.213-31.214-17.239 0-31.214 13.975-31.214 31.214s13.975 11.213 31.213 11.213c17.239 0 31.214 6.026 31.214-11.213z" fill="#fff"/><ellipse cx="123.47" cy="52.454" rx="7.251" ry="7.251" transform="matrix(.707 -.707 .707 .707 -.927 102.67)"/><ellipse cx="251.472" cy="52.454" rx="7.251" ry="7.251" transform="matrix(.16 -.987 .987 .16 159.414 292.277)"/></g><g><g><g><path d="m463.315 282.105h-73.273l-13.979 13.052v146.885l13.979 10.998h42.175c10.487 0 19.193-8.1 19.948-18.559z" fill="#fce3a0"/></g></g><path d="m390.042 282.105h-73.274l11.15 152.375c.755 10.459 9.461 18.559 19.948 18.559h42.175v-170.934z" fill="#ffce71"/></g></g></svg>