<svg id="Capa_1" enable-background="new 0 0 497 497" height="512" viewBox="0 0 497 497" width="512" xmlns="http://www.w3.org/2000/svg"><g><g><path d="m384.57 400.322-112.645-186.573 59.538-60.976c24.417-25.007 23.939-65.073-1.068-89.491-25.007-24.417-65.067-23.944-89.484 1.063-50.084 51.293-127.931 131.022-127.931 131.022s160.547 265.911 163.24 270.373c11.89 19.69 32.799 31.26 54.236 31.26 48.804 0 79.676-54.337 54.114-96.678z" fill="#676fb2"/><path d="m180.677 126.033v-62.75c0-35.229-28.785-63.734-64.119-63.277-34.779.449-62.447 29.439-62.447 64.22v368.547c0 34.781 27.668 63.771 62.446 64.221 35.335.457 64.119-28.049 64.119-63.277v-126.223l-17.613-29.172c-29.493-48.85-22.252-111.46 17.614-152.289z" fill="#4c5699"/></g><g><g><g><g><ellipse cx="104.819" cy="261.503" fill="#ff8e9e" rx="29.355" ry="23.377"/></g><g><ellipse cx="243.932" cy="261.503" fill="#ff8e9e" rx="29.355" ry="23.377"/></g></g></g><g fill="#313d40"><path d="m121.926 219.5c-4.142 0-7.5 3.357-7.5 7.5v12c0 4.143 3.358 7.5 7.5 7.5s7.5-3.357 7.5-7.5v-12c0-4.143-3.357-7.5-7.5-7.5z"/><path d="m226.824 219.5c-4.142 0-7.5 3.357-7.5 7.5v12c0 4.143 3.358 7.5 7.5 7.5s7.5-3.357 7.5-7.5v-12c0-4.143-3.358-7.5-7.5-7.5z"/><path d="m195.767 232.988c-3.124-2.721-7.861-2.396-10.582.727-2.729 3.133-6.669 4.929-10.81 4.929s-8.081-1.796-10.81-4.929c-2.721-3.122-7.458-3.447-10.582-.727-3.123 2.722-3.448 7.459-.727 10.582 5.579 6.401 13.641 10.073 22.119 10.073s16.54-3.672 22.119-10.073c2.721-3.123 2.396-7.86-.727-10.582z"/></g></g><g><path d="m281.423 328.025-29.358 32.239-21.209 23.292c-17.658 19.391-4.746 51.14 21.209 51.14 0-.004 0 .004 0 0h24.608c8.396 0 15.541-6.868 15.511-15.265-.019-5.32-2.772-9.994-6.925-12.697l36.137-38.736v-35.355-4.618z" fill="#ffb357"/><g><g><path d="m442.889 207.65c0-15.703-18.691-22.399-29.131-11.96l-1.172 1.172-102.737 152.518 15.09 15.09c5.858 5.85 15.815 5.383 21.67-.471l53.807-53.808c26.48-26.48 42.473-63.08 42.473-102.541z" fill="#d4d4ff"/></g><g><path d="m412.586 196.862-127.628 127.628 25.58 25.58 59.878-59.878c24.406-24.407 39.893-57.413 42.17-93.33z" fill="#9ea2e3"/></g></g><path d="m323.97 410.93c-.475 0-.955-.021-1.438-.063-8.305-.721-14.811-7.949-14.811-16.457 0-.771-.301-1.498-.847-2.044l-47.358-47.358c-6.324-6.324-6.587-16.316-.599-22.748 3.068-3.294 7.405-5.183 11.899-5.183 4.34 0 8.421 1.69 11.49 4.759l47.359 47.36c6.807 6.806 10.556 15.855 10.556 25.483 0 4.341-1.69 8.422-4.759 11.491-3.069 3.068-7.149 4.759-11.49 4.759-.001.001-.001.001-.002.001z" fill="#ffce71"/></g></g></svg>