<svg id="Capa_1" enable-background="new 0 0 497 497" height="512" viewBox="0 0 497 497" width="512" xmlns="http://www.w3.org/2000/svg"><g><g><g><g><g><path d="m158.315 370.435v-307.152c0-34.95-28.332-63.283-63.283-63.283-34.952 0-63.283 28.333-63.283 63.283v370.435c0 34.95 28.331 63.283 63.283 63.283h126.566z" fill="#ff6f4d"/><path d="m283.337 370.435h-125.022v63.283c0 34.95 28.331 63.283 63.283 63.283h61.739c34.951 0 63.283-28.333 63.283-63.283 0-34.951-28.332-63.283-63.283-63.283z" fill="#ff8f71"/></g><g fill="#ffdbe0"><path d="m109.628 416.923c-16.212 0-29.355 10.466-29.355 23.377s13.143 23.376 29.355 23.376 29.355-10.466 29.355-23.376-13.143-23.377-29.355-23.377z"/><path d="m268.741 416.923c-16.212 0-29.355 10.466-29.355 23.377s13.143 23.376 29.355 23.376 29.355-10.466 29.355-23.376-13.143-23.377-29.355-23.377z"/></g><g fill="#313d40"><path d="m126.736 398.297c-4.142 0-7.5 3.357-7.5 7.5v12c0 4.143 3.358 7.5 7.5 7.5s7.5-3.357 7.5-7.5v-12c0-4.143-3.358-7.5-7.5-7.5z"/><path d="m251.633 398.297c-4.142 0-7.5 3.357-7.5 7.5v12c0 4.143 3.358 7.5 7.5 7.5s7.5-3.357 7.5-7.5v-12c0-4.143-3.358-7.5-7.5-7.5z"/><path d="m210.576 411.785c-3.123-2.722-7.861-2.396-10.582.727-2.729 3.132-6.669 4.928-10.81 4.928s-8.081-1.796-10.81-4.928c-2.722-3.122-7.459-3.447-10.582-.727-3.123 2.722-3.448 7.459-.727 10.582 5.579 6.401 13.641 10.072 22.119 10.072s16.54-3.671 22.119-10.072c2.721-3.123 2.396-7.86-.727-10.582z"/></g></g></g></g><g><g><path d="m398.166 162.496c-33.294-33.294-87.274-33.294-120.569 0l-33.541 33.541v74.679l22.898 22.898 26.517 5.303c5.657-5.657 12.657-7.775 19.564-6.981 25.391 2.917 51.823-5.363 71.299-24.838 28.326-28.326 32.895-71.431 13.832-104.602z" fill="#fce3a0"/><path d="m268.627 247.486c-2.884-25.223 5.281-51.47 24.494-70.9 28.203-28.52 71.728-33.203 105.044-14.091-3.715-6.465-8.322-12.554-13.832-18.08-33.907-33.779-89.379-33.68-123.033.351-19.213 19.43-27.378 45.676-24.494 70.9.792 6.927-1.308 13.944-6.976 19.612l10.607 53.033 26.517 5.303-5.303-26.517c5.668-5.667 7.768-12.684 6.976-19.611z" fill="#ffce71"/></g><g><path d="m192.708 304.221c-5.858 5.858-5.858 15.355 0 21.213l10.607 10.607c5.858 5.858 15.355 5.858 21.213 0l10.607-10.607-5.303-26.516-26.516-5.303z" fill="#676fb2"/><g><path d="m293.471 320.131c5.842-5.842 5.874-15.339 0-21.213-2.784-2.784-31.82-31.82-31.82-31.82l-45.962-3.536 10.607 53.033s17.121 17.121 17.678 17.678c5.858 5.858 15.355 5.858 21.213 0s5.858-15.355 0-21.213l7.071 7.071c5.87 5.871 15.367 5.846 21.213 0z" fill="#d4d4ff"/><path d="m247.509 295.383c-6.891-6.891-6.246-18.43 1.614-24.191 3.511-2.573 7.842-4.093 12.528-4.093l-31.82-31.82c-5.858-5.858-15.355-5.858-21.213 0-5.858 5.858-5.858 15.355 0 21.213l7.071 7.071c-5.858-5.858-15.355-5.858-21.213 0-5.858 5.858-5.858 15.355 0 21.213l31.82 31.82c0-11.716 9.497-21.213 21.213-21.213z" fill="#9ea2e3"/></g></g></g><g fill="#fce3a0"><path d="m206.122 198.205c-1.118 0-2.179.245-3.133.684h-14.859c-4.142 0-7.5 3.357-7.5 7.5s3.358 7.5 7.5 7.5h18c1.995 0 3.907-.795 5.314-2.208 1.408-1.413 2.194-3.329 2.186-5.324l-.008-.651c0-4.143-3.358-7.501-7.5-7.501z"/><path d="m387.538 303.273c-2.072-3.588-6.659-4.816-10.245-2.745-3.587 2.071-4.816 6.658-2.745 10.245l14.997 25.975c1.389 2.406 3.91 3.751 6.502 3.751 1.272 0 2.562-.324 3.743-1.006 3.587-2.071 4.816-6.658 2.745-10.245z"/><path d="m322.941 315.023c-4.142 0-7.5 3.357-7.5 7.5v18c0 4.143 3.358 7.5 7.5 7.5s7.5-3.357 7.5-7.5v-18c0-4.142-3.358-7.5-7.5-7.5z"/><path d="m457.751 198.889h-18c-4.142 0-7.5 3.357-7.5 7.5s3.358 7.5 7.5 7.5h18c4.142 0 7.5-3.357 7.5-7.5s-3.358-7.5-7.5-7.5z"/><path d="m453.509 273.112-25.975-14.997c-3.587-2.07-8.174-.843-10.245 2.745-2.071 3.587-.842 8.174 2.745 10.245l25.975 14.997c1.181.682 2.471 1.006 3.743 1.006 2.592 0 5.113-1.345 6.502-3.751 2.072-3.586.843-8.173-2.745-10.245z"/><path d="m322.941 63.386c-4.142 0-7.5 3.357-7.5 7.5v18c0 4.143 3.358 7.5 7.5 7.5s7.5-3.357 7.5-7.5v-18c0-4.143-3.358-7.5-7.5-7.5z"/><path d="m255.749 75.009c-2.071-3.588-6.658-4.815-10.245-2.745-3.587 2.071-4.816 6.658-2.745 10.245l14.997 25.976c1.389 2.406 3.91 3.751 6.502 3.751 1.272 0 2.562-.324 3.743-1.006 3.587-2.071 4.816-6.658 2.745-10.245z"/><path d="m225.249 141.326-25.977-14.997c-3.588-2.071-8.174-.843-10.245 2.745-2.071 3.587-.842 8.174 2.745 10.245l25.977 14.997c1.181.682 2.471 1.006 3.743 1.006 2.592 0 5.113-1.345 6.502-3.751 2.072-3.587.842-8.174-2.745-10.245z"/></g></g></svg>