<svg id="Capa_1" enable-background="new 0 0 497 497" height="512" viewBox="0 0 497 497" width="512" xmlns="http://www.w3.org/2000/svg"><g><g><path d="m457.934 4.82c-23.647-9.797-50.866-4.38-68.966 13.718l-140.466 140.468h-94.749l50 134.243c24.697 24.698 64.787 24.712 89.498 0l77.183-77.184v83.883l-20 66.117 20 57.046v10.607c0 34.95 28.331 63.282 63.283 63.282s63.283-28.332 63.283-63.282v-370.433c0-25.595-15.42-48.671-39.066-58.465z" fill="#b28ae4"/><path d="m248.502 159.006-140.47-140.468c-18.103-18.095-45.31-23.517-68.965-13.718-23.647 9.794-39.067 32.87-39.067 58.465v369.489c0 34.781 27.668 63.771 62.446 64.221 35.335.457 64.12-28.049 64.12-63.277v-152.777-64.879l77.186 77.187v-26.209c0-40.52 16.097-79.381 44.75-108.034z" fill="#976bcf"/></g><g><g><g><ellipse cx="168.472" cy="203.025" fill="#ff8e9e" rx="23.515" ry="29.529" transform="matrix(.002 -1 1 .002 -34.921 371.051)"/></g><g><ellipse cx="328.528" cy="203.375" fill="#ff8e9e" rx="23.515" ry="29.529" transform="matrix(.002 -1 1 .002 124.435 531.457)"/></g></g></g><g fill="#313d40"><path d="m185.965 173.009c-4.142 0-7.5 3.357-7.5 7.5v12c0 4.143 3.358 7.5 7.5 7.5s7.5-3.357 7.5-7.5v-12c0-4.143-3.358-7.5-7.5-7.5z"/><path d="m310.862 173.009c-4.142 0-7.5 3.357-7.5 7.5v12c0 4.143 3.358 7.5 7.5 7.5s7.5-3.357 7.5-7.5v-12c0-4.143-3.358-7.5-7.5-7.5z"/><path d="m277.507 192.164c-4.142 0-7.5 3.357-7.5 7.5 0 3.836-3.12 6.956-6.956 6.956s-6.956-3.12-6.956-6.956c0-4.143-3.358-7.5-7.5-7.5s-7.5 3.357-7.5 7.5c0 3.836-3.12 6.956-6.956 6.956s-6.956-3.12-6.956-6.956c0-4.143-3.358-7.5-7.5-7.5s-7.5 3.357-7.5 7.5c0 18.831 22.277 28.899 36.411 16.505 14.123 12.386 36.411 2.337 36.411-16.505.002-4.142-3.356-7.5-7.498-7.5z"/></g><g><g><path d="m126.566 216.062c-8.321 0-15.068 6.746-15.068 15.067v68.288l-54.028 30.397 35.164 49.409c26.65-6.256 48.999-28.747 49-50.702v-.001-.001-97.389c0-8.322-6.746-15.068-15.068-15.068z" fill="#7ce3ff"/><path d="m111.498 299.417c-32.024-3.198-67.865 24.058-67.865 52.108 0 21.649 21.938 34.05 49 27.697-12.239-27.829-4.539-60.401 18.865-79.805z" fill="#2ed0fc"/></g></g><g><path d="m411.334 288.989-3.56.954-18.144 4.862c-11.864 3.179-21.103 12.49-24.19 24.379l-5.006 19.282 10 27.6 45.53-12.2v31.374c-25.351 5.056-38.645 32.687-22.318 45.623 17.734 14.054 52.334-3.407 52.334-26.425v-88.863c.001-18.097-17.148-31.274-34.646-26.586z" fill="#fce3a0"/><path d="m407.774 289.942-43.247 11.588c-14.195 3.804-24.109 16.725-24.109 31.421v69.505c-25.721 4.634-38.828 33.316-22.315 46.4 18.049 14.302 52.332-4.188 52.332-25.747v-57.046-27.458c-.001-22.8 15.314-42.76 37.339-48.663z" fill="#ffce71"/></g></g></svg>