<svg id="Capa_1" enable-background="new 0 0 497 497" height="512" viewBox="0 0 497 497" width="512" xmlns="http://www.w3.org/2000/svg"><g><g><path d="m334.928.007c-34.951 0-63.281 28.332-63.281 63.281v177.124l-86.886-118.48h-58.198v134.658l157.335 214.547c12.149 16.568 31.261 25.863 51.039 25.863 6.563 0 13.201-1.023 19.679-3.146 26.006-8.513 43.593-32.777 43.593-60.141v-370.425c.001-34.949-28.33-63.281-63.281-63.281z" fill="#70dcba"/><path d="m184.761 121.932-70.449-96.066c-16.179-22.065-44.715-31.239-70.719-22.718-26.006 8.513-43.593 32.777-43.593 60.14v369.483c0 34.78 27.668 63.77 62.445 64.219 35.334.456 64.118-28.048 64.118-63.276v-177.124c0-48.956 19.448-95.907 54.065-130.524z" fill="#30cd9c"/></g><g><g><ellipse cx="124.816" cy="204.211" fill="#ff8e9e" rx="24.637" ry="30.938" transform="matrix(.707 -.707 .707 .707 -107.842 148.071)"/></g><g><ellipse cx="243.393" cy="322.788" fill="#ff8e9e" rx="24.637" ry="30.938" transform="matrix(.707 -.707 .707 .707 -156.958 266.648)"/></g><g><ellipse cx="197.49" cy="250.114" fill="#313d40" rx="18.377" ry="16.423" transform="matrix(.707 -.707 .707 .707 -119.014 212.906)"/></g></g><g fill="#313d40"><path d="m149.678 176.057-8.485 8.485c-2.929 2.93-2.929 7.678 0 10.607 1.464 1.464 3.384 2.196 5.303 2.196s3.839-.732 5.303-2.196l8.485-8.485c2.929-2.93 2.929-7.678 0-10.607-2.928-2.928-7.677-2.928-10.606 0z"/><path d="m271.547 287.319c-2.929-2.928-7.678-2.928-10.606 0l-8.485 8.485c-2.929 2.93-2.929 7.678 0 10.607 1.464 1.464 3.384 2.196 5.303 2.196s3.839-.732 5.303-2.196l8.485-8.485c2.929-2.929 2.929-7.677 0-10.607z"/></g><path d="m393.871 161.714c-8.284 0-15 6.716-15 15v50h30v-50c0-8.284-6.716-15-15-15z" fill="#ce857a"/><g><path d="m383.332 319.992v96.791h46.215c28.191-22.817 46.215-57.698 46.215-96.791l-46.215-11.892z" fill="#ffb39d"/><path d="m383.332 319.992-37.362-11.892-33.989 11.892c0 47.315 26.402 88.462 65.277 109.515 5.178 2.805 10.896 4.207 16.614 4.207s11.436-1.402 16.614-4.207c6.755-3.659 13.133-7.925 19.061-12.724-28.19-22.817-46.215-57.698-46.215-96.791z" fill="#ff8f71"/></g><g><g><path d="m496.558 294.433c-8.115-39.596-35.086-64.626-67.034-75.086h-27.612l-46.691 46.691v53.954h28.11 92.431c13.467 0 23.499-12.368 20.796-25.559z" fill="#e8b5b1"/></g><path d="m362.534 294.435c8.107-39.603 35.059-64.629 66.99-75.087-11.458-3.752-23.555-5.631-35.652-5.634-45.835-.01-91.67 26.89-102.689 80.721-2.699 13.187 7.324 25.557 20.798 25.557h71.351c-13.475 0-23.497-12.371-20.798-25.557z" fill="#ce857a"/></g><g><g><g><circle cx="393.871" cy="261.449" fill="#ac6757" r="7.5"/></g></g><g><g><circle cx="393.871" cy="291.449" fill="#ac6757" r="7.5"/></g></g><g fill="#ac6757"><g><circle cx="323.871" cy="280.449" r="7.5"/><circle cx="463.871" cy="280.449" r="7.5"/></g><g><circle cx="353.871" cy="250.449" r="7.5"/><circle cx="433.871" cy="250.449" r="7.5"/></g></g></g></g></svg>