<svg id="Capa_1" enable-background="new 0 0 497 497" height="512" viewBox="0 0 497 497" width="512" xmlns="http://www.w3.org/2000/svg"><g><g><path d="m373.109 32.73c-18.596-18.596-48.745-18.596-67.341 0-6.508 6.513-17.093 6.511-23.601 0h-67.342v67.344c43.64 43.641 114.649 43.636 158.284 0 18.597-18.596 18.597-48.747 0-67.344z" fill="#ff8e9e"/><path d="m282.167 32.73c-43.639-43.639-114.642-43.639-158.276-.009-18.596 18.596-18.596 48.747 0 67.344 18.596 18.596 48.745 18.596 67.341 0 6.501-6.504 17.085-6.499 23.593.009 0-37.193 30.15-67.343 67.342-67.344z" fill="#ea5b70"/></g><g><path d="m204.823 178.778c-9.857-13.442-25.692-21.468-42.36-21.468-5.553 0-11.05.879-16.337 2.611-21.642 7.085-36.183 27.146-36.183 49.918v234.633c0 28.962 23.562 52.524 52.524 52.524s52.525-23.563 52.525-52.524v-74.19c0-43.583 15.424-85.568 43.232-118.686z" fill="#ffb357"/><path d="m334.533 157.314c-28.962 0-52.525 23.563-52.525 52.525v74.189l-23.784-32.433c-27.807 33.117-43.232 75.103-43.232 118.686l77.185 105.251c9.855 13.442 25.692 21.468 42.361 21.468 5.554 0 11.052-.879 16.335-2.609 21.643-7.084 36.184-27.145 36.184-49.918v-234.634c0-28.961-23.563-52.525-52.524-52.525z" fill="#ffce71"/></g><g><g><g><g><ellipse cx="164.935" cy="335.312" fill="#ff8e9e" rx="30.834" ry="24.555"/></g><g><ellipse cx="332.065" cy="335.312" fill="#ff8e9e" rx="30.834" ry="24.555"/></g></g></g><g fill="#313d40"><path d="m182.905 302.873c-4.142 0-7.5 3.357-7.5 7.5v12c0 4.143 3.358 7.5 7.5 7.5s7.5-3.357 7.5-7.5v-12c0-4.143-3.358-7.5-7.5-7.5z"/><path d="m270.721 316.646c-3.124-2.722-7.861-2.396-10.582.727-6.164 7.073-17.12 7.068-23.279 0-2.721-3.122-7.459-3.447-10.582-.727-3.123 2.722-3.448 7.459-.727 10.582 12.142 13.932 33.766 13.92 45.896 0 2.722-3.123 2.397-7.86-.726-10.582z"/><path d="m316.411 300.632c-11.803 0-21.406 9.603-21.406 21.406 0 4.143 3.358 7.5 7.5 7.5s7.5-3.357 7.5-7.5c0-3.532 2.874-6.406 6.406-6.406s6.406 2.874 6.406 6.406c0 4.143 3.358 7.5 7.5 7.5s7.5-3.357 7.5-7.5c.001-11.803-9.602-21.406-21.406-21.406z"/></g></g></g></svg>