<svg id="Capa_1" enable-background="new 0 0 496.975 496.975" height="512" viewBox="0 0 496.975 496.975" width="512" xmlns="http://www.w3.org/2000/svg"><g><g><g><path d="m203.314 0c-48.715 0-82.106 49.095-64.207 94.402l12.705 32.157h51.502c29.472 0 53.449 23.54 53.449 52.476s-23.977 52.476-53.449 52.476h-51.502l-30 63.311 30 63.247h51.502c99.257 0 180.008-80.314 180.008-179.034s-80.752-179.035-180.008-179.035z" fill="#b28ae4"/><path d="m151.812 126.559v-75.07c0-28.442 23.06-51.496 51.502-51.489h-114.782c-34.95 0-63.28 28.331-63.28 63.279v370.416c0 34.948 28.33 63.279 63.28 63.279 34.949 0 63.279-28.331 63.279-63.279v-75.627-126.558-104.951z" fill="#976bcf"/></g><g><g><g><ellipse cx="104.65" cy="88.372" fill="#ff8e9e" rx="23.515" ry="29.529" transform="matrix(.002 -1 1 .002 16.048 192.828)"/></g><g><ellipse cx="264.706" cy="88.722" fill="#ff8e9e" rx="23.515" ry="29.529" transform="matrix(.002 -1 1 .002 175.404 353.233)"/></g></g></g><g fill="#313d40"><path d="m119.178 55.629c-4.143 0-7.5 3.358-7.5 7.5v12c0 4.142 3.357 7.5 7.5 7.5s7.5-3.358 7.5-7.5v-12c0-4.143-3.358-7.5-7.5-7.5z"/><path d="m252.686 53.388c-11.804 0-21.406 9.603-21.406 21.406 0 4.142 3.357 7.5 7.5 7.5s7.5-3.358 7.5-7.5c0-3.532 2.874-6.406 6.406-6.406s6.405 2.874 6.405 6.406c0 4.142 3.357 7.5 7.5 7.5s7.5-3.358 7.5-7.5c0-11.803-9.603-21.406-21.405-21.406z"/><path d="m213.685 75.512c-4.143 0-7.5 3.358-7.5 7.5 0 3.835-3.12 6.956-6.956 6.956-3.835 0-6.955-3.12-6.955-6.956 0-4.142-3.357-7.5-7.5-7.5s-7.5 3.358-7.5 7.5c0 3.835-3.12 6.956-6.956 6.956-3.835 0-6.955-3.12-6.955-6.956 0-4.142-3.357-7.5-7.5-7.5s-7.5 3.358-7.5 7.5c0 18.832 22.277 28.898 36.411 16.504 14.122 12.385 36.411 2.337 36.411-16.504 0-4.142-3.358-7.5-7.5-7.5z"/></g></g><g><g><g><path d="m454.15 322.396c23.335-23.335 23.524-61.327 0-84.849-10.857-10.857-25.856-17.573-42.424-17.573h-.012c-15.912 0-31.173 6.321-42.424 17.573l-20.234 20.234 84.852 84.853z" fill="#ff8e9e"/><path d="m433.909 342.634c0-23.426-9.498-44.638-24.851-59.993-15.356-15.358-36.571-24.859-60.001-24.859l-81.21 81.21c3.72 3.721 81.111 81.132 84.841 84.862z" fill="#ffce71"/><path d="m352.687 423.854v-.021c0-23.423-9.492-44.629-24.84-59.981-15.354-15.359-36.568-24.859-60.001-24.859l-34.823 63.8 55.87 55.886zm-25.402-59.442c-.122.122-.17.171 0 0z" fill="#fad5cb"/><path d="m231.801 493.357 57.092-34.68c-8.254-26.624-29.253-47.625-55.87-55.886l-34.683 57.105c-5.798 9.546-4.404 22.07 3.434 30.028.054.055.109.108.163.163 7.958 7.838 20.318 9.069 29.864 3.27z" fill="#676fb2"/></g><g><path d="m428.965 262.732c9.004-9.004 21.216-14.062 33.949-14.062-2.481-4.049-5.425-7.783-8.764-11.123-10.857-10.857-25.856-17.573-42.424-17.573-15.92 0-31.187 6.324-42.444 17.581l-20.225 20.226c23.43 0 44.644 9.5 60.001 24.859z" fill="#ea5b70"/><path d="m409.057 282.64c-15.357-15.358-36.571-24.859-60.001-24.859l-81.21 81.21c23.433 0 44.647 9.5 60.001 24.859z" fill="#ffb357"/><path d="m310.271 381.427c7.212-7.211 13.584-13.584 17.576-17.576-15.354-15.359-36.568-24.859-60.001-24.859l-34.823 63.8c12.925 4.012 24.93 11.162 34.824 21.06 8.383-8.385 27.265-27.266 42.424-42.425z" fill="#ffb39d"/><path d="m217.936 496.945c0-14.844 5.897-29.08 16.393-39.577l33.518-33.518c-9.586-9.59-21.485-16.92-34.824-21.06l-34.683 57.105c-5.798 9.546-4.404 22.07 3.434 30.028 4.395 4.33 10.297 6.795 16.162 7.022z" fill="#4c5699"/></g></g></g></g></svg>