<svg id="Capa_1" enable-background="new 0 0 497 497" height="512" viewBox="0 0 497 497" width="512" xmlns="http://www.w3.org/2000/svg"><g><g><g><path d="m337.614 41.042h-15.871c-17.878 15.073-44.545 13.811-60.897-3.312h-13.924l-14.01 36.145 15.589 29.648h89.114c-.001-25.096-.001-55.307-.001-62.481z" fill="#ffce71"/><path d="m260.845 37.73c-2.347-2.458-4.419-5.181-6.159-8.125h-12.372c-14.093 23.83-46.088 29.115-67.057 11.436h-15.871v62.481h89.114c-8.157-21.727-4.963-54.072 12.345-65.792z" fill="#ffb357"/></g><g fill="#ffce71"><path d="m248.5 0c-11.535 0-20.886 9.351-20.886 20.886 0 11.552 9.38 20.886 20.886 20.886 4.62 0 8.887-1.503 12.345-4.042 5.178-3.801 8.541-9.929 8.541-16.844 0-11.535-9.351-20.886-20.886-20.886z"/><circle cx="159.386" cy="34.81" r="20.886"/><path d="m337.614 13.924c-15.199 0-25.29 15.75-19.011 29.532 3.289 7.219 10.561 12.24 19.011 12.24 11.535 0 20.886-9.351 20.886-20.886s-9.351-20.886-20.886-20.886z"/></g></g><g><g><path d="m427.712 393.982c17.97-30.705 28.288-66.409 28.288-104.482 0-114.415-93.084-207.5-207.5-207.5l-101.817 65.634v141.866c0-56.141 45.675-101.817 101.817-101.817s101.817 45.676 101.817 101.817c0 8.329-1.013 16.424-2.908 24.177l-9.989-9.989c-20.641-20.636-54.098-20.635-74.729-.001-20.636 20.636-20.639 54.094-.003 74.73l9.991 9.991c-7.754 1.896-15.85 2.909-24.179 2.909-56.142 0-101.817-45.675-101.817-101.817v137.972l101.817 69.528c38.072 0 73.776-10.318 104.481-28.288l12.81 12.811c10.321 10.319 23.841 15.477 37.366 15.477 13.523 0 27.048-5.16 37.363-15.476 20.636-20.636 20.639-54.094.003-74.73z" fill="#e8b5b1"/><path d="m146.683 289.5c0-81.196 37.596-157.816 101.817-207.5-114.415 0-207.5 93.085-207.5 207.5s93.085 207.5 207.5 207.5c-64.221-49.684-101.817-126.304-101.817-207.5z" fill="#d6948c"/></g></g><g><g><g><ellipse cx="168.943" cy="169.063" fill="#ffdbe0" rx="29.355" ry="23.377"/></g><g><ellipse cx="328.057" cy="169.063" fill="#ffdbe0" rx="29.355" ry="23.377"/></g></g></g><g fill="#313d40"><path d="m186.051 127.06c-4.143 0-7.5 3.358-7.5 7.5v12c0 4.142 3.357 7.5 7.5 7.5s7.5-3.358 7.5-7.5v-12c0-4.142-3.358-7.5-7.5-7.5z"/><path d="m310.948 127.06c-4.143 0-7.5 3.358-7.5 7.5v12c0 4.142 3.357 7.5 7.5 7.5s7.5-3.358 7.5-7.5v-12c0-4.142-3.357-7.5-7.5-7.5z"/><path d="m269.891 140.548c-3.123-2.721-7.861-2.396-10.581.727-2.729 3.132-6.669 4.928-10.81 4.928s-8.08-1.796-10.81-4.928c-2.721-3.123-7.459-3.448-10.581-.727-3.123 2.721-3.449 7.458-.728 10.582 5.578 6.402 13.641 10.074 22.118 10.074s16.54-3.672 22.118-10.074c2.723-3.123 2.397-7.86-.726-10.582z"/></g></g></svg>