<svg id="Capa_1" enable-background="new 0 0 497 497" height="512" viewBox="0 0 497 497" width="512" xmlns="http://www.w3.org/2000/svg"><g><g><path d="m276.399 328.923c49.138-32 81.67-87.229 81.67-149.882 0-98.72-80.751-179.034-180.008-179.034-48.715 0-82.106 49.095-64.207 94.402l12.705 32.157h51.502c29.472 0 53.449 23.54 53.449 52.476s-23.977 52.476-53.449 52.476h-51.502l-7.792 16.443c-2.396 1.795-4.7 3.771-6.879 5.95l.93 6.605-16.259 34.313 30 63.247 120.383 120.383c12.357 12.357 28.554 18.535 44.749 18.535s32.392-6.178 44.749-18.535c24.711-24.714 24.711-64.781 0-89.495z" fill="#ff8e9e"/><path d="m126.559 126.565v-75.07c0-28.442 23.06-51.496 51.502-51.489h-114.781c-34.95 0-63.28 28.332-63.28 63.28v370.416c0 34.948 28.33 63.292 63.28 63.292 34.949 0 63.279-28.344 63.279-63.292v-75.627-126.559z" fill="#ea5b70"/></g><g fill="#ffdbe0"><ellipse cx="79.964" cy="88.448" rx="29.355" ry="23.377"/><ellipse cx="239.077" cy="88.448" rx="29.355" ry="23.377"/></g><g fill="#313d40"><path d="m97.073 53.445c-4.143 0-7.5 3.358-7.5 7.5v12c0 4.142 3.357 7.5 7.5 7.5s7.5-3.358 7.5-7.5v-12c0-4.142-3.358-7.5-7.5-7.5z"/><path d="m221.969 53.445c-4.143 0-7.5 3.358-7.5 7.5v12c0 4.142 3.357 7.5 7.5 7.5s7.5-3.358 7.5-7.5v-12c0-4.142-3.357-7.5-7.5-7.5z"/><path d="m180.912 66.934c-3.124-2.721-7.862-2.396-10.582.727-5.727 6.57-15.898 6.563-21.619 0-2.723-3.123-7.46-3.448-10.582-.727-3.122 2.722-3.448 7.459-.727 10.582 11.704 13.43 32.543 13.417 44.236 0 2.723-3.123 2.396-7.861-.726-10.582z"/></g><g><g><path d="m491.019 218.987-18.108-18.108h-46.792l-115.184 115.183v43.894h67.994l11.365-11.365v-10.607h10.607l11.365-11.365v-10.607h10.607l11.365-11.365v-10.607h10.607l11.365-11.365v-10.607h10.607l11.365-11.365v-10.607h10.607l2.232-2.232c3.829-3.829 5.978-9.02 5.978-14.436.001-5.417-2.15-10.611-5.98-14.441z" fill="#fce3a0"/><path d="m440.398 214.346c8.623-8.623 20.318-13.467 32.512-13.467-4.2-4.2-33.099-33.099-37.154-37.153-3.83-3.829-9.023-5.981-14.439-5.981h-.001c-5.416 0-10.61 2.151-14.439 5.981l-146.896 146.896c-3.83 3.829-5.981 9.023-5.981 14.439v.002c0 5.416 2.151 10.61 5.981 14.439l55.261 55.261c3.83 3.83 9.023 5.981 14.439 5.981h.003c5.415 0 10.604-2.147 14.433-5.976l2.234-2.234v-10.606h10.606l15.715-15.715-23.138-23.139c-10.456-10.456-10.456-27.408 0-37.863z" fill="#ffce71"/></g><g><path d="m327.775 352.746-.258-.258c-2.93-2.929-7.678-2.929-10.607 0s-2.929 7.678 0 10.606l.259.258c2.677 2.677 25.323 25.324 29.181 29.182 2.456-2.456 6.444-6.444 10.606-10.606-3.804-3.805-26.5-26.501-29.181-29.182z" fill="#4c5699"/><path d="m359.482 340.51c-2.932-2.925-7.68-2.919-10.605.013-2.926 2.932-2.92 7.68.012 10.606.231.231 16.219 16.218 19.434 19.433l4.349-4.349 6.257-6.257c-3.223-3.223-19.266-19.266-19.447-19.446z" fill="#4c5699"/><g fill="#676fb2"><path d="m370.854 318.544c-2.929 2.929-2.929 7.678 0 10.606l19.44 19.44 10.607-10.607-19.439-19.439c-2.93-2.928-7.678-2.928-10.608 0z"/><path d="m393.44 286.579c-2.925-2.932-7.673-2.938-10.606-.013-2.933 2.926-2.938 7.674-.013 10.607.367.368 25.389 25.39 29.445 29.446l10.607-10.607c-4.039-4.04-29.065-29.065-29.433-29.433z"/><path d="m414.799 274.6c-2.929 2.929-2.929 7.678 0 10.606l19.44 19.44 10.607-10.607-19.44-19.439c-2.929-2.929-7.677-2.929-10.607 0z"/><path d="m447.375 252.626c-2.929-2.927-7.678-2.927-10.606.004-2.928 2.93-2.926 7.679.005 10.607.546.545 16.231 16.23 19.437 19.437l10.607-10.607c-3.218-3.217-18.898-18.896-19.443-19.441z"/><path d="m459.351 220.656c-2.93-2.929-7.678-2.929-10.607 0s-2.929 7.678 0 10.606l29.44 29.439 10.607-10.607z"/></g></g></g></g></svg>