<svg id="Capa_1" enable-background="new 0 0 497 497" height="512" viewBox="0 0 497 497" width="512" xmlns="http://www.w3.org/2000/svg"><g><g><path d="m390.15 263.095c-27.987-48.363-79.248-63.858-116.674-75.174-9.366-2.83-24.237-7.326-34.159-11.654-10.668-4.654-14.599-14.716-13.202-24.577h-50.26v105.585l95.132 63.442c23.033 10.039 14.776 45.236-10.872 49.322l-60.289 57.273 55.339 69.688c85.958 0 155.891-69.933 155.891-155.891.001-27.402-7.228-54.378-20.906-78.014z" fill="#9ea2e3"/><path d="m250.292 126.948c12.505-1.961 24.178 3.722 30.314 14.321 17.506 30.25 56.219 40.58 86.468 23.077 30.251-17.504 40.583-56.218 23.077-86.468-13.328-23.031-32.165-41.864-54.268-55.246h-108.275v123.141c3.347-9.131 11.307-17.041 22.684-18.825z" fill="#9ea2e3"/><g fill="#8288cb"><path d="m226.115 151.69c.283-1.997.784-3.983 1.493-5.917 14.976-55.458 54.868-101.068 108.275-123.141-23.998-14.53-51.847-22.632-80.718-22.632-85.958 0-155.891 69.933-155.891 155.891 0 27.392 7.226 54.362 20.897 77.995 27.985 48.374 79.248 63.87 116.68 75.186 9.359 2.83 24.212 7.32 34.135 11.645-41.448-44.479-59.324-107.525-44.871-169.027z"/><path d="m260.115 370.039c-12.53 1.996-24.238-3.688-30.387-14.308-17.5-30.249-56.207-40.586-86.468-23.08-30.249 17.504-40.583 56.218-23.077 86.468 27.798 48.039 79.52 77.881 134.982 77.881-24.429-38.654-19.479-88.307 4.95-126.961z"/></g></g><g fill="#313d40"><path d="m201.458 237.218c-4.143 0-7.5 3.358-7.5 7.5v12c0 4.142 3.357 7.5 7.5 7.5s7.5-3.358 7.5-7.5v-12c0-4.142-3.357-7.5-7.5-7.5z"/><path d="m279.276 250.99c-3.125-2.721-7.862-2.396-10.582.727-6.165 7.074-17.121 7.067-23.279 0-2.723-3.123-7.461-3.447-10.582-.727-3.122 2.722-3.448 7.459-.727 10.582 12.143 13.933 33.766 13.92 45.896 0 2.722-3.123 2.396-7.86-.726-10.582z"/><path d="m314.966 234.977c-11.804 0-21.406 9.603-21.406 21.406 0 4.142 3.357 7.5 7.5 7.5s7.5-3.358 7.5-7.5c0-3.532 2.874-6.406 6.406-6.406s6.406 2.874 6.406 6.406c0 4.142 3.357 7.5 7.5 7.5s7.5-3.358 7.5-7.5c0-11.803-9.602-21.406-21.406-21.406z"/></g><path d="m143.781 80.999-19.395-2.834-8.674-17.675c-6.701-13.655-26.138-13.732-32.876 0l-8.674 17.675-19.395 2.834c-15.036 2.198-21.039 20.78-10.16 31.446l14.034 13.758-3.313 19.427c-2.568 15.06 13.149 26.545 26.597 19.434l17.347-9.172c15.677 8.289 10.515 5.56 17.347 9.172 13.448 7.111 29.166-4.374 26.597-19.434l-3.313-19.427 14.035-13.758c10.882-10.666 4.878-29.249-10.157-31.446z" fill="#ffce71"/><g fill="#fce3a0"><path d="m430.362 404.491c-4.879-2.986-10.229-5.279-15.911-6.741-1.463-5.683-3.756-11.032-6.742-15.911-3.636-5.941-12.149-5.941-15.784 0-2.986 4.879-5.279 10.229-6.742 15.911-5.682 1.463-11.031 3.755-15.911 6.741-5.941 3.635-5.941 12.148 0 15.784 4.879 2.986 10.231 5.289 15.914 6.752 1.463 5.682 3.753 11.021 6.739 15.9 3.635 5.941 12.148 5.941 15.784 0 2.986-4.879 5.275-10.218 6.739-15.9 5.682-1.463 11.035-3.766 15.913-6.752 5.941-3.636 5.942-12.148.001-15.784z"/><g><path d="m450.448 190.359h-6c-4.142 0-7.5 3.358-7.5 7.5s3.358 7.5 7.5 7.5h6c4.142 0 7.5-3.358 7.5-7.5s-3.358-7.5-7.5-7.5z"/><path d="m416.448 190.359h-6c-4.142 0-7.5 3.358-7.5 7.5s3.358 7.5 7.5 7.5h6c4.142 0 7.5-3.358 7.5-7.5s-3.358-7.5-7.5-7.5z"/><path d="m430.448 204.359c-4.142 0-7.5 3.358-7.5 7.5v6c0 4.142 3.358 7.5 7.5 7.5s7.5-3.358 7.5-7.5v-6c0-4.142-3.358-7.5-7.5-7.5z"/><path d="m430.448 191.359c4.142 0 7.5-3.358 7.5-7.5v-6c0-4.142-3.358-7.5-7.5-7.5s-7.5 3.358-7.5 7.5v6c0 4.142 3.358 7.5 7.5 7.5z"/></g><g><path d="m110.448 290.359h-6c-4.142 0-7.5 3.358-7.5 7.5s3.358 7.5 7.5 7.5h6c4.142 0 7.5-3.358 7.5-7.5s-3.358-7.5-7.5-7.5z"/><path d="m76.448 290.359h-6c-4.142 0-7.5 3.358-7.5 7.5s3.358 7.5 7.5 7.5h6c4.142 0 7.5-3.358 7.5-7.5s-3.358-7.5-7.5-7.5z"/><path d="m90.448 304.359c-4.142 0-7.5 3.358-7.5 7.5v6c0 4.142 3.358 7.5 7.5 7.5s7.5-3.358 7.5-7.5v-6c0-4.142-3.358-7.5-7.5-7.5z"/><path d="m90.448 291.359c4.142 0 7.5-3.358 7.5-7.5v-6c0-4.142-3.358-7.5-7.5-7.5s-7.5 3.358-7.5 7.5v6c0 4.142 3.358 7.5 7.5 7.5z"/></g></g></g></svg>