<svg id="Capa_1" enable-background="new 0 0 497 497" height="512" viewBox="0 0 497 497" width="512" xmlns="http://www.w3.org/2000/svg"><g><g><path d="m390.5 0h-60.438c-50.663.559-91.562 41.808-91.562 92.603v388.95h51.405c13.394-11.604 21.877-28.723 21.877-47.835v-307.153h78.718c34.951 0 63.283-28.333 63.283-63.282 0-34.95-28.332-63.283-63.283-63.283z" fill="#7ce3ff"/><path d="m248.5 404.384v-311.781c0-50.795 40.899-92.043 91.562-92.603h-233.562c-34.951 0-63.283 28.333-63.283 63.283s28.331 63.282 63.283 63.282h78.717v307.152c0 34.95 28.331 63.283 63.283 63.283 15.839 0 30.306-5.832 41.405-15.448-24.954-16.589-41.405-44.955-41.405-77.168z" fill="#2ed0fc"/></g><g><path d="m387.496 244.042c-3.534.023-7.067.377-10.551 1.03-28.557 5.359-49.192 30.445-49.932 59.491l-.117 4.6 37.697 5.768v-20.065c0-4.281.807-8.553 2.618-12.432 3.654-7.826 10.446-12.983 20.658-12.983 7.143 0 12.92-5.8 12.806-12.911-.112-7.009-6.112-12.544-13.179-12.498z" fill="#00b27a"/><path d="m371.03 304.239-10.361 4.925-3.844-10.808c-4.365-12.273-21.722-12.273-26.087 0l-3.844 10.808-10.361-4.925c-11.765-5.592-24.039 6.681-18.446 18.445l4.441 9.342 41.253 21.73 41.253-21.73 4.441-9.342c5.594-11.764-6.68-24.037-18.445-18.445z" fill="#00ce8e"/></g><g><g><path d="m382.953 328.791c-14.483-.016-27.937 4.975-39.171 13.539h-31.456v136.227l65.836 14.114c52.827-13.792 75.561-59.262 75.621-91.994.039-40.863-35.271-71.96-70.83-71.886z" fill="#ff8e9e"/></g><path d="m323.295 433.689c-10.009-31.925-2.195-66.765 20.488-91.359-11.233-8.563-24.687-13.555-39.171-13.539-35.418-.074-70.869 30.866-70.829 71.886.035 19.654 7.746 39.628 20.385 56.26 5.522 7.197 11.986 13.755 19.162 19.047 18.998 14.01 44.725 21.016 70.453 21.016 11.67 0 23.338-1.446 34.379-4.329-26.011-10.272-46.347-31.803-54.867-58.982z" fill="#ea5b70"/></g><g fill="#ff8e9e"><ellipse cx="168.943" cy="85.36" rx="29.355" ry="23.377"/><ellipse cx="328.057" cy="85.36" rx="29.355" ry="23.377"/></g><g fill="#313d40"><path d="m186.051 43.356c-4.143 0-7.5 3.358-7.5 7.5v12c0 4.142 3.357 7.5 7.5 7.5s7.5-3.358 7.5-7.5v-12c0-4.142-3.358-7.5-7.5-7.5z"/><path d="m310.948 43.356c-4.143 0-7.5 3.358-7.5 7.5v12c0 4.142 3.357 7.5 7.5 7.5s7.5-3.358 7.5-7.5v-12c0-4.142-3.357-7.5-7.5-7.5z"/><path d="m269.892 56.845c-3.125-2.721-7.862-2.396-10.582.727-2.729 3.131-6.669 4.928-10.81 4.928s-8.08-1.796-10.81-4.928c-2.722-3.123-7.46-3.448-10.582-.727-3.122 2.722-3.448 7.459-.727 10.582 5.58 6.402 13.641 10.073 22.119 10.073s16.539-3.671 22.118-10.073c2.722-3.123 2.396-7.86-.726-10.582z"/></g></g></svg>