<svg id="Capa_1" enable-background="new 0 0 497 497" height="512" viewBox="0 0 497 497" width="512" xmlns="http://www.w3.org/2000/svg"><g><g><path d="m89.932 423.216c-7.138 7.138-19.041 7.359-26.044.089h-25.274v25.668c20.811 20.861 55.108 21.392 75.938.561 1.591-1.591 22.065-22.065 50.042-50.042l-25.469-25.469c-27.776 27.776-47.965 47.965-49.193 49.193z" fill="#676fb2"/><path d="m313.097 200.051c-1.469 1.469-108.683 108.683-173.972 173.972l25.469 25.469c65.426-65.426 171.898-171.898 173.972-173.972z" fill="#d4d4ff"/></g><g><g><path d="m410.51 0c-34.951 0-63.283 28.333-63.283 63.283v223.504c0 46.123-38.082 83.648-84.89 83.648l-69.766 63.282 69.765 63.283c116.599 0 211.457-94.301 211.457-210.213v-223.504c0-34.95-28.332-63.283-63.283-63.283z" fill="#ffce71"/><path d="m262.337 370.435c-46.808 0-84.89-37.524-84.89-83.648v-223.504c.001-34.95-28.331-63.283-63.282-63.283s-63.283 28.333-63.283 63.283v223.504c0 115.912 94.858 210.213 211.454 210.213-26.354-38.073-26.352-88.492.001-126.565z" fill="#ffb357"/></g><g><g><g><ellipse cx="182.309" cy="426.025" fill="#ff8e9e" rx="23.515" ry="29.529" transform="matrix(.002 -1 1 .002 -244.114 607.4)"/></g><g><ellipse cx="342.365" cy="426.375" fill="#ff8e9e" rx="23.515" ry="29.529" transform="matrix(.002 -1 1 .002 -84.758 767.806)"/></g></g></g><g fill="#313d40"><path d="m199.802 389.009c-4.143 0-7.5 3.357-7.5 7.5v12c0 4.143 3.357 7.5 7.5 7.5s7.5-3.357 7.5-7.5v-12c0-4.143-3.357-7.5-7.5-7.5z"/><path d="m324.7 389.009c-4.143 0-7.5 3.357-7.5 7.5v12c0 4.143 3.357 7.5 7.5 7.5s7.5-3.357 7.5-7.5v-12c0-4.143-3.358-7.5-7.5-7.5z"/><path d="m291.344 408.164c-4.143 0-7.5 3.357-7.5 7.5 0 3.836-3.12 6.956-6.955 6.956-3.836 0-6.956-3.12-6.956-6.956 0-4.143-3.357-7.5-7.5-7.5s-7.5 3.357-7.5 7.5c0 3.836-3.12 6.956-6.955 6.956-3.836 0-6.956-3.12-6.956-6.956 0-4.143-3.357-7.5-7.5-7.5s-7.5 3.357-7.5 7.5c0 12.106 9.85 21.956 21.956 21.956 5.533 0 10.59-2.062 14.455-5.451 3.865 3.39 8.923 5.451 14.456 5.451 12.106 0 21.955-9.85 21.955-21.956 0-4.143-3.357-7.5-7.5-7.5z"/></g></g><g><g><g><path d="m408.366 129.534c-7.126-6.746-18.432-6.321-25.371.618l-69.899 69.899 25.469 25.469 70.164-70.164c7.152-7.151 7.031-18.823-.363-25.822z" fill="#d4d4ff"/></g><g><path d="m209.564 124.091c-13.311 7.937-14.182 27.54-.878 36.666 15.742 10.798 28.465 25.615 36.751 43.025 1.942 4.08 4.599 7.848 7.849 11.101h70.447l68.017-68.017c-49.407-49.406-124.794-56.998-182.186-22.775z" fill="#4c5699"/><path d="m391.75 146.867-68.016 68.016v70.446c3.149 3.151 6.876 5.84 11.1 7.85 17.411 8.287 32.227 21.01 43.026 36.752 9.108 13.278 28.715 12.454 36.666-.878 34.223-57.392 26.631-132.78-22.776-182.186z" fill="#8288cb"/><path d="m253.286 214.884c3.16 3.162 6.88 5.837 11.06 7.828 22.571 10.749 40.809 28.987 51.558 51.558 1.919 4.028 4.563 7.792 7.829 11.059 56.804-57.676 87.201-119.278 68.016-138.463-19.184-19.184-80.786 11.214-138.463 68.018z" fill="#676fb2"/></g></g></g><g><path d="m38.66 449.019c-.085-.086-.171-.172 0 0z" fill="#d4d4ff"/><path d="m38.721 449.079c.04.04.05.05 0 0z" fill="#d4d4ff"/><path d="m87.134 350.094c-7.003-7.27-18.906-7.05-26.044.088l-21.817 21.817c-20.989 20.989-21.624 55.959-.66 76.973 0-15.021 11.84-25.668 25.275-25.668-6.791-7.05-6.711-18.272.241-25.223l22.764-22.764c6.952-6.952 7.032-18.173.241-25.223z" fill="#4c5699"/></g></g></svg>