<svg id="Capa_1" enable-background="new 0 0 497 497" height="512" viewBox="0 0 497 497" width="512" xmlns="http://www.w3.org/2000/svg"><g><g><path d="m455.923 4.051c-32.731-12.272-69.198 4.308-81.469 37.033l-124.351 331.6 57.693 83.251h46.253l138.904-370.415c12.272-32.724-4.307-69.199-37.03-81.469z" fill="#70dcba"/><path d="m294.799 307.56v-54.064l-79.658-212.414c-12.269-32.723-48.748-49.306-81.47-37.031-32.722 12.272-49.302 48.747-37.03 81.47l138.908 370.416c9.26 24.697 32.873 41.06 59.25 41.06 26.38 0 49.989-16.363 59.25-41.061-38.04-40.036-59.25-93.151-59.25-148.376z" fill="#30cd9c"/></g><g fill="#313d40"><path d="m256.168 278.031c-3.123-2.721-7.859-2.396-10.582.727-2.094 2.403-5.116 3.781-8.292 3.781s-6.199-1.378-8.293-3.781c-2.723-3.122-7.46-3.447-10.582-.727-3.122 2.722-3.448 7.459-.727 10.582 4.944 5.673 12.088 8.926 19.602 8.926 7.513 0 14.656-3.253 19.601-8.926 2.721-3.123 2.395-7.86-.727-10.582z"/><path d="m371.175 278.031c-3.123-2.721-7.859-2.396-10.582.727-2.094 2.403-5.117 3.781-8.293 3.781s-6.198-1.378-8.292-3.781c-2.723-3.122-7.46-3.447-10.582-.727-3.122 2.722-3.448 7.459-.727 10.582 4.944 5.673 12.088 8.926 19.601 8.926 7.514 0 14.657-3.253 19.602-8.926 2.721-3.123 2.395-7.86-.727-10.582z"/><path d="m316.942 286.195c-3.124-2.722-7.862-2.396-10.582.727-2.938 3.372-7.182 5.307-11.64 5.307s-8.701-1.935-11.64-5.307c-2.723-3.122-7.46-3.447-10.582-.727-3.122 2.722-3.448 7.459-.727 10.582 5.788 6.642 14.152 10.451 22.948 10.451s17.16-3.81 22.948-10.451c2.723-3.123 2.397-7.86-.725-10.582z"/></g><g><path d="m230 412.026c0-32.516-14.645-61.608-37.697-81.048-8.171-6.891-8.73-19.297-1.172-26.855 8.827-8.827 2.612-23.956-9.871-23.956h-59.852l-52.217 55.211v161.619h98.536c14.923 0 29.155-6.593 38.569-18.172 14.82-18.229 23.704-41.475 23.704-66.799z" fill="#e8b5b1"/><path d="m79.689 413.83c-.552-33.212 14.177-62.998 37.616-82.798 8.191-6.919 8.818-19.329 1.236-26.911-8.827-8.827-2.61-23.954 9.873-23.954h-79.674c-12.483 0-18.7 15.127-9.873 23.954 7.582 7.582 6.955 19.992-1.236 26.911-23.439 19.8-38.169 49.586-37.616 82.798.411 24.724 9.371 47.39 24.005 65.222 9.401 11.456 23.559 17.945 38.378 17.945h60.089c-4.289-3.198-8.728-6.713-12.487-10.509-18.565-18.745-29.84-44.353-30.311-72.658z" fill="#d6948c"/></g></g></svg>