<svg id="Capa_1" enable-background="new 0 0 497 497" height="512" viewBox="0 0 497 497" width="512" xmlns="http://www.w3.org/2000/svg"><g><g><path d="m296.253 173.216c-7.512-19.854-26.525-32.989-47.753-32.989s-40.241 13.135-47.753 32.989l-19.695 52.055-58.235-153.921c-12.307-32.528-48.44-49.851-81.124-37.967-33.21 12.074-50.048 48.922-37.581 81.871l117.755 311.23c9.312 24.606 32.876 40.887 59.186 40.887s49.874-16.28 59.186-40.887l8.262-21.837h67.448v-179.376z" fill="#976bcf"/><path d="m455.307 33.383c-32.685-11.884-68.817 5.44-81.124 37.967l-125.683 333.297 8.262 21.837c9.312 24.606 32.875 40.887 59.186 40.887 26.31 0 49.874-16.28 59.186-40.887l117.755-311.23c12.465-32.949-4.372-69.797-37.582-81.871z" fill="#b28ae4"/></g><g fill="#ff8e9e"><path d="m168.523 307.81c-16.308-.036-29.552 10.464-29.58 23.451s13.169 23.544 29.477 23.58 29.552-10.463 29.58-23.45c.029-12.989-13.168-23.545-29.477-23.581z"/><path d="m328.579 308.16c-16.308-.036-29.552 10.463-29.58 23.45-.029 12.987 13.169 23.544 29.477 23.58s29.552-10.464 29.58-23.451c.029-12.987-13.168-23.544-29.477-23.579z"/></g><g fill="#313d40"><path d="m185.965 294.31c-4.143 0-7.5 3.357-7.5 7.5v12c0 4.143 3.357 7.5 7.5 7.5s7.5-3.357 7.5-7.5v-12c0-4.143-3.358-7.5-7.5-7.5z"/><path d="m310.862 294.31c-4.143 0-7.5 3.357-7.5 7.5v12c0 4.143 3.357 7.5 7.5 7.5s7.5-3.357 7.5-7.5v-12c0-4.143-3.357-7.5-7.5-7.5z"/><path d="m277.507 313.465c-4.143 0-7.5 3.357-7.5 7.5 0 3.835-3.12 6.955-6.955 6.955-3.836 0-6.956-3.12-6.956-6.955 0-4.143-3.357-7.5-7.5-7.5s-7.5 3.357-7.5 7.5c0 3.835-3.12 6.955-6.955 6.955-3.836 0-6.956-3.12-6.956-6.955 0-4.143-3.357-7.5-7.5-7.5s-7.5 3.357-7.5 7.5c0 18.83 22.278 28.899 36.411 16.504 14.124 12.385 36.411 2.338 36.411-16.504 0-4.143-3.358-7.5-7.5-7.5z"/></g><g><path d="m58.293 111.692 36.26-.633-.211-12.045" fill="#ffce71"/><path d="m38.688 139.912-28.773 11.045c-7.964 3.057-11.942 11.992-8.885 19.956l15.992 41.66c3.057 7.964 11.992 11.942 19.956 8.885l29.797-11.438z" fill="#ac6757"/><path d="m89.606 88.361c-3.76-9.795-14.747-14.69-24.548-10.927-9.796 3.761-14.688 14.752-10.927 24.548l4.552 11.874 35.475-13.621z" fill="#ffce71"/><path d="m183.86 148.798-15.992-41.66c-3.057-7.964-11.992-11.943-19.957-8.885l-23.428 8.726 26.011 70.906 24.481-9.13c7.964-3.058 11.942-11.993 8.885-19.957z" fill="#ce857a"/><g><path d="m139.813 196.397c-9.52 11.167-22.302 17.903-35.744 20.016-.128.02-.254.047-.382.066l-34.43-12.839-14.577-31.913 24.167-66.765 15.495-5.948c7.227-.068 14.477 1.2 21.373 3.801 6.21 2.342 12.131 5.765 17.471 10.319 4.645 3.96 8.524 8.486 11.623 13.388 5.182 8.195 8.183 17.444 8.933 26.872.166 2.083.21 4.174.156 6.265-.34 13.034-4.967 26.043-14.085 36.738z" fill="#ffce71"/><path d="m52.663 199.391c-26.385-26.929-21.149-71.791 11.429-91.715 9.334-5.708 19.807-8.562 30.25-8.661-31.528 34.485-27.252 88.394 9.345 117.466-18.413 2.768-37.352-3.135-51.024-17.09z" fill="#ffb357"/></g><path d="m94.356 129.018c18.591-.325 32.966 16.702 28.888 35.265-2.997 13.653-14.902 22.656-27.842 22.882-12.175.213-23.29-7.291-27.659-18.671-7.197-18.753 6.455-39.123 26.611-39.475.001-.001.001-.001.002-.001z" fill="#fff1d4"/></g></g></svg>