<svg id="Capa_1" enable-background="new 0 0 497 497" height="512" viewBox="0 0 497 497" width="512" xmlns="http://www.w3.org/2000/svg"><g><g><g><path d="m151.981 133.66c-19.385-29.078-58.673-36.936-87.751-17.55s-36.936 58.673-17.55 87.751l64.971 97.457-64.972 97.458c-19.541 29.311-11.4 68.995 18.253 88.212 29.184 18.913 68.281 10.139 87.572-18.797l35.198-52.796v-228.153z" fill="#30cd9c"/><path d="m263.753 301.318 64.971-97.457c19.385-29.078 11.528-68.365-17.55-87.751-29.078-19.385-68.365-11.528-87.751 17.55l-35.721 53.582c-46.053 69.079-46.053 159.073 0 228.152l35.198 52.796c19.291 28.937 58.388 37.71 87.572 18.797 29.653-19.217 37.793-58.901 18.253-88.212z" fill="#70dcba"/></g><g fill="#ff8e9e"><ellipse cx="127.643" cy="256.581" rx="24.941" ry="19.5"/><ellipse cx="247.761" cy="256.581" rx="24.941" ry="19.5"/></g><g fill="#313d40"><path d="m140.253 221.454c-4.143 0-7.5 3.357-7.5 7.5v12c0 4.143 3.357 7.5 7.5 7.5s7.5-3.357 7.5-7.5v-12c0-4.142-3.358-7.5-7.5-7.5z"/><path d="m235.15 221.454c-4.143 0-7.5 3.357-7.5 7.5v12c0 4.143 3.357 7.5 7.5 7.5s7.5-3.357 7.5-7.5v-12c0-4.142-3.357-7.5-7.5-7.5z"/><path d="m205.129 235.846c-3.123-2.722-7.86-2.396-10.582.727-1.729 1.984-4.225 3.123-6.846 3.123s-5.116-1.139-6.846-3.123c-2.723-3.122-7.46-3.447-10.582-.727-3.122 2.722-3.448 7.459-.727 10.582 4.579 5.254 11.196 8.268 18.154 8.268s13.575-3.014 18.154-8.268c2.724-3.123 2.398-7.86-.725-10.582z"/></g></g><g><g><path d="m429.905 102.592c-19.883-46.98-56.495-82.645-99.894-96.395h-58.586v99.885h18.952 69.484l30 24.523c19.721 18.347 50.542-3.209 40.044-28.013z" fill="#ff8e9e"/><path d="m291.174 0c-43.92 0-87.303 43.731-87.303 106.083h67.555c0-15.032 3.26-29.354 7.958-42.31 9.69-26.717 27.628-47.692 50.627-57.576-13.701-4.341-28.277-6.197-38.837-6.197z" fill="#ea5b70"/></g><ellipse cx="415.696" cy="133.243" fill="#d4d4ff" rx="45.259" ry="45.259" transform="matrix(.634 -.773 .773 .634 49.107 370.243)"/></g><g><g><path d="m393.61 145.096c-20.505-47.859-64.022-79.144-112.467-85.884l-33.382 20.394v40.897l32.651 20.264c17.276 5.408 32.057 18.081 39.663 35.834 8.705 20.316 32.224 29.71 52.521 21.015 20.305-8.7 29.714-32.215 21.014-52.52z" fill="#efedff"/></g><path d="m281.143 59.211c-20.923-2.911-42.763-1.25-64.068 5.641-21.019 6.8-32.546 29.351-25.747 50.37 6.799 21.017 29.341 32.546 50.37 25.747 13.054-4.224 26.506-4.024 38.714-.203-21.348-22.632-21.184-59.178.731-81.555z" fill="#d4d4ff"/></g></g></svg>