<svg id="Capa_1" enable-background="new 0 0 496.98 496.98" height="512" viewBox="0 0 496.98 496.98" width="512" xmlns="http://www.w3.org/2000/svg"><g><path d="m375.468 10.554c-29.114-19.315-68.392-11.374-87.711 17.746l-70.743 106.629v133.38h63.388l112.812-170.04c19.323-29.123 11.377-68.393-17.746-87.715z" fill="#ffce71"/><path d="m217.014 134.929-70.743-106.628c-19.32-29.125-58.598-37.062-87.712-17.747-29.123 19.322-37.069 58.592-17.746 87.715l113.03 170.366v164.123c0 34.779 27.667 63.768 62.443 64.217 35.333.456 64.116-28.048 64.116-63.274v-165.391c-38.188-30.123-63.388-76.552-63.388-133.381z" fill="#ffb357"/><g fill="#ff8e9e"><ellipse cx="156.955" cy="203.754" rx="24.941" ry="19.5"/><ellipse cx="277.073" cy="203.754" rx="24.941" ry="19.5"/></g><g fill="#313d40"><path d="m169.565 168.627c-4.143 0-7.5 3.357-7.5 7.5v12c0 4.143 3.357 7.5 7.5 7.5s7.5-3.357 7.5-7.5v-12c0-4.143-3.358-7.5-7.5-7.5z"/><path d="m264.462 168.627c-4.143 0-7.5 3.357-7.5 7.5v12c0 4.143 3.357 7.5 7.5 7.5s7.5-3.357 7.5-7.5v-12c0-4.143-3.357-7.5-7.5-7.5z"/><path d="m234.441 183.018c-3.123-2.722-7.86-2.396-10.582.727-1.729 1.984-4.225 3.123-6.846 3.123s-5.116-1.139-6.846-3.123c-2.723-3.122-7.46-3.447-10.582-.727-3.122 2.722-3.448 7.459-.727 10.582 4.579 5.254 11.196 8.268 18.154 8.268s13.575-3.014 18.154-8.268c2.724-3.123 2.398-7.86-.725-10.582z"/></g><g><path d="m455.773 340.136-55.838-21.676-37.675-62.082c-6.401-1.079-12.973-1.648-19.677-1.648-3.997 0-7.771.206-11.663.595l-.121 106.656h128.998c-.659-7.507-2.022-14.81-4.024-21.845z" fill="#ffb5c0"/><path d="m330.92 256.677c-.165-.455.178-.904 0-1.352-10.534 1.053-20.825 3.489-30.344 7.128l-21.568 54.65-48.148 18.305c-3.855 11.643-5.947 24.08-5.947 36.991 0 13.587 2.309 26.629 6.543 38.765l61.8 28.064 36.457 50.137c4.228.46 8.52.704 12.87.704 20.824 0 40.382-5.42 57.352-14.914l7.176-30.074c7.058 15.75 16.008 30.809 26.816 44.84 3.831 4.974 9.967 7.621 16.21 6.958 14.92-1.583 21.264-18.079 12.794-29.062-13.882-18-24.26-38.225-30.787-59.7l26.315-15.165c1.176-6.675 1.793-13.542 1.793-20.553 0-3.511-.154-6.986-.455-10.419-.471-.09-.944-.176-1.42-.251-58.307-9.277-107.359-49.531-127.457-105.052z" fill="#ff8e9e"/><g><path d="m423.818 271.644c-11.67-9.431-27.82-2.252-29.597 11.503-2.088 15.721-6.03 30.779-11.685 45.04v19.682h31.343c8.097-18.702 13.759-38.85 16.48-59.842.809-6.226-1.657-12.436-6.541-16.383z" fill="#ffb5c0"/><g fill="#fad5cb"><path d="m383.157 249.472c-12.149-4.008-23.492 4.662-24.004 16.282-.495 11.208-2.231 22.262-5.156 32.99v29.467h28.54c7.525-18.925 12.079-39.401 13.046-60.889.355-8.055-4.769-15.324-12.426-17.85z"/><path d="m458.3 314.379c-7.679-15.281-29.169-13.291-33.899 3.454-2.81 10.347-6.338 20.375-10.521 30.035v11.958h34.535c4.491-10.683 8.229-21.546 11.203-32.48 1.18-4.338.7-8.95-1.318-12.967z"/></g></g><g><path d="m336.887 395.31h-63.655c-10.449 4.985-21.561 8.802-33.167 11.287-11.632 2.49-17.606 15.495-12.063 26.02 4.211 7.994 12.505 11.188 20.033 9.563 5.68-1.226 14.862-3.86 14.144-3.587h38.788v24.329c-13.866 7.473-12.19 28.323 3.237 33.105 4.932 1.529 9.432 1.163 13.471-.706 18.39-8.504 35.607-19.067 51.486-31.577v-49.081z" fill="#ffb39d"/><path d="m369.161 414.664v-19.354h-32.274c-20.902 19.808-46.391 34.823-74.709 43.283-12.514 4.767-15.898 21.343-5.684 30.446 5.226 4.658 11.77 5.798 17.612 4.006 21.739-6.668 34.248-14.106 26.86-10.122 25.723-11.714 48.826-28.173 68.195-48.259z" fill="#ff8e9e"/></g><g><g fill="#ffb39d"><path d="m413.88 347.869h-26.267v45.216l47.262-5.698c5.103-8.999 9.616-18.208 13.549-27.562-12.048-2.695-23.626-6.733-34.544-11.956z"/><path d="m353.996 298.763c-2.993 10.974-7.233 21.599-12.677 31.703l17.362 40.435h23.864v-42.689c-10.687-8.544-20.291-18.432-28.549-29.449z"/></g><path d="m382.544 328.212c-6.032 15.208-14.031 29.496-23.864 42.689l10.481 24.409 18.451-2.224c10.305-13.74 19.215-28.926 26.267-45.216-11.182-5.354-21.716-11.967-31.335-19.658z" fill="#ff8e9e"/></g><g><path d="m453.663 391.357c-69.04-10.986-126.815-58.747-150.605-124.47-3.239-8.948-13.664-12.892-22.03-8.357-7.399 4.011-9.92 12.182-7.432 19.053 1.056 2.915 2.421 6.372 3.156 8.209-4.184-10.235-17.442-13.074-25.295-5.285-5.027 4.985-5.948 11.637-3.688 17.179 2.665 6.536 5.719 13.018 7.082 15.836-5.795-11.187-21.842-11.175-27.613.137-2.531 4.96-2.293 10.025-.227 14.222 36.555 74.249 102.973 128.176 181.036 149.639 4.703 1.293 9.749.323 13.608-2.66 10.644-8.228 7.113-23.891-4.781-27.399 3.104.828 10.081 2.613 16.942 3.987 6.125 1.227 12.42-1.3 15.928-6.469 6.656-9.809.993-22.101-9.863-24.272 2.005.389 5.781 1.103 8.83 1.588 7.563 1.205 14.887-3.296 17.21-10.594 3.117-9.794-3.219-18.905-12.258-20.344z" fill="#fad5cb"/><path d="m276.753 285.792c-4.184-10.235-17.442-13.074-25.295-5.285-5.027 4.985-5.948 11.637-3.688 17.179 2.665 6.536 5.719 13.018 7.082 15.836 32.067 65.199 91.812 114.511 162.022 133.938 3.104.828 10.081 2.613 16.942 3.987 6.125 1.227 12.42-1.3 15.928-6.469 6.656-9.809.993-22.101-9.863-24.272-71.739-15.672-135.297-66.58-163.128-134.914z" fill="#ffb5c0"/></g></g></g></svg>