<svg id="Capa_1" enable-background="new 0 0 496.975 496.975" height="512" viewBox="0 0 496.975 496.975" width="512" xmlns="http://www.w3.org/2000/svg"><g><g><path d="m427.749 33.419c-11.011-20.574-32.453-33.419-55.791-33.419h-158.815l-55.89 28.022v70.515l55.89 28.022h40.576l-146.798 243.857h136.334l181.353-272.037c12.947-19.417 14.153-44.383 3.141-64.96z" fill="#55dafe"/><g fill="#1cbbea"><path d="m213.143 0h-50.028-38.098c-34.949 0-63.28 28.331-63.28 63.279s28.33 63.279 63.28 63.279h88.126c-34.948-34.948-34.948-91.61 0-126.558z"/><path d="m371.958 370.416h-128.702c-31.025 0-53.298-29.877-44.438-59.61l54.901-184.247-181.353 272.036c-12.947 19.418-14.153 44.384-3.141 64.96 11.012 20.575 32.454 33.42 55.792 33.42h246.941c34.949 0 63.28-28.331 63.28-63.279s-28.331-63.28-63.28-63.28z"/></g></g><g><path d="m248.486 74.63c-16.662 0-30.17 13.507-30.17 30.17h60.339c.001-16.663-13.507-30.17-30.169-30.17z" fill="#4c5699"/><path d="m229.579 208.012-34.726-97.055c17.191-6.764 35.199-10.201 53.525-10.214h.109c18.365 0 36.411 3.437 53.636 10.214l-34.729 97.055c-6.082-2.394-12.444-3.607-18.907-3.607h-.073c-6.415.005-12.764 1.219-18.835 3.607z" fill="#676fb2"/></g><g><g><path d="m175.242 97.548h-18.643c-9.189 0-17.662 4.963-22.156 12.977l-35.798 63.838 35.798 63.838c4.494 8.015 12.967 12.977 22.156 12.977h18.643c36.01-7.031 63.188-38.747 63.188-76.815s-27.177-69.784-63.188-76.815z" fill="#ffce71"/><path d="m112.054 174.363c0-38.068 27.178-69.784 63.188-76.815-4.882-.953-9.924-1.458-15.085-1.458-43.229 0-78.273 35.044-78.273 78.273s35.044 78.273 78.273 78.273c5.161 0 10.203-.505 15.085-1.458-36.01-7.031-63.188-38.747-63.188-76.815z" fill="#ffb357"/></g><g><path d="m180.271 130.682h-13.409l-27.991 43.68 27.991 43.68h13.409c16.505-7.63 27.991-24.334 27.991-43.68s-11.486-36.049-27.991-43.68z" fill="#b9f0ff"/><path d="m152.28 174.363c0-19.346 11.486-36.05 27.991-43.68-6.124-2.831-12.934-4.423-20.113-4.423-26.525 0-48.104 21.579-48.104 48.104s21.579 48.104 48.104 48.104c7.179 0 13.989-1.592 20.113-4.423-16.505-7.632-27.991-24.336-27.991-43.682z" fill="#7ce3ff"/></g></g><g><g><path d="m351.902 97.548h-18.643c-9.189 0-17.662 4.963-22.156 12.977l-35.798 63.838 35.798 63.838c4.494 8.015 12.967 12.977 22.156 12.977h18.643c36.01-7.031 63.188-38.747 63.188-76.815s-27.178-69.784-63.188-76.815z" fill="#ffce71"/><path d="m288.713 174.363c0-38.068 27.178-69.784 63.188-76.815-4.882-.953-9.924-1.458-15.085-1.458-43.229 0-78.273 35.044-78.273 78.273s35.044 78.273 78.273 78.273c5.161 0 10.203-.505 15.085-1.458-36.01-7.031-63.188-38.747-63.188-76.815z" fill="#ffb357"/></g><g><path d="m356.93 130.682h-13.409l-27.991 43.68 27.991 43.68h13.409c16.505-7.63 27.991-24.334 27.991-43.68s-11.486-36.049-27.991-43.68z" fill="#b9f0ff"/><path d="m328.939 174.363c0-19.346 11.486-36.05 27.991-43.68-6.124-2.831-12.934-4.423-20.113-4.423-26.525 0-48.104 21.579-48.104 48.104s21.579 48.104 48.104 48.104c7.179 0 13.989-1.592 20.113-4.423-16.505-7.632-27.991-24.336-27.991-43.682z" fill="#7ce3ff"/></g></g><g fill="#313d40"><path d="m158.99 162.344c-4.143 0-7.5 3.357-7.5 7.5v12c0 4.143 3.357 7.5 7.5 7.5s7.5-3.357 7.5-7.5v-12c0-4.143-3.357-7.5-7.5-7.5z"/><path d="m333.888 162.344c-4.143 0-7.5 3.357-7.5 7.5v12c0 4.143 3.357 7.5 7.5 7.5s7.5-3.357 7.5-7.5v-12c0-4.143-3.358-7.5-7.5-7.5z"/><path d="m269.829 235.832c-3.123-2.721-7.86-2.396-10.581.728-5.726 6.569-15.898 6.564-21.619 0-2.721-3.124-7.459-3.448-10.581-.728-3.123 2.721-3.449 7.459-.728 10.581 11.702 13.431 32.545 13.419 44.236 0 2.722-3.122 2.396-7.86-.727-10.581z"/></g></g></svg>