<svg id="Capa_1" enable-background="new 0 0 497 497" height="512" viewBox="0 0 497 497" width="512" xmlns="http://www.w3.org/2000/svg"><g><g><path d="m325.72 108.918c-24.532 0-44.49 19.958-44.49 44.489v190.186c0 24.531 19.958 44.489 44.49 44.489s44.49-19.958 44.49-44.489c0-10.025 0-180.083 0-190.186 0-24.531-19.958-44.489-44.49-44.489z" fill="#bd7669"/><path d="m452.51 108.918c-24.532 0-44.49 19.958-44.49 44.489v50.604h-37.81c-24.571 24.571-24.571 64.409 0 88.979h37.81v50.603c0 24.531 19.958 44.489 44.49 44.489s44.49-19.958 44.49-44.489v-190.186c0-24.531-19.958-44.489-44.49-44.489z" fill="#d6948c"/></g><g><path d="m239.278 284.369c-17.3-17.394-45.522-17.474-62.918-.175-19.984 19.874-52.504 19.876-72.49 0-9.547-9.494-14.824-22.31-14.884-35.694.054-13.393 5.332-26.194 14.884-35.693 19.987-19.874 52.507-19.877 72.49-.001 17.417 17.32 45.58 17.264 62.919-.174 17.338-17.435 17.263-45.577-.175-62.918-26.627-26.48-61.4-40.036-96.371-40.681l-71.366 31.829v107.638 106l68.749 33.508c37.43 0 72.584-14.461 98.988-40.72 17.435-17.338 17.515-45.481.174-62.919z" fill="#d6948c"/><path d="m88.98 248.5c0-.069.005.069.005 0 .406-49.872 18.352-99.802 53.747-139.467-36.716-.677-73.65 12.878-101.606 40.68-26.519 26.372-41.125 61.455-41.126 98.787 0 37.331 14.605 72.414 41.127 98.788 26.406 26.259 61.562 40.72 98.988 40.72-34.424-40.065-51.431-89.96-51.129-139.508 0-.077-.006.076-.006 0z" fill="#bd7669"/></g><g fill="#313d40"><g><path d="m193.217 156.17c-.002 0-.004 0-.006 0-4.14 0-7.497 3.354-7.5 7.494l-.009 11.876c-.003 4.143 3.353 7.503 7.494 7.506h.006c4.14 0 7.497-3.354 7.5-7.494l.009-11.876c.003-4.143-3.353-7.503-7.494-7.506z"/><path d="m88.044 147.591c-6.359 1.917-14.21 2.808-16.494 1.905-2.762-2.797-7.259-2.999-10.262-.38-3.123 2.722-3.447 7.459-.726 10.581 3.401 3.902 8.889 5.15 14.519 5.15 1.344 0 2.694-.074 4.027-.197l-.008 10.767c-.003 4.142 3.352 7.503 7.494 7.506h.006c4.139 0 7.497-3.354 7.5-7.494l.01-11.877c0-.76-.114-1.493-.324-2.185 3.071-1.658 4.655-5.298 3.605-8.768-1.199-3.961-5.381-6.206-9.347-5.008z"/><path d="m205.403 141.322c-9.854-13.384-26.762-6.97-34.322-1.709-3.4 2.365-4.239 7.039-1.873 10.439 1.457 2.095 3.791 3.218 6.163 3.218 1.478 0 2.972-.437 4.276-1.345.1-.068 10.039-6.652 13.678-1.709 2.455 3.335 7.151 4.047 10.486 1.592s4.048-7.151 1.592-10.486z"/><path d="m149.318 170.732h-.12c-.037 0-.073 0-.111 0-6.203 0-20.472-.022-29.859-3.86-3.833-1.567-8.213.271-9.78 4.104s.271 8.213 4.104 9.78c12.104 4.948 27.848 4.976 35.516 4.976h.131.12c4.143 0 7.5-3.357 7.5-7.5s-3.358-7.5-7.501-7.5z"/></g><g><path d="m450.84 228.147c-.011 0-.022 0-.034 0-4.126 0-7.48 3.336-7.499 7.467l-.021 4.787c-.019 4.142 3.324 7.515 7.467 7.533h.034c4.126 0 7.48-3.336 7.499-7.467l.021-4.787c.018-4.141-3.325-7.514-7.467-7.533z"/><path d="m327.703 227.599c-.011 0-.022 0-.034 0-4.126 0-7.48 3.336-7.499 7.467l-.021 4.787c-.019 4.142 3.324 7.515 7.467 7.533h.034c4.126 0 7.48-3.336 7.499-7.467l.021-4.787c.018-4.142-3.324-7.515-7.467-7.533z"/><path d="m389.817 219.498c-4.143 0-7.5 3.357-7.5 7.5s3.357 7.5 7.5 7.5c4.703 0 4.706 7.119 0 7.119-4.143 0-7.5 3.357-7.5 7.5s3.357 7.5 7.5 7.5c4.703 0 4.706 7.119 0 7.119-4.143 0-7.5 3.357-7.5 7.5s3.357 7.5 7.5 7.5c15.185 0 23.996-17.381 14.869-29.619 9.112-12.218.337-29.619-14.869-29.619z"/></g></g></g></svg>