<svg id="Capa_1" enable-background="new 0 0 497 497" height="512" viewBox="0 0 497 497" width="512" xmlns="http://www.w3.org/2000/svg"><g><g><g><path d="m248.5 0-85.733 62.125 85.733 62.125c45.895 0 86.055 25.016 107.57 62.125h-60.852l-10 8.694h-73.437l-10-8.694h-139.656v124.25h372.75c34.311 0 62.125-27.813 62.125-62.125 0-137.024-111.476-248.5-248.5-248.5z" fill="#ff8e9e"/><path d="m248.5 0c-137.024 0-248.5 111.476-248.5 248.5s111.476 248.5 248.5 248.5c53.064 0 103.705-16.502 146.449-47.722 27.705-20.236 33.762-59.104 13.523-86.811-20.23-27.699-59.094-33.759-86.811-13.523-21.322 15.574-46.621 23.807-73.161 23.807-68.51 0-124.25-55.74-124.25-124.25s55.74-124.25 124.25-124.25c-16.802-16.802-25.722-38.713-25.722-60.735 0-25.977 8.213-46.007 25.722-63.516z" fill="#ea5b70"/></g><g><g><g><ellipse cx="108.943" cy="261.671" fill="#ffdbe0" rx="29.355" ry="23.377"/></g><g><ellipse cx="388.057" cy="261.671" fill="#ffdbe0" rx="29.355" ry="23.377"/></g></g></g><g><path d="m269.891 270.156c-3.122-2.722-7.861-2.396-10.581.728-5.724 6.568-15.9 6.562-21.619 0-2.721-3.124-7.459-3.448-10.581-.728-3.123 2.721-3.449 7.459-.728 10.581 11.7 13.429 32.545 13.418 44.236 0 2.722-3.122 2.396-7.86-.727-10.581z" fill="#313d40"/></g></g><g><path d="m283.465 203.77c-6.451-13.111-19.691-21.805-34.965-21.927-15.249.122-28.503 8.796-34.965 21.927l-6.622 13.459 26.918 13.244 6.622-13.459c1.522-3.094 4.602-5.245 8.047-5.245s6.524 2.151 8.047 5.245l6.622 13.459 26.918-13.244z" fill="#ffb357"/><g><g><path d="m207.451 172.925c-22.398-9.479-61.502-8.352-80.889 11.256-10.066 10.182-14.555 25.118-12.313 40.979 2.429 17.187 11.966 31.974 25.509 39.553 18.036 10.097 47.014 9.293 63.996 1.517 15.515-7.103 25.687-21.996 30.076-35.755 8.164-25.589-6.041-48.942-26.379-57.55z" fill="#ffb357"/><path d="m195.759 200.553c-12.972-5.49-38.681-4.565-47.862 4.719-8.18 8.273-3.602 27.601 6.516 33.263 9.107 5.098 28.049 4.448 36.854.416 8.344-3.82 14.008-14.724 14.91-22.007.765-6.169-3.861-13.616-10.418-16.391z" fill="#4c5699"/></g><g><path d="m293.242 266.227c-15.518-7.104-25.686-21.991-30.073-35.753-8.188-25.687 6.173-48.996 26.38-57.549 22.437-9.495 61.511-8.343 80.888 11.255 10.067 10.183 14.556 25.119 12.313 40.979-2.429 17.187-11.966 31.974-25.511 39.555-18.07 10.115-47.047 9.275-63.997 1.513z" fill="#ffce71"/><path d="m301.241 200.553c12.972-5.49 38.681-4.565 47.862 4.719 8.18 8.273 3.602 27.601-6.516 33.263-9.107 5.098-28.049 4.448-36.854.416-8.344-3.82-14.008-14.724-14.91-22.007-.765-6.169 3.861-13.616 10.418-16.391z" fill="#676fb2"/></g></g></g></g></svg>