<svg id="Capa_1" enable-background="new 0 0 497 497" height="512" viewBox="0 0 497 497" width="512" xmlns="http://www.w3.org/2000/svg"><g><g><g><path d="m273.5 216.172h-38.73v274.656h38.73c17.079-8.997 28.73-26.912 28.73-47.558v-179.541c0-20.645-11.651-38.56-28.73-47.557z" fill="#70dcba"/><path d="m244.77 443.271v-179.542c0-20.646 11.65-38.561 28.73-47.558-7.469-3.935-15.971-6.172-25-6.172-29.675 0-53.73 24.055-53.73 53.729v179.541c0 29.674 24.055 53.729 53.73 53.729 9.029 0 17.531-2.237 25-6.172-17.079-8.995-28.73-26.91-28.73-47.555z" fill="#18c08b"/></g><g><path d="m312.14 26.356c-15.962-15.963-36.428-24.677-57.307-26.141l-96.333 89.785 96.333 89.785c20.879-1.464 41.345-10.177 57.307-26.141 17.574-17.575 26.36-40.61 26.36-63.644 0-23.035-8.787-46.069-26.36-63.644z" fill="#70dcba"/><path d="m215.773 90c0-33.08 13.284-65.737 39.06-89.785-2.108-.148-4.221-.215-6.333-.215-49.686 0-90 40.249-90 90 0 49.686 40.247 90 90 90 2.112 0 4.225-.067 6.333-.215-25.018-23.341-39.06-55.664-39.06-89.785z" fill="#18c08b"/></g></g><g fill="#313d40"><path d="m196.051 92.06c-4.143 0-7.5 3.357-7.5 7.5v12c0 4.143 3.357 7.5 7.5 7.5s7.5-3.357 7.5-7.5v-12c0-4.143-3.358-7.5-7.5-7.5z"/><path d="m300.948 92.06c-4.143 0-7.5 3.357-7.5 7.5v12c0 4.143 3.357 7.5 7.5 7.5s7.5-3.357 7.5-7.5v-12c0-4.143-3.357-7.5-7.5-7.5z"/><path d="m264.928 106.68c-3.123-2.722-7.86-2.396-10.582.727-1.477 1.694-3.607 2.666-5.846 2.666s-4.369-.972-5.846-2.666c-2.723-3.122-7.46-3.447-10.582-.727-3.123 2.722-3.448 7.459-.727 10.582 4.326 4.964 10.579 7.811 17.154 7.811s12.828-2.847 17.154-7.811c2.723-3.123 2.398-7.861-.725-10.582z"/></g></g></svg>