<svg id="Capa_1" enable-background="new 0 0 497 497" height="512" viewBox="0 0 497 497" width="512" xmlns="http://www.w3.org/2000/svg"><g><path d="m233.5 29.995h30v73.505h-30z" fill="#d4d4ff"/><g><path d="m123.734 29.995v.011c0 20.457 20.042 34.902 39.449 28.434l85.317-28.44-85.317-28.439c-19.407-6.469-39.449 7.976-39.449 28.434z" fill="#d4d4ff"/><path d="m333.817 1.561-85.317 28.439 85.317 28.439c19.407 6.468 39.449-7.977 39.449-28.434v-.011c0-20.457-20.042-34.902-39.449-28.433z" fill="#efedff"/></g><circle cx="248.5" cy="30" fill="#9ea2e3" r="30"/><g><path d="m309.007 137.172c-18.969-6.583-39.326-10.172-60.507-10.172l-60.501 39.286v140.375c2.714-31.005 28.805-55.411 60.501-55.411 33.497 0 60.75 27.253 60.75 60.75s-27.253 60.75-60.75 60.75c-31.697 0-57.787-24.406-60.501-55.411v137.101l60.501 42.56c102.01 0 185-82.99 185-185 0-80.828-52.109-149.705-124.493-174.828z" fill="#ff8f71"/><path d="m187.75 312c0-1.8.094-3.578.248-5.339 1.076-63.182 21.239-126.109 60.502-179.661-21.181 0-41.538 3.589-60.507 10.172-72.384 25.123-124.493 94-124.493 174.828 0 102.01 82.99 185 185 185-39.263-53.552-59.426-116.479-60.501-179.661-.155-1.761-.249-3.539-.249-5.339z" fill="#ff6f4d"/></g><g><path d="m248.5 90-31.582 20v46.202c20.243 8.026 42.921 8.026 63.164 0v-46.202z" fill="#fce3a0"/><path d="m187.993 137.172c8.52 8.52 18.393 14.854 28.925 19.03 2.632-24.972 13.741-48.36 31.582-66.202-29.205 0-53.715 20.072-60.507 47.172z" fill="#55dafe"/><path d="m248.5 90c17.841 17.842 28.95 41.23 31.582 66.202 10.531-4.176 20.405-10.511 28.925-19.03-6.792-27.1-31.302-47.172-60.507-47.172z" fill="#ffb5c0"/></g><g><g><g><ellipse cx="168.472" cy="221.633" fill="#ffdbe0" rx="23.515" ry="29.529" transform="matrix(.002 -1 1 .002 -53.529 389.619)"/></g><g><ellipse cx="328.528" cy="221.983" fill="#ffdbe0" rx="23.515" ry="29.529" transform="matrix(.002 -1 1 .002 105.827 550.024)"/></g></g></g><g fill="#313d40"><path d="m185.965 184.617c-4.143 0-7.5 3.357-7.5 7.5v12c0 4.143 3.357 7.5 7.5 7.5s7.5-3.357 7.5-7.5v-12c0-4.142-3.358-7.5-7.5-7.5z"/><path d="m310.862 184.617c-4.143 0-7.5 3.357-7.5 7.5v12c0 4.143 3.357 7.5 7.5 7.5s7.5-3.357 7.5-7.5v-12c0-4.142-3.357-7.5-7.5-7.5z"/><path d="m277.507 203.772c-4.143 0-7.5 3.357-7.5 7.5 0 3.835-3.12 6.955-6.955 6.955-3.836 0-6.956-3.12-6.956-6.955 0-4.143-3.357-7.5-7.5-7.5s-7.5 3.357-7.5 7.5c0 3.835-3.12 6.955-6.955 6.955-3.836 0-6.956-3.12-6.956-6.955 0-4.143-3.357-7.5-7.5-7.5s-7.5 3.357-7.5 7.5c0 18.83 22.278 28.898 36.411 16.504 14.124 12.385 36.411 2.338 36.411-16.504 0-4.142-3.358-7.5-7.5-7.5z"/></g></g></svg>