<svg id="Capa_1" enable-background="new 0 0 497 497" height="512" viewBox="0 0 497 497" width="512" xmlns="http://www.w3.org/2000/svg"><g><g><path d="m272.284 497c103.554 0 187.801-83.831 187.801-186.873v-125.791c0-42.582-34.643-77.225-77.225-77.225s-77.226 34.643-77.226 77.225v125.791c0 17.878-14.96 32.423-33.349 32.423l-90.604 70z" fill="#ffce71"/><path d="m272.286 342.55c-18.389 0-33.35-14.545-33.35-32.423v-125.791c0-17.865-6.389-34.066-16.613-47.164-14.145-18.121-35.896-30.061-60.613-30.061-24.716 0-46.469 11.94-60.613 30.061-10.225 13.099-16.611 29.298-16.611 47.164v125.791c0 103.042 84.246 186.873 187.798 186.873-42.649-42.65-42.648-111.8.002-154.45z" fill="#ffb357"/></g><g><g><g><ellipse cx="192.257" cy="406.025" fill="#ff8e9e" rx="23.515" ry="29.529" transform="matrix(.002 -1 1 .002 -214.188 597.392)"/></g><g><ellipse cx="352.313" cy="406.375" fill="#ff8e9e" rx="23.515" ry="29.529" transform="matrix(.002 -1 1 .002 -54.832 757.798)"/></g></g></g><g fill="#313d40"><path d="m209.75 369.009c-4.143 0-7.5 3.357-7.5 7.5v12c0 4.143 3.357 7.5 7.5 7.5s7.5-3.357 7.5-7.5v-12c0-4.143-3.357-7.5-7.5-7.5z"/><path d="m334.648 369.009c-4.143 0-7.5 3.357-7.5 7.5v12c0 4.143 3.357 7.5 7.5 7.5s7.5-3.357 7.5-7.5v-12c0-4.143-3.358-7.5-7.5-7.5z"/><path d="m301.292 388.164c-4.143 0-7.5 3.357-7.5 7.5 0 3.836-3.12 6.956-6.955 6.956-3.836 0-6.956-3.12-6.956-6.956 0-4.143-3.357-7.5-7.5-7.5s-7.5 3.357-7.5 7.5c0 3.836-3.12 6.956-6.955 6.956-3.836 0-6.956-3.12-6.956-6.956 0-4.143-3.357-7.5-7.5-7.5s-7.5 3.357-7.5 7.5c0 12.106 9.85 21.956 21.956 21.956 5.533 0 10.59-2.062 14.455-5.451 3.865 3.39 8.923 5.451 14.456 5.451 12.106 0 21.955-9.85 21.955-21.956 0-4.143-3.357-7.5-7.5-7.5z"/></g><path d="m146.682 29.995h30v73.505h-30z" fill="#d4d4ff"/><g><path d="m36.916 29.995v.011c0 20.457 20.042 34.902 39.449 28.434l85.317-28.44-85.317-28.439c-19.407-6.469-39.449 7.976-39.449 28.434z" fill="#d4d4ff"/><path d="m246.998 1.561-85.316 28.439 85.317 28.439c19.407 6.468 39.449-7.977 39.449-28.434v-.011c0-20.457-20.042-34.902-39.45-28.433z" fill="#efedff"/></g><circle cx="161.682" cy="30" fill="#9ea2e3" r="30"/><g><path d="m161.682 90-31.582 20v46.202c20.243 8.026 42.921 8.026 63.164 0v-46.202z" fill="#fce3a0"/><path d="m101.097 137.172c8.52 8.52 18.471 14.854 29.003 19.03 2.632-24.972 13.741-48.36 31.582-66.202-29.206 0-53.793 20.072-60.585 47.172z" fill="#55dafe"/><path d="m161.682 90c17.841 17.842 28.95 41.23 31.582 66.202 10.531-4.176 20.54-10.511 29.06-19.03-6.792-27.1-31.437-47.172-60.642-47.172z" fill="#ff8e9e"/></g></g></svg>