<svg id="Capa_1" enable-background="new 0 0 497 497" height="512" viewBox="0 0 497 497" width="512" xmlns="http://www.w3.org/2000/svg"><g><path d="m430.298 197.482c2.932-4.352 2.932-10.062 0-14.414-9.262-13.747-24.971-22.793-42.801-22.793-4.797 0-9.44.655-13.845 1.879-11.971 3.328-22.186 10.865-28.956 20.914-2.932 4.352-2.932 10.062 0 14.414 9.262 13.747 24.971 22.793 42.801 22.793s33.539-9.046 42.801-22.793z" fill="#ff8f71"/><g><path d="m260.326 105.008 80.874 80.874c.542.542 1.108 1.021 1.696 1.442 6.298 4.512 14.969 2.251 20.436-3.215l6.146-6.146c30.719-30.719 39.946-74.924 23.941-113.266l-52.661-52.661-81.11 81.11z" fill="#ffb39d"/><path d="m273.118 93.896 6.146-6.146c30.723-30.723 76.148-38.725 114.155-23.052-5.135-12.3-12.859-23.998-23.313-34.452-40.904-40.906-107.137-39.952-147.717.628l-6.146 6.146c-5.976 5.976-8.121 15.783-1.772 22.132l56.876 56.876c-6.35-6.349-4.205-16.156 1.771-22.132z" fill="#ff8f71"/></g><g><path d="m287.253 385.625h-167.063v111.375h111.378 55.685c30.756 0 55.688-24.932 55.688-55.688-.001-30.755-24.932-55.687-55.688-55.687z" fill="#1cbbea"/><path d="m315.137 274.204c18.188-24.249 27.803-53.118 27.803-83.485 0-76.766-62.453-139.219-139.219-139.219l-85.412 56.15 87.427 55.294c14.733 1.012 25.915 13.178 25.829 27.946-.045 7.591-3.023 13.15-5.525 16.485l-150.4 200.525c-12.655 16.872-14.691 39.449-5.259 58.317 9.433 18.865 28.717 30.783 49.809 30.783h27.843 83.535c-34.418 0-54.064-39.293-33.413-66.827z" fill="#55dafe"/><path d="m181.056 107.65c-.38-21.017 7.802-41.286 22.666-56.15-49.531 0-95.724 26.65-120.546 69.55-15.404 26.62-6.311 60.685 20.309 76.089 26.615 15.404 60.685 6.314 76.089-20.309 5.393-9.316 15.3-14.631 26.163-13.885-15.392-14.318-24.301-34.277-24.681-55.295z" fill="#1cbbea"/></g><path d="m342.896 281.305c4.778 3.219 11.047 3.219 15.825 0 15.092-10.169 25.024-27.415 25.024-46.99s-9.932-36.822-25.024-46.99c-4.778-3.219-11.047-3.219-15.825 0-15.092 10.169-25.024 27.415-25.024 46.99s9.932 36.822 25.024 46.99z" fill="#ffb39d"/><g><g><g><ellipse cx="285.735" cy="156.006" fill="#ff8e9e" rx="29.756" ry="23.696"/></g><g><ellipse cx="124.451" cy="156.146" fill="#ff8e9e" rx="29.756" ry="23.696"/></g></g></g><g fill="#313d40"><path d="m134.763 113.808c-.002 0-.004 0-.006 0-4.142.003-7.497 3.363-7.494 7.505l.009 11.876c.003 4.141 3.36 7.495 7.5 7.495h.006c4.142-.003 7.497-3.363 7.494-7.505l-.009-11.876c-.003-4.141-3.361-7.495-7.5-7.495z"/><path d="m286.686 106.753c-3.003-2.618-7.499-2.417-10.262.38-2.283.906-10.136.011-16.487-1.903-3.968-1.202-8.151 1.035-9.355 4.998-1.054 3.472.533 7.116 3.607 8.776-.21.692-.325 1.425-.324 2.186l.01 11.876c.003 4.14 3.36 7.494 7.5 7.494h.006c4.143-.003 7.497-3.364 7.494-7.506l-.009-10.765c6.585.608 14.218.011 18.546-4.953 2.721-3.123 2.397-7.86-.726-10.583z"/><path d="m156.893 97.251c-7.562-5.262-24.465-11.675-34.322 1.709-2.456 3.335-1.743 8.03 1.592 10.486 3.333 2.456 8.03 1.743 10.486-1.592 3.625-4.92 13.533 1.613 13.703 1.727 3.394 2.343 8.054 1.503 10.414-1.891 2.366-3.399 1.527-8.074-1.873-10.439z"/><path d="m218.746 125.509c-9.39 3.838-23.658 3.861-29.862 3.861-.037 0-.074 0-.11 0h-.118c-4.143 0-7.5 3.358-7.5 7.5s3.357 7.5 7.5 7.5h.117.131c7.67 0 23.414-.028 35.519-4.976 3.834-1.567 5.672-5.946 4.104-9.78-1.568-3.835-5.947-5.673-9.781-4.105z"/></g></g></svg>