<svg id="Capa_1" enable-background="new 0 0 496.983 496.983" height="512" viewBox="0 0 496.983 496.983" width="512" xmlns="http://www.w3.org/2000/svg"><g><g><path d="m380.895 199.307c0-31.259-10.66-60.076-28.538-83.01-24.792-31.805-63.466-52.297-106.838-52.297l1.301 100.305c23.45-.304 38.662 23.631 30.169 44.773l-28.663 71.35 28.815 72.912c7.914 20.027-5.328 42.821-27.293 44.47l1.284 99.047c71.997-2.955 129.659-62.454 129.659-135.182 0-30.412-10.085-58.51-27.082-81.131 17.06-22.638 27.186-50.777 27.186-81.237z" fill="#70dcba"/><path d="m250.996 280.491c56.121-62.106 53.713-157.302-5.476-216.491-29.427 0-57.421 9.284-80.957 26.85-23.956 17.878-28.882 51.789-11.004 75.745s51.795 28.885 75.746 11.004c3.274-2.442 8.742-5.354 16.216-5.354 14.96 0 27.13 12.141 27.13 27.061 0 14.921-12.169 27.061-27.13 27.061-29.892 0-54.123 24.231-54.123 54.123s24.231 54.123 54.123 54.123c14.902 0 27.027 12.141 27.027 27.061s-12.125 27.061-27.027 27.061c-9.765 0-18.528-5.069-23.441-13.562-14.963-25.872-48.066-34.725-73.949-19.752-25.875 14.963-34.717 48.071-19.751 73.948 24.12 41.705 69.007 67.611 117.141 67.611 1.881 0 3.751-.049 5.613-.125 59.646-59.796 59.602-156.623-.138-216.364z" fill="#18c08b"/></g><g><g><path d="m336.13 51.15c-4.859-19.742-19.677-35.491-39.053-41.507l-7.734-2.401h-53.92v72.883c4.452-.21 8.98-.294 13.591-.244 36.605-.4 80.15 19.35 103.345 36.417-2.003-8.132-14.902-59.756-16.229-65.148z" fill="#ff8e9e"/><path d="m265.854 2.592c-5.808-1.15-11.51-2.617-17.362-2.592-5.853-.025-11.708.836-17.362 2.592l-30.18 7.051c-19.376 6.016-34.194 21.765-39.053 41.507-1.21 4.917-11.64 47.287-16.037 65.147 24.729-18.453 57.301-34.65 89.563-36.172 3.29-13.364 6.382-25.927 7.132-28.974 4.858-19.742 19.677-35.491 39.053-41.507l7.734-2.401z" fill="#ea5b70"/></g><path d="m161.213 37.034c-59.514 5.048-55.384 63.914-15.353 79.263 31.889-17.484 65.888-25.798 103.345-25.419 37.47-.364 71.263 7.935 103.153 25.419-33.376-34.997-115.227-85.702-191.145-79.263z" fill="#676fb2"/></g><g fill="#313d40"><path d="m227.547 264.5c-4.143 0-7.5 3.358-7.5 7.5v12c0 4.142 3.357 7.5 7.5 7.5s7.5-3.358 7.5-7.5v-12c0-4.142-3.358-7.5-7.5-7.5z"/><path d="m320.444 264.5c-4.143 0-7.5 3.358-7.5 7.5v12c0 4.142 3.357 7.5 7.5 7.5s7.5-3.358 7.5-7.5v-12c0-4.142-3.357-7.5-7.5-7.5z"/><path d="m295.386 277.988c-3.123-2.721-7.86-2.396-10.581.727-2.729 3.132-6.669 4.928-10.81 4.928s-8.081-1.796-10.81-4.928c-2.721-3.123-7.459-3.448-10.581-.727-3.123 2.721-3.449 7.458-.728 10.582 5.578 6.402 13.64 10.073 22.118 10.073s16.54-3.671 22.118-10.073c2.724-3.123 2.397-7.86-.726-10.582z"/></g></g></svg>