<svg id="Capa_1" enable-background="new 0 0 496.962 496.962" height="512" viewBox="0 0 496.962 496.962" width="512" xmlns="http://www.w3.org/2000/svg"><g><path d="m240.688 139.771h-.937v-15.53h87.517c34.142 0 62.6-27.159 63.041-61.298.448-34.686-27.533-62.943-62.116-62.943h-60.563c-43.085 0-78.014 34.928-78.014 78.013v137.088l76.288 49.537c18.194 11.814 29.172 32.033 29.172 53.726 0 29.971-24.399 54.355-54.389 54.355l-51.071 37.006v50.229l51.071 37.006c98.499 0 178.63-80.117 178.63-178.597.001-98.475-80.131-178.592-178.629-178.592z" fill="#ff8f71"/><path d="m240.688 372.721c-19.364 0-37.43-10.431-47.151-27.223-17.189-29.692-55.196-39.826-84.885-22.637-29.692 17.189-39.826 55.193-22.637 84.885 31.858 55.032 91.124 89.216 154.674 89.216-34.31-34.308-34.31-89.933-.001-124.241z" fill="#ff6f4d"/><path d="m231.998 198.438c-15.741-4.781-26.489-19.313-26.489-35.764v-100.553c0-34.309 27.812-62.121 62.121-62.121h-90c-34.308 0-62.121 27.812-62.121 62.121 0 147.27-.418 140.497-.418 140.497.388 34.169 28.824 61.395 62.994 61.395h62.602c29.99 0 54.389 24.381 54.389 54.353v-34.783c.001-40.154-26.589-74.062-63.078-85.145z" fill="#ff6f4d"/><g fill="#313d40"><path d="m188.565 38.253c-4.143 0-7.5 3.358-7.5 7.5v12c0 4.142 3.357 7.5 7.5 7.5s7.5-3.358 7.5-7.5v-12c0-4.142-3.357-7.5-7.5-7.5z"/><path d="m313.462 38.253c-4.143 0-7.5 3.358-7.5 7.5v12c0 4.142 3.357 7.5 7.5 7.5s7.5-3.358 7.5-7.5v-12c0-4.142-3.357-7.5-7.5-7.5z"/></g><g><g><path d="m270.512 68.48h-39c-10.77 0-19.5 8.051-19.5 26 0 20.211 11.019 42.254 23.151 38.423 3.539 8.218 9.317 13.577 15.849 13.577s12.31-5.359 15.849-13.577c12.131 3.831 23.151-18.211 23.151-38.423 0-17.949-8.73-26-19.5-26z" fill="#ffce71"/><path d="m305.526 86.028c-1.472-5.677-3.612-11.181-6.383-16.366-6.688-12.513-18.703-21.232-32.964-23.92-6.069-1.144-11.967 1.576-15.166 6.426-3.2-4.849-9.099-7.569-15.167-6.426-14.261 2.688-26.275 11.407-32.963 23.92-2.77 5.184-4.91 10.689-6.383 16.366-2.448 9.439 4.621 18.662 14.372 18.662 6.719 0 12.692-4.487 14.349-10.998.885-3.477 2.186-6.847 3.881-10.018 2.385-4.464 6.965-7.723 12.252-8.72 4.125-.778 7.52-3.222 9.658-6.473 2.138 3.251 5.533 5.695 9.658 6.473 5.287.997 9.868 4.257 12.253 8.719 1.694 3.172 2.996 6.543 3.881 10.019 1.657 6.511 7.63 10.998 14.349 10.998 9.752 0 16.821-9.224 14.373-18.662z" fill="#fce3a0"/></g></g></g></svg>