<svg id="Capa_1" enable-background="new 0 0 497 497" height="512" viewBox="0 0 497 497" width="512" xmlns="http://www.w3.org/2000/svg"><g><g><g><path d="m269.829 141.074h-70.811v154.759c8.836-19.313 28.261-31.792 49.482-31.792 29.972 0 54.357 24.385 54.357 54.357s-24.385 54.357-54.357 54.357l-85.734 62.122 85.734 62.123c98.483 0 178.602-80.119 178.602-178.602 0-91.266-68.809-166.749-157.273-177.324z" fill="#ff8e9e"/><path d="m263.476 5.653c-31.204-14.287-68.062-.555-82.337 30.643l-95.092 207.823c-.004.009-.008.017-.012.026-10.708 23.408-16.137 48.391-16.137 74.253 0 98.483 80.119 178.602 178.602 178.602-17.155-17.155-25.732-39.639-25.732-62.123s8.577-44.968 25.732-62.122c-29.972 0-54.357-24.385-54.357-54.357 0-7.902 1.641-15.494 4.875-22.565l70.811-154.759 24.289-53.085c14.275-31.197.555-68.062-30.642-82.336z" fill="#ea5b70"/></g><g><g><g><ellipse cx="168.472" cy="224.825" fill="#ffdbe0" rx="23.515" ry="29.529" transform="matrix(.002 -1 1 .002 -56.722 392.804)"/></g><g><ellipse cx="328.528" cy="225.175" fill="#ffdbe0" rx="23.515" ry="29.529" transform="matrix(.002 -1 1 .002 102.634 553.209)"/></g></g></g><g fill="#313d40"><path d="m175.965 187.81c-4.143 0-7.5 3.357-7.5 7.5v12c0 4.143 3.357 7.5 7.5 7.5s7.5-3.357 7.5-7.5v-12c0-4.143-3.358-7.5-7.5-7.5z"/><path d="m320.862 187.81c-4.143 0-7.5 3.357-7.5 7.5v12c0 4.143 3.357 7.5 7.5 7.5s7.5-3.357 7.5-7.5v-12c0-4.143-3.357-7.5-7.5-7.5z"/></g></g><g><path d="m283.499 212.903c-10.867-11.379-27.363-12.811-34.999-2.116-7.636-10.695-24.132-9.263-34.999 2.116-11.522 12.083-20.509 23.375-17.004 29.442 3.502 6.07 17.772 3.928 34-.005 8.064-1.963 14.507-6.67 18.004-12.432 3.497 5.762 9.94 10.469 18.004 12.432 16.227 3.933 30.498 6.075 34 .005 3.503-6.067-5.484-17.359-17.006-29.442z" fill="#4c5699"/></g></g></svg>