<svg id="Capa_1" enable-background="new 0 0 496.98 496.98" height="512" viewBox="0 0 496.98 496.98" width="512" xmlns="http://www.w3.org/2000/svg"><g><g><path d="m424.643 51.876c-1.004-5.15-5.042-9.188-10.192-10.192-16.27-3.171-33.774 1.54-46.382 14.148-12.37 12.37-17.385 29.773-14.148 46.382 1.004 5.15 5.042 9.188 10.192 10.192 16.27 3.171 33.774-1.54 46.382-14.148s17.319-30.112 14.148-46.382z" fill="#d4d4ff"/><path d="m422.113 172.951c5.654-1.102 10.088-5.535 11.19-11.19 3.482-17.862-1.69-37.08-15.533-50.922s-33.06-19.014-50.922-15.533c-5.654 1.102-10.088 5.535-11.19 11.19-3.482 17.862 1.69 37.08 15.533 50.922 13.842 13.842 33.059 19.014 50.922 15.533z" fill="#9ea2e3"/></g><g><path d="m289.131 60.483v38.059c38.811 0 69.855 28.211 61.846 60.25l17.328 13.5 21.826-13.5c0-55.973-45.22-98.309-101-98.309z" fill="#d4d4ff"/><path d="m188.131 161.831h23.538l16.202-22.877c4.353-17.415 19.286-33.207 44.886-38.693 3.56-13.446 8.001-26.717 13.323-39.728-54.369 1.62-97.949 46.35-97.949 101.298z" fill="#9ea2e3"/></g><g><g><path d="m343.014 8.847c-21.738 0-26.57 0-48.795 0l-102.737 410.947v68.34h58.363c13.653-8.177 24.186-21.563 28.352-38.223l88.651-354.604 4.53-18.12c6.543-26.181-4.533-54.071-28.364-68.34z" fill="#e8b5b1"/><path d="m232.787 473.091c-11.775-15.078-15.943-34.74-11.305-53.297l93.181-372.724c4.166-16.66 14.698-30.046 28.351-38.223-9.526-5.705-20.519-8.847-31.904-8.847h-186.362c-34.308 0-62.12 27.812-62.12 62.121s27.812 62.121 62.121 62.121h106.8l-73.887 295.537c-8.32 33.283 11.917 67.01 45.201 75.333 5.06 1.262 10.125 1.869 15.112 1.869 11.407 0 22.391-3.169 31.87-8.847-6.482-3.882-12.291-8.938-17.058-15.043z" fill="#d6948c"/></g><g fill="#ffdbe0"><ellipse cx="138.122" cy="66.893" rx="29.816" ry="23.744"/><ellipse cx="299.738" cy="66.893" rx="29.816" ry="23.744"/></g><g fill="#313d40"><path d="m156.408 37.727c-11.726 0-21.265 9.54-21.265 21.266 0 4.143 3.357 7.5 7.5 7.5s7.5-3.357 7.5-7.5c0-3.455 2.811-6.266 6.265-6.266s6.265 2.811 6.265 6.266c0 4.143 3.357 7.5 7.5 7.5s7.5-3.357 7.5-7.5c-.001-11.726-9.54-21.266-21.265-21.266z"/><path d="m279.452 37.727c-11.726 0-21.265 9.54-21.265 21.266 0 4.143 3.357 7.5 7.5 7.5s7.5-3.357 7.5-7.5c0-3.455 2.811-6.266 6.265-6.266s6.265 2.811 6.265 6.266c0 4.143 3.357 7.5 7.5 7.5s7.5-3.357 7.5-7.5c0-11.726-9.539-21.266-21.265-21.266z"/><path d="m246.841 63.308c-4.143 0-7.5 3.357-7.5 7.5 0 3.835-3.12 6.955-6.956 6.955-3.835 0-6.955-3.12-6.955-6.955 0-4.143-3.357-7.5-7.5-7.5s-7.5 3.357-7.5 7.5c0 3.835-3.12 6.955-6.956 6.955-3.835 0-6.955-3.12-6.955-6.955 0-4.143-3.357-7.5-7.5-7.5s-7.5 3.357-7.5 7.5c0 18.831 22.276 28.898 36.411 16.504 14.123 12.384 36.412 2.338 36.412-16.504-.001-4.143-3.358-7.5-7.501-7.5z"/></g></g><g><path d="m350.976 158.792c-6.558 26.232-38.764 45.354-74.189 39.783l-14.608 6v90.751l26.952 17.657c1.449 0 2.896-.1 4.336-.279 3.239-.404 6.429-1.262 9.469-2.572 5.17-2.228 9.903-5.756 13.673-10.607 29.908-38.485 73.521-103.952 73.521-140.734h-39.154z" fill="#d4d4ff"/><path d="m284.795 302.581c-3.579-9.02-6.732-18.161-9.469-27.394-4.911-16.568-8.462-33.433-10.662-50.433-1.346-10.401 3.206-20.659 12.123-26.179-33.186-5.125-56.282-30.16-48.916-59.621l-39.74 22.877c0 36.782 43.614 99.209 73.522 137.695 3.77 4.851 8.503 8.379 13.673 10.607 3.04 1.31 6.229 2.168 9.469 2.572 1.439.178 2.887.279 4.336.279-1.509-3.449-2.953-6.917-4.336-10.403z" fill="#9ea2e3"/></g></g></svg>