<svg id="Capa_1" enable-background="new 0 0 496.992 496.992" height="512" viewBox="0 0 496.992 496.992" width="512" xmlns="http://www.w3.org/2000/svg"><g><g><path d="m248.496 273.595c-25.359 0-45.99-20.632-45.99-45.99 0-25.359 20.631-45.99 45.99-45.99v-105.121c-83.324 0-151.111 67.787-151.111 151.11 0 77.217 58.218 141.081 133.065 150.029h59.911v-130.936c-7.475 16.34-23.91 26.898-41.865 26.898z" fill="#ff6f4d"/><path d="m248.496 76.494c.002.002-.002.004 0 .005v-.004c-14.514 14.514-21.771 33.537-21.771 52.56s7.257 38.046 21.771 52.56v-.002c25.357.001 45.99 20.632 45.99 45.99 0 6.685-1.388 13.109-4.125 19.092l-59.911 130.937-20.55 44.915c-12.078 26.396-.469 57.585 25.926 69.663 26.401 12.088 57.585.47 69.663-25.926l80.455-175.834c.003-.007.007-.014.01-.022 9.059-19.805 13.653-40.942 13.653-62.823 0-83.324-67.787-151.111-151.111-151.111z" fill="#ff8f71"/></g><g fill="#ffdbe0"><path d="m173.295 290.687c-13.807 0-25 8.914-25 19.909s11.193 19.909 25 19.909 25-8.914 25-19.909c0-10.996-11.193-19.909-25-19.909z"/><path d="m323.698 290.687c-13.807 0-25 8.914-25 19.908 0 10.995 11.193 19.909 25 19.909s25-8.914 25-19.909-11.193-19.908-25-19.908z"/></g><g fill="#313d40"><path d="m185.961 276.31c-4.143 0-7.5 3.357-7.5 7.5v12c0 4.143 3.357 7.5 7.5 7.5s7.5-3.357 7.5-7.5v-12c0-4.143-3.357-7.5-7.5-7.5z"/><path d="m310.858 276.31c-4.143 0-7.5 3.357-7.5 7.5v12c0 4.143 3.357 7.5 7.5 7.5s7.5-3.357 7.5-7.5v-12c0-4.143-3.357-7.5-7.5-7.5z"/><path d="m277.503 295.465c-4.143 0-7.5 3.357-7.5 7.5 0 3.835-3.12 6.955-6.955 6.955-3.836 0-6.956-3.12-6.956-6.955 0-4.143-3.357-7.5-7.5-7.5s-7.5 3.357-7.5 7.5c0 3.835-3.12 6.955-6.955 6.955-3.836 0-6.956-3.12-6.956-6.955 0-4.143-3.357-7.5-7.5-7.5s-7.5 3.357-7.5 7.5c0 12.106 9.85 21.955 21.956 21.955 5.533 0 10.59-2.062 14.456-5.451 3.865 3.389 8.923 5.451 14.456 5.451 12.106 0 21.955-9.849 21.955-21.955-.001-4.143-3.359-7.5-7.501-7.5z"/></g><g><g><path d="m239.691 131.67c2.869.109 5.75.164 8.642.164 30.023 0 59.459-5.809 87.054-17.002.367-14.06 1.311-28.092 2.828-42.063 1.419-13.068 3.333-26.083 5.753-39.014 1.719-9.184-3.682-18.222-12.593-21.033-26.969-8.505-54.94-12.737-82.909-12.722-2.234.001-4.469.039-6.702.095l-23.944 8.02v110.103z" fill="#8288cb"/><path d="m227.165 31.854c-2.401-12.828 3.694-25.475 14.598-31.759-25.715.637-51.363 4.854-76.181 12.648-8.922 2.802-14.334 11.846-12.614 21.039 2.427 12.971 4.345 26.027 5.765 39.136 1.508 13.93 2.447 27.922 2.812 41.94 24.362 9.816 50.698 15.773 78.146 16.812-.78-11.957-1.808-23.894-3.098-35.804-2.321-21.442-5.458-42.796-9.428-64.012z" fill="#676fb2"/></g><path d="m248.333 151.667c-39.031 0-77.064-9.194-111.932-26.334-12.949-6.366-16.191-23.743-5.709-34.227 6.704-6.702 16.638-7.971 24.557-4.012 28.966 14.476 60.283 21.816 93.084 21.816 32.865 0 64.236-7.366 93.241-21.896 7.881-3.946 17.842-2.743 24.596 4.009 10.409 10.411 7.34 27.771-5.635 34.217-34.277 17.041-72.401 26.427-112.202 26.427z" fill="#676fb2"/></g></g></svg>