<svg id="Capa_1" enable-background="new 0 0 497 497" height="512" viewBox="0 0 497 497" width="512" xmlns="http://www.w3.org/2000/svg"><g><g><path d="m248.5 0-85.733 62.125 85.733 62.126c34.254 0 62.121 27.868 62.121 62.125v124.248c0 34.257-27.866 62.125-62.121 62.125l-85.733 62.125 85.733 62.126c102.76 0 186.362-83.608 186.362-186.376v-124.248c0-102.768-83.602-186.376-186.362-186.376z" fill="#ff8e9e"/><path d="m248.5 372.749c-34.254 0-62.121-27.868-62.121-62.125v-124.248c0-34.257 27.866-62.125 62.121-62.125-34.311-34.312-34.311-89.94 0-124.251-102.76 0-186.362 83.608-186.362 186.376v124.248c0 102.768 83.602 186.376 186.362 186.376-34.311-34.311-34.311-89.939 0-124.251z" fill="#ea5b70"/></g><g><g><g><ellipse cx="168.943" cy="109.758" fill="#ffdbe0" rx="29.355" ry="23.377"/></g><g><ellipse cx="328.057" cy="109.758" fill="#ffdbe0" rx="29.355" ry="23.377"/></g></g></g><g fill="#4c5699"><path d="m200.205 49.582h-24.568c-10.321 0-18.015 9.518-15.851 19.61l1.361 6.346c2.287 10.665 11.713 18.285 22.621 18.285h8.307c10.908 0 20.334-7.619 22.621-18.285l1.361-6.346c2.162-10.093-5.531-19.61-15.852-19.61z"/><path d="m299.464 49.582h24.568c10.322 0 18.015 9.518 15.851 19.61l-1.361 6.346c-2.287 10.665-11.713 18.285-22.621 18.285h-8.307c-10.908 0-20.334-7.619-22.621-18.285l-1.361-6.346c-2.163-10.093 5.53-19.61 15.852-19.61z"/></g><path d="m269.891 81.243c-3.123-2.721-7.86-2.396-10.581.728-5.726 6.57-15.899 6.563-21.62-.001-2.723-3.124-7.46-3.447-10.582-.727-3.123 2.722-3.447 7.46-.727 10.582 11.728 13.454 32.57 13.391 44.237-.001 2.722-3.122 2.396-7.86-.727-10.581z" fill="#313d40"/><path d="m324.032 42.082h-24.568c-5.39 0-10.513 1.801-14.646 5.057-8.928-1.133-20.553-2.254-34.984-2.254-14.43 0-26.055 1.121-34.983 2.254-4.133-3.255-9.256-5.057-14.646-5.057h-24.569c-15.113 0-26.346 13.936-23.184 28.683l1.361 6.345c3.007 14.029 15.604 24.212 29.953 24.212h8.308c14.348 0 26.945-10.183 29.953-24.211l1.361-6.347c.684-3.188.696-6.418.091-9.519 7.328-.756 16.097-1.36 26.354-1.36s19.027.604 26.355 1.36c-.604 3.101-.592 6.331.091 9.519l1.36 6.346c3.008 14.029 15.605 24.212 29.954 24.212h8.307c14.349 0 26.946-10.183 29.954-24.212l1.36-6.346c3.171-14.777-8.101-28.682-23.182-28.682zm-115.309 25.536-1.361 6.347c-1.536 7.16-7.965 12.356-15.287 12.356h-8.308c-7.323 0-13.752-5.196-15.287-12.357l-1.361-6.345c-1.163-5.429 2.977-10.537 8.518-10.537h24.569c5.543 0 9.673 5.139 8.517 10.536zm123.827.001-1.36 6.346c-1.536 7.16-7.965 12.356-15.288 12.356h-8.307c-7.323 0-13.752-5.196-15.288-12.356l-1.36-6.346c-1.151-5.373 2.954-10.537 8.518-10.537h24.568c5.55 0 9.678 5.118 8.517 10.537z" fill="#d4d4ff"/></g></svg>