<svg id="Capa_1" enable-background="new 0 0 497 497" height="512" viewBox="0 0 497 497" width="512" xmlns="http://www.w3.org/2000/svg"><g><g><g><path d="m346.999 48.485-69.006 50.004 69.006 50.005c27.571 0 50 22.431 50 50.004v100.006c0 27.573-22.429 50.004-50 50.004l-69.006 50.004 69.006 50.004c82.711 0 150.001-67.296 150.001-150.013v-100.006c0-82.717-67.29-150.012-150.001-150.012z" fill="#b28ae4"/><path d="m346.999 348.507c-27.571 0-50-22.431-50-50.004v-100.006c0-27.573 22.429-50.004 50-50.004-27.617-27.617-27.617-72.392 0-100.009-82.71 0-150.001 67.296-150.001 150.012v100.006c0 82.717 67.291 150.012 150.001 150.012-27.617-27.615-27.617-72.39 0-100.007z" fill="#976bcf"/></g><g><path d="m148.273 61.201h-60.274v333.699l48.683 48.683c16.755-8.076 28.317-25.221 28.317-45.066v-299.999c0-14.519-6.28-28.001-16.726-37.317z" fill="#b28ae4"/><path d="m114.999 132.278c0-28.564 12.944-54.093 33.274-71.077-4.187-3.735-9.041-6.803-14.431-8.996-18.845-7.668-40.447-3.154-54.641 11.409l-65 66.665c-19.28 19.771-18.879 51.425.894 70.705 13.635 13.298 32.927 17.233 49.905 11.906v185.626c0 27.614 22.385 50 50 50 7.769 0 15.124-1.772 21.683-4.933-13.525-16.096-21.683-36.853-21.683-59.522v-251.783z" fill="#976bcf"/></g></g><g fill="#ff8e9e"><path d="m266.693 112.879c-16.212 0-29.355 10.466-29.355 23.376s13.143 23.376 29.355 23.376 29.354-10.466 29.354-23.376-13.142-23.376-29.354-23.376z"/><path d="m425.806 112.879c-16.212 0-29.355 10.466-29.355 23.376s13.143 23.376 29.355 23.376 29.354-10.466 29.354-23.376-13.142-23.376-29.354-23.376z"/></g><g fill="#313d40"><path d="m283.801 94.252c-4.143 0-7.5 3.357-7.5 7.5v12c0 4.143 3.357 7.5 7.5 7.5s7.5-3.357 7.5-7.5v-12c0-4.143-3.358-7.5-7.5-7.5z"/><path d="m408.698 94.252c-4.143 0-7.5 3.357-7.5 7.5v12c0 4.143 3.357 7.5 7.5 7.5s7.5-3.357 7.5-7.5v-12c0-4.143-3.357-7.5-7.5-7.5z"/><path d="m367.642 107.74c-3.123-2.721-7.859-2.396-10.582.727-2.729 3.132-6.67 4.929-10.811 4.929s-8.08-1.796-10.81-4.928c-2.721-3.124-7.459-3.448-10.581-.728-3.123 2.721-3.449 7.459-.728 10.581 5.578 6.402 13.641 10.074 22.118 10.074s16.539-3.672 22.119-10.073c2.722-3.122 2.398-7.86-.725-10.582z"/></g></g></svg>