<svg id="Capa_1" enable-background="new 0 0 497 497" height="512" viewBox="0 0 497 497" width="512" xmlns="http://www.w3.org/2000/svg"><g><g><path d="m359.069 276.429c-10.968 0-17.845-5.939-20.967-9.479l-96.705-109.656c-26.184-29.69-63.896-46.72-103.469-46.722-76.053-.001-137.928 61.874-137.928 137.928s61.875 137.929 137.929 137.929l45-55-45-55c-15.4 0-27.929-12.528-27.929-27.929s12.528-27.929 27.927-27.929c10.973 0 17.849 5.939 20.971 9.479l96.706 109.657c26.188 29.693 63.901 46.723 103.47 46.721l44.998-55.002z" fill="#9ea2e3"/><path d="m359.069 110.571c-39.57.002-77.283 17.031-103.467 46.722l-96.705 109.655c-3.122 3.541-10 9.481-20.969 9.48-30.357 30.356-30.396 79.606-.002 110 38.931 0 76.862-16.551 103.471-46.722l96.705-109.656c3.085-3.499 9.838-9.341 20.586-9.478 13.489-.171 25.412 9.425 27.834 22.696 3.229 17.689-10.338 33.159-27.451 33.159l-.207.211c-30.146 30.647-29.431 80.021 1.591 109.782 75.419-.743 136.545-62.328 136.545-137.92 0-76.054-61.875-137.929-137.931-137.929z" fill="#d4d4ff"/></g><g><g><g><ellipse cx="202.245" cy="314.755" fill="#ff8e9e" rx="29.355" ry="23.377" transform="matrix(.707 -.707 .707 .707 -163.33 235.2)"/></g><g><ellipse cx="314.755" cy="202.245" fill="#ff8e9e" rx="29.355" ry="23.377" transform="matrix(.707 -.707 .707 .707 -50.82 281.8)"/></g></g></g><g fill="#313d40"><path d="m195.248 272.957c-2.93-2.928-7.678-2.928-10.607 0-2.929 2.93-2.929 7.678 0 10.607l8.485 8.485c1.465 1.464 3.385 2.196 5.304 2.196s3.839-.732 5.304-2.196c2.929-2.93 2.929-7.678 0-10.607z"/><path d="m292.05 193.126-8.485-8.485c-2.93-2.928-7.678-2.928-10.607 0-2.929 2.93-2.929 7.678 0 10.607l8.485 8.485c1.465 1.464 3.385 2.196 5.304 2.196s3.839-.732 5.304-2.196c2.928-2.929 2.928-7.677-.001-10.607z"/><path d="m253.464 223.211c-4.132.283-7.252 3.863-6.969 7.996.284 4.145-1.231 8.201-4.16 11.129-2.928 2.929-6.988 4.437-11.128 4.159-4.142-.286-7.713 2.836-7.996 6.969s2.837 7.713 6.969 7.996c.674.046 1.347.069 2.017.069 7.761 0 15.229-3.069 20.745-8.587 5.995-5.993 9.1-14.29 8.519-22.763-.284-4.131-3.874-7.242-7.997-6.968z"/></g></g></svg>