<svg id="Capa_1" enable-background="new 0 0 497 497" height="512" viewBox="0 0 497 497" width="512" xmlns="http://www.w3.org/2000/svg"><g><g><path d="m153.069 457.002 104.254-389.079c7.711-28.779-9.367-58.36-38.146-66.071s-58.36 9.367-66.071 38.146c-2.589 9.663-100.391 374.663-104.254 389.079-7.711 28.779 9.368 58.36 38.146 66.071 28.779 7.712 58.36-9.367 66.071-38.146z" fill="#b28ae4"/></g><g><path d="m343.895 457.002 104.253-389.079c7.711-28.779-9.367-58.36-38.146-66.071s-58.36 9.367-66.071 38.146c-2.589 9.663-100.391 374.663-104.254 389.079-7.711 28.779 9.368 58.36 38.146 66.071 28.78 7.712 58.36-9.367 66.072-38.146z" fill="#b28ae4"/></g><g><path d="m443.053 91.312h-164.682l-62.344 53.458 62.344 54.436h164.682c29.794 0 53.947-24.153 53.947-53.947 0-29.795-24.153-53.947-53.947-53.947z" fill="#c9aaf2"/><path d="m278.371 91.312h-175.231c-29.794 0-53.947 24.152-53.947 53.947 0 29.793 24.153 53.947 53.947 53.947h175.231c-29.794-29.794-29.794-78.101 0-107.894z" fill="#b28ae4"/></g><g><path d="m393.86 297.795h-174.682l-62.346 53.947 62.346 53.947h174.682c29.794 0 53.947-24.153 53.947-53.947 0-29.795-24.153-53.947-53.947-53.947z" fill="#c9aaf2"/><path d="m219.178 297.794h-165.231c-29.794 0-53.947 24.153-53.947 53.947s24.153 53.947 53.947 53.947h165.231c-29.794-29.793-29.794-78.1 0-107.894z" fill="#b28ae4"/></g><g><g><g><g><ellipse cx="191.204" cy="163.126" fill="#ff8e9e" rx="29.355" ry="23.377"/></g><g><ellipse cx="350.317" cy="163.126" fill="#ff8e9e" rx="29.355" ry="23.377"/></g></g></g></g><g fill="#313d40"><path d="m208.312 121.123c-4.143 0-7.5 3.357-7.5 7.5v12c0 4.143 3.357 7.5 7.5 7.5s7.5-3.357 7.5-7.5v-12c0-4.143-3.358-7.5-7.5-7.5z"/><path d="m333.209 121.123c-4.143 0-7.5 3.357-7.5 7.5v12c0 4.143 3.357 7.5 7.5 7.5s7.5-3.357 7.5-7.5v-12c0-4.143-3.357-7.5-7.5-7.5z"/><path d="m292.151 134.611c-3.123-2.722-7.86-2.396-10.581.728-5.726 6.57-15.899 6.563-21.62-.001-2.723-3.124-7.46-3.447-10.582-.727-3.123 2.722-3.447 7.46-.727 10.582 11.728 13.454 32.569 13.391 44.237-.001 2.723-3.122 2.396-7.86-.727-10.581z"/></g></g></svg>