<svg id="Capa_1" enable-background="new 0 0 497 497" height="512" viewBox="0 0 497 497" width="512" xmlns="http://www.w3.org/2000/svg"><g><g><path d="m497 248.5c0-33.331-27.02-60.351-60.35-60.351h-42.451l30.017-30.017c23.568-23.568 23.569-61.78 0-85.348-23.568-23.568-61.78-23.568-85.348 0-1.593 1.593-13.094 13.094-30.017 30.017l-145.699 145.699 145.699 145.699c15.118 15.118 26.753 26.753 30.017 30.018 23.568 23.568 61.78 23.568 85.348 0 23.569-23.568 23.568-61.78 0-85.348l-30.018-30.017h42.451c33.331-.001 60.351-27.022 60.351-60.352z" fill="#ff8f71"/><path d="m308.851 102.801v-42.45c0-33.331-27.02-60.351-60.351-60.351-33.33 0-60.351 27.02-60.351 60.351v42.451l-30.017-30.017c-23.568-23.568-61.78-23.569-85.348 0-23.568 23.568-23.568 61.78 0 85.348 1.593 1.593 13.094 13.094 30.017 30.017h-42.451c-33.33-.001-60.35 27.019-60.35 60.35 0 33.33 27.02 60.351 60.35 60.351h42.451c-15.118 15.118-26.753 26.753-30.017 30.017-23.568 23.568-23.568 61.78 0 85.348 23.569 23.569 61.78 23.568 85.348 0l30.017-30.018v42.451c0 33.331 27.021 60.35 60.351 60.35 33.331 0 60.351-27.02 60.351-60.35v-42.451c-80.468-80.467-80.468-210.929 0-291.397z" fill="#ff6f4d"/></g><g fill="#ffdbe0"><ellipse cx="167.692" cy="259.961" rx="29.816" ry="23.744"/><ellipse cx="329.307" cy="259.961" rx="29.816" ry="23.744"/></g><g fill="#313d40"><path d="m277.411 231.375c-4.143 0-7.5 3.357-7.5 7.5 0 3.836-3.12 6.956-6.956 6.956-3.835 0-6.955-3.12-6.955-6.956 0-4.143-3.357-7.5-7.5-7.5s-7.5 3.357-7.5 7.5c0 3.836-3.12 6.956-6.956 6.956-3.835 0-6.955-3.12-6.955-6.956 0-4.143-3.357-7.5-7.5-7.5s-7.5 3.357-7.5 7.5c0 12.106 9.849 21.956 21.955 21.956 5.533 0 10.59-2.062 14.456-5.451 3.865 3.39 8.923 5.451 14.456 5.451 12.106 0 21.956-9.85 21.956-21.956-.001-4.143-3.358-7.5-7.501-7.5z"/><path d="m186.978 205.795c-11.726 0-21.265 9.539-21.265 21.265 0 4.143 3.357 7.5 7.5 7.5s7.5-3.357 7.5-7.5c0-3.454 2.811-6.265 6.265-6.265s6.265 2.811 6.265 6.265c0 4.143 3.357 7.5 7.5 7.5s7.5-3.357 7.5-7.5c-.001-11.726-9.54-21.265-21.265-21.265z"/><path d="m310.022 205.795c-11.726 0-21.265 9.539-21.265 21.265 0 4.143 3.357 7.5 7.5 7.5s7.5-3.357 7.5-7.5c0-3.454 2.811-6.265 6.265-6.265s6.265 2.811 6.265 6.265c0 4.143 3.357 7.5 7.5 7.5s7.5-3.357 7.5-7.5c0-11.726-9.539-21.265-21.265-21.265z"/></g></g></svg>