<svg id="Capa_1" enable-background="new 0 0 497 497" height="512" viewBox="0 0 497 497" width="512" xmlns="http://www.w3.org/2000/svg"><g><g><path d="m312.14 343.356c-15.962-15.963-36.428-24.677-57.307-26.141l-96.333 89.785 96.333 89.785c20.879-1.464 41.345-10.177 57.307-26.141 17.574-17.575 26.36-40.61 26.36-63.644 0-23.035-8.787-46.069-26.36-63.644z" fill="#e8b5b1"/><path d="m215.773 407c0-33.08 13.284-65.737 39.06-89.785-2.108-.148-4.221-.215-6.333-.215-49.686 0-90 40.249-90 90 0 49.686 40.247 90 90 90 2.112 0 4.225-.067 6.333-.215-25.018-23.341-39.06-55.664-39.06-89.785z" fill="#d6948c"/></g><g fill="#ffdbe0"><path d="m194.091 394.559c-12.426 0-22.5 8.022-22.5 17.918s10.074 17.917 22.5 17.917 22.5-8.022 22.5-17.917c0-9.896-10.073-17.918-22.5-17.918z"/><path d="m302.909 394.559c-12.426 0-22.5 8.022-22.5 17.918s10.074 17.917 22.5 17.917 22.5-8.021 22.5-17.917-10.074-17.918-22.5-17.918z"/></g><g><path d="m283.5 8.03h-57.511v266h57.511c9.241-7.942 15.754-18.968 17.933-31.485l25.88-148.736c6.357-36.525-12.967-70.74-43.813-85.779z" fill="#e8b5b1"/><path d="m265.567 242.545-25.88-148.736c-6.364-36.563 12.981-70.75 43.813-85.779-10.515-5.127-22.367-8.03-35-8.03-49.646 0-87.347 44.772-78.813 93.809l25.88 148.736c4.395 25.254 26.422 44.455 52.933 44.455 13.371 0 25.597-4.889 35-12.97-9.241-7.942-15.754-18.967-17.933-31.485z" fill="#d6948c"/></g><ellipse cx="248.5" cy="408.267" fill="#4c5699" rx="16.423" ry="18.377"/><g fill="#313d40"><path d="m199.825 377.966c-4.143 0-7.5 3.357-7.5 7.5v12c0 4.143 3.357 7.5 7.5 7.5s7.5-3.357 7.5-7.5v-12c0-4.143-3.357-7.5-7.5-7.5z"/><path d="m297.175 377.966c-4.143 0-7.5 3.357-7.5 7.5v12c0 4.143 3.357 7.5 7.5 7.5s7.5-3.357 7.5-7.5v-12c0-4.143-3.358-7.5-7.5-7.5z"/></g></g></svg>