<svg id="Capa_1" enable-background="new 0 0 497 497" height="512" viewBox="0 0 497 497" width="512" xmlns="http://www.w3.org/2000/svg"><g><g><path d="m437 248.5h-8.5-15.524c-57.7 0-104.476 46.775-104.476 104.476v39.549c0 57.7 46.775 104.476 104.476 104.476h15.524 8.5c33.137 0 60-26.863 60-60v-128.501c0-33.137-26.863-60-60-60z" fill="#ff8e9e"/><path d="m369.619 448.531c3.014.6 6.129.92 9.32.92 26.208 0 47.455-21.246 47.455-47.455s-21.247-47.455-47.455-47.455c-3.588 0-7.079.411-10.439 1.166v-47.207c0-33.137 26.863-60 60-60h-120c-33.137 0-60 26.863-60 60v128.5c0 33.137 26.863 60 60 60h120c-29.191 0-53.503-20.851-58.881-48.469z" fill="#ea5b70"/></g><g><path d="m312.75 0h-8.5-12.333c-59.463 0-107.667 48.204-107.667 107.667v33.166c0 59.463 48.204 107.667 107.667 107.667h12.333 8.5c33.137 0 60-26.863 60-60v-128.5c0-33.137-26.863-60-60-60z" fill="#ffce71"/><path d="m244.25 188.5v-5.923h30.79l-25.048-66.796c-.897-2.394-3.186-3.979-5.742-3.979v-51.802c0-33.137 26.863-60 60-60h-120c-33.137 0-60 26.863-60 60v128.5c0 33.137 26.863 60 60 60h120c-33.137 0-60-26.863-60-60z" fill="#ffb357"/></g><path d="m302.278 198.25-34.802-92.806c-2.967-7.91-10.528-13.15-18.977-13.15s-16.01 5.24-18.977 13.15l-34.802 92.806c-2.993 7.981 1.255 16.905 9.464 19.551 7.688 2.477 15.939-1.852 18.775-9.414l2.179-5.81h46.721l2.179 5.81c2.836 7.563 11.088 11.891 18.775 9.414 8.21-2.646 12.458-11.57 9.465-19.551zm-65.888-25.673 12.11-32.295 12.11 32.295z" fill="#fff1d4"/><g><path d="m188.5 248.5h-8.5-24.25c-52.881 0-95.75 42.869-95.75 95.75v57c0 52.881 42.869 95.75 95.75 95.75h24.25 8.5c33.137 0 60-26.863 60-60v-128.5c0-33.137-26.863-60-60-60z" fill="#55dafe"/><path d="m121.891 452 26.359-30v-50l-28.25-20v-43.5c0-33.137 26.863-60 60-60h-120c-33.137 0-60 26.863-60 60v128.5c0 33.137 26.863 60 60 60h120c-27.958 0-51.449-19.121-58.109-45z" fill="#1cbbea"/></g><g><path d="m380.113 467c-35.919 0-65.283-28.854-65.279-64.965 0-57.385 70.227-86.943 111.408-45.99 5.875 5.842 5.902 15.34.061 21.213-5.844 5.877-15.342 5.898-21.213.061-22.199-22.073-60.256-6.309-60.256 24.717-.007 30.945 38.007 46.843 60.256 24.721 5.875-5.842 15.373-5.814 21.213.061 5.842 5.873 5.814 15.371-.061 21.213-12.717 12.645-29.424 18.969-46.129 18.969z" fill="#ffdbe0"/></g><g fill="#313d40"><g><path d="m192.904 36.18c-4.143 0-7.5 3.357-7.5 7.5v12c0 4.143 3.357 7.5 7.5 7.5s7.5-3.357 7.5-7.5v-12c0-4.143-3.357-7.5-7.5-7.5z"/><path d="m270.722 49.952c-3.125-2.722-7.862-2.396-10.582.727-6.166 7.075-17.121 7.067-23.279 0-2.723-3.122-7.46-3.447-10.582-.727-3.122 2.722-3.448 7.459-.727 10.582 12.144 13.935 33.766 13.92 45.896 0 2.722-3.123 2.396-7.86-.726-10.582z"/><path d="m306.412 33.939c-11.804 0-21.406 9.603-21.406 21.405 0 4.143 3.357 7.5 7.5 7.5s7.5-3.357 7.5-7.5c0-3.532 2.874-6.405 6.406-6.405s6.406 2.873 6.406 6.405c0 4.143 3.357 7.5 7.5 7.5s7.5-3.357 7.5-7.5c0-11.802-9.602-21.405-21.406-21.405z"/></g><g><path d="m310.301 279.985c-4.143 0-7.5 3.357-7.5 7.5v12c0 4.143 3.357 7.5 7.5 7.5s7.5-3.357 7.5-7.5v-12c0-4.142-3.358-7.5-7.5-7.5z"/><path d="m435.198 279.985c-4.143 0-7.5 3.357-7.5 7.5v12c0 4.143 3.357 7.5 7.5 7.5s7.5-3.357 7.5-7.5v-12c0-4.142-3.357-7.5-7.5-7.5z"/><path d="m394.141 293.474c-3.122-2.722-7.861-2.396-10.581.728-5.726 6.569-15.898 6.563-21.619 0-2.721-3.124-7.46-3.449-10.581-.728-3.123 2.721-3.449 7.459-.728 10.581 11.702 13.431 32.545 13.419 44.236 0 2.722-3.122 2.396-7.861-.727-10.581z"/></g><g><path d="m85.621 279.812c-3.122-2.722-7.86-2.396-10.582.727-4.396 5.043-12.195 5.037-16.585 0-2.723-3.122-7.46-3.448-10.582-.727s-3.448 7.459-.727 10.582c10.374 11.902 28.84 11.89 39.202 0 2.722-3.123 2.396-7.86-.726-10.582z"/><path d="m200.628 279.812c-3.123-2.722-7.86-2.396-10.582.727-4.396 5.043-12.195 5.037-16.585 0-2.723-3.122-7.46-3.448-10.582-.727s-3.448 7.459-.727 10.582c10.374 11.902 28.839 11.89 39.202 0 2.722-3.123 2.396-7.86-.726-10.582z"/><path d="m146.395 287.977c-3.125-2.722-7.862-2.396-10.582.727-6.164 7.073-17.121 7.067-23.279 0-2.722-3.122-7.46-3.447-10.582-.727-3.122 2.722-3.448 7.459-.727 10.582 12.142 13.933 33.766 13.92 45.896 0 2.722-3.123 2.396-7.86-.726-10.582z"/></g></g><g><path d="m166.558 376.341c0-21.423-17.431-38.854-38.854-38.854h-32.81c-7.154 0-12.951 5.798-12.951 12.951v103.61c0 7.153 5.798 12.951 12.951 12.951h32.81c21.423 0 38.854-17.431 38.854-38.854 0-9.941-3.754-19.024-9.917-25.902 6.163-6.878 9.917-15.961 9.917-25.902zm-39.05 59.659h-15.843v-18.655h15.843c5.143 0 9.327 4.185 9.327 9.327 0 5.143-4.185 9.328-9.327 9.328zm0-48.857h-15.843v-18.655h15.843c5.143 0 9.327 4.185 9.327 9.328 0 5.142-4.185 9.327-9.327 9.327z" fill="#b9f0ff"/></g></g></svg>